<svg xmlns="http://www.w3.org/2000/svg" xmlns:xlink="http://www.w3.org/1999/xlink" width="1000.367" height="400" viewBox="0 0 1000.367 400"><defs><style>.cls-1{fill:none;}.cls-2{isolation:isolate;}.cls-3{clip-path:url(#clip-path);}.cls-10,.cls-100,.cls-101,.cls-102,.cls-103,.cls-104,.cls-105,.cls-106,.cls-107,.cls-108,.cls-109,.cls-11,.cls-110,.cls-111,.cls-112,.cls-113,.cls-114,.cls-115,.cls-116,.cls-117,.cls-118,.cls-119,.cls-12,.cls-120,.cls-121,.cls-122,.cls-123,.cls-124,.cls-125,.cls-126,.cls-127,.cls-128,.cls-129,.cls-13,.cls-130,.cls-131,.cls-132,.cls-133,.cls-134,.cls-135,.cls-136,.cls-137,.cls-138,.cls-139,.cls-14,.cls-140,.cls-141,.cls-142,.cls-143,.cls-144,.cls-145,.cls-146,.cls-147,.cls-148,.cls-149,.cls-15,.cls-150,.cls-151,.cls-152,.cls-153,.cls-154,.cls-155,.cls-156,.cls-157,.cls-158,.cls-159,.cls-16,.cls-160,.cls-161,.cls-162,.cls-163,.cls-164,.cls-165,.cls-166,.cls-167,.cls-169,.cls-17,.cls-170,.cls-18,.cls-19,.cls-20,.cls-21,.cls-22,.cls-23,.cls-24,.cls-25,.cls-26,.cls-27,.cls-28,.cls-29,.cls-30,.cls-31,.cls-32,.cls-33,.cls-34,.cls-35,.cls-36,.cls-37,.cls-38,.cls-39,.cls-4,.cls-40,.cls-41,.cls-42,.cls-43,.cls-44,.cls-45,.cls-46,.cls-47,.cls-48,.cls-49,.cls-5,.cls-50,.cls-51,.cls-52,.cls-53,.cls-54,.cls-55,.cls-56,.cls-57,.cls-58,.cls-59,.cls-6,.cls-60,.cls-61,.cls-62,.cls-63,.cls-64,.cls-65,.cls-66,.cls-67,.cls-68,.cls-69,.cls-70,.cls-71,.cls-72,.cls-73,.cls-74,.cls-75,.cls-76,.cls-77,.cls-78,.cls-79,.cls-8,.cls-80,.cls-81,.cls-82,.cls-83,.cls-84,.cls-85,.cls-86,.cls-87,.cls-88,.cls-89,.cls-9,.cls-90,.cls-91,.cls-92,.cls-93,.cls-94,.cls-95,.cls-96,.cls-97,.cls-98,.cls-99{fill-rule:evenodd;}.cls-4{fill:url(#Áåçûìÿííûé_ãðàäèåíò_39);}.cls-5{fill:url(#Áåçûìÿííûé_ãðàäèåíò_15);}.cls-6,.cls-77{fill:#efdbff;}.cls-102,.cls-104,.cls-105,.cls-106,.cls-112,.cls-121,.cls-122,.cls-123,.cls-133,.cls-134,.cls-136,.cls-137,.cls-25,.cls-26,.cls-28,.cls-29,.cls-30,.cls-31,.cls-42,.cls-56,.cls-57,.cls-58,.cls-59,.cls-6,.cls-60,.cls-61,.cls-62,.cls-63,.cls-74,.cls-86{opacity:0.5;}.cls-102,.cls-103,.cls-104,.cls-105,.cls-106,.cls-112,.cls-114,.cls-115,.cls-121,.cls-122,.cls-123,.cls-133,.cls-134,.cls-136,.cls-137,.cls-14,.cls-143,.cls-144,.cls-145,.cls-146,.cls-147,.cls-153,.cls-159,.cls-164,.cls-167,.cls-25,.cls-26,.cls-27,.cls-28,.cls-29,.cls-30,.cls-31,.cls-42,.cls-43,.cls-56,.cls-57,.cls-58,.cls-59,.cls-6,.cls-60,.cls-61,.cls-62,.cls-63,.cls-70,.cls-74,.cls-75,.cls-76,.cls-77,.cls-81,.cls-86,.cls-89{mix-blend-mode:multiply;}.cls-168,.cls-7{mix-blend-mode:screen;}.cls-7{fill:url(#Áåçûìÿííûé_ãðàäèåíò_229);}.cls-8{fill:url(#Áåçûìÿííûé_ãðàäèåíò_119);}.cls-9{fill:url(#Áåçûìÿííûé_ãðàäèåíò_119-2);}.cls-10{fill:url(#Áåçûìÿííûé_ãðàäèåíò_66);}.cls-11{fill:url(#Áåçûìÿííûé_ãðàäèåíò_119-3);}.cls-12{fill:url(#Áåçûìÿííûé_ãðàäèåíò_24);}.cls-13{fill:url(#Áåçûìÿííûé_ãðàäèåíò_66-2);}.cls-103,.cls-114,.cls-115,.cls-14,.cls-27,.cls-89{opacity:0.95;}.cls-14{fill:url(#Áåçûìÿííûé_ãðàäèåíò_367);}.cls-15{fill:url(#Áåçûìÿííûé_ãðàäèåíò_66-3);}.cls-16{fill:url(#Áåçûìÿííûé_ãðàäèåíò_66-4);}.cls-17{fill:url(#Áåçûìÿííûé_ãðàäèåíò_107);}.cls-18{fill:url(#Áåçûìÿííûé_ãðàäèåíò_66-5);}.cls-19{fill:url(#Áåçûìÿííûé_ãðàäèåíò_107-2);}.cls-20{fill:url(#Áåçûìÿííûé_ãðàäèåíò_132);}.cls-21{fill:url(#Áåçûìÿííûé_ãðàäèåíò_131);}.cls-22{fill:url(#Áåçûìÿííûé_ãðàäèåíò_131-2);}.cls-23{fill:url(#Áåçûìÿííûé_ãðàäèåíò_131-3);}.cls-24{fill:url(#Áåçûìÿííûé_ãðàäèåíò_131-4);}.cls-25{fill:url(#Áåçûìÿííûé_ãðàäèåíò_367-2);}.cls-26{fill:url(#Áåçûìÿííûé_ãðàäèåíò_367-3);}.cls-27{fill:url(#Áåçûìÿííûé_ãðàäèåíò_367-4);}.cls-28{fill:url(#Áåçûìÿííûé_ãðàäèåíò_367-5);}.cls-29{fill:url(#Áåçûìÿííûé_ãðàäèåíò_367-6);}.cls-30{fill:url(#Áåçûìÿííûé_ãðàäèåíò_367-7);}.cls-31{fill:url(#Áåçûìÿííûé_ãðàäèåíò_367-8);}.cls-32{fill:url(#Áåçûìÿííûé_ãðàäèåíò_137);}.cls-33{fill:url(#Áåçûìÿííûé_ãðàäèåíò_137-2);}.cls-34{fill:url(#Áåçûìÿííûé_ãðàäèåíò_155);}.cls-35{fill:url(#Áåçûìÿííûé_ãðàäèåíò_149);}.cls-36{fill:url(#Áåçûìÿííûé_ãðàäèåíò_145);}.cls-37{fill:url(#Áåçûìÿííûé_ãðàäèåíò_156);}.cls-38{fill:url(#Áåçûìÿííûé_ãðàäèåíò_119-4);}.cls-39{fill:url(#Áåçûìÿííûé_ãðàäèåíò_119-5);}.cls-40{fill:url(#Áåçûìÿííûé_ãðàäèåíò_24-2);}.cls-41{fill:url(#Áåçûìÿííûé_ãðàäèåíò_66-6);}.cls-42{fill:url(#Áåçûìÿííûé_ãðàäèåíò_367-9);}.cls-43,.cls-81{opacity:0.71;}.cls-43{fill:url(#Áåçûìÿííûé_ãðàäèåíò_367-10);}.cls-44{fill:url(#Áåçûìÿííûé_ãðàäèåíò_117);}.cls-45{fill:url(#Áåçûìÿííûé_ãðàäèåíò_107-3);}.cls-46{fill:url(#Áåçûìÿííûé_ãðàäèåíò_117-2);}.cls-47{fill:url(#Áåçûìÿííûé_ãðàäèåíò_119-6);}.cls-48{fill:url(#Áåçûìÿííûé_ãðàäèåíò_66-7);}.cls-49{fill:url(#Áåçûìÿííûé_ãðàäèåíò_66-8);}.cls-50{fill:url(#Áåçûìÿííûé_ãðàäèåíò_66-9);}.cls-51{fill:url(#Áåçûìÿííûé_ãðàäèåíò_107-4);}.cls-52{fill:url(#Áåçûìÿííûé_ãðàäèåíò_131-5);}.cls-53{fill:url(#Áåçûìÿííûé_ãðàäèåíò_131-6);}.cls-54{fill:url(#Áåçûìÿííûé_ãðàäèåíò_132-2);}.cls-55{fill:url(#Áåçûìÿííûé_ãðàäèåíò_131-7);}.cls-56{fill:url(#Áåçûìÿííûé_ãðàäèåíò_367-11);}.cls-57{fill:url(#Áåçûìÿííûé_ãðàäèåíò_367-12);}.cls-58{fill:url(#Áåçûìÿííûé_ãðàäèåíò_367-13);}.cls-59{fill:url(#Áåçûìÿííûé_ãðàäèåíò_367-14);}.cls-60{fill:url(#Áåçûìÿííûé_ãðàäèåíò_367-15);}.cls-61{fill:url(#Áåçûìÿííûé_ãðàäèåíò_367-16);}.cls-62{fill:url(#Áåçûìÿííûé_ãðàäèåíò_367-17);}.cls-63{fill:url(#Áåçûìÿííûé_ãðàäèåíò_367-18);}.cls-64{fill:url(#Áåçûìÿííûé_ãðàäèåíò_137-3);}.cls-65{fill:url(#Áåçûìÿííûé_ãðàäèåíò_137-4);}.cls-66{fill:url(#Áåçûìÿííûé_ãðàäèåíò_140);}.cls-67{fill:url(#Áåçûìÿííûé_ãðàäèåíò_140-2);}.cls-68{fill:url(#Áåçûìÿííûé_ãðàäèåíò_149-2);}.cls-69{fill:url(#Áåçûìÿííûé_ãðàäèåíò_145-2);}.cls-70{opacity:0.87;fill:url(#Áåçûìÿííûé_ãðàäèåíò_367-19);}.cls-71{fill:url(#Áåçûìÿííûé_ãðàäèåíò_100);}.cls-72{fill:url(#Áåçûìÿííûé_ãðàäèåíò_84);}.cls-73{fill:url(#Áåçûìÿííûé_ãðàäèåíò_46);}.cls-74{fill:url(#Áåçûìÿííûé_ãðàäèåíò_367-20);}.cls-75{fill:url(#Áåçûìÿííûé_ãðàäèåíò_191);}.cls-76{fill:url(#Áåçûìÿííûé_ãðàäèåíò_191-2);}.cls-78{fill:url(#Áåçûìÿííûé_ãðàäèåíò_18);}.cls-79{fill:url(#Áåçûìÿííûé_ãðàäèåíò_156-2);}.cls-80{fill:url(#Áåçûìÿííûé_ãðàäèåíò_66-10);}.cls-81{fill:url(#Áåçûìÿííûé_ãðàäèåíò_367-21);}.cls-82{fill:url(#Áåçûìÿííûé_ãðàäèåíò_100-2);}.cls-83{fill:url(#Áåçûìÿííûé_ãðàäèåíò_84-2);}.cls-84{fill:url(#Áåçûìÿííûé_ãðàäèåíò_46-2);}.cls-85{fill:url(#Áåçûìÿííûé_ãðàäèåíò_46-3);}.cls-86{fill:url(#Áåçûìÿííûé_ãðàäèåíò_367-22);}.cls-87{fill:url(#Áåçûìÿííûé_ãðàäèåíò_18-2);}.cls-88{fill:url(#Áåçûìÿííûé_ãðàäèåíò_119-7);}.cls-89{fill:url(#Áåçûìÿííûé_ãðàäèåíò_367-23);}.cls-90{fill:url(#Áåçûìÿííûé_ãðàäèåíò_24-3);}.cls-91{fill:url(#Áåçûìÿííûé_ãðàäèåíò_119-8);}.cls-92{fill:url(#Áåçûìÿííûé_ãðàäèåíò_66-11);}.cls-93{fill:url(#Áåçûìÿííûé_ãðàäèåíò_119-9);}.cls-94{fill:url(#Áåçûìÿííûé_ãðàäèåíò_66-12);}.cls-95{fill:url(#Áåçûìÿííûé_ãðàäèåíò_66-13);}.cls-96{fill:url(#Áåçûìÿííûé_ãðàäèåíò_66-14);}.cls-97{fill:url(#Áåçûìÿííûé_ãðàäèåíò_107-5);}.cls-98{fill:url(#Áåçûìÿííûé_ãðàäèåíò_132-3);}.cls-99{fill:url(#Áåçûìÿííûé_ãðàäèåíò_131-8);}.cls-100{fill:url(#Áåçûìÿííûé_ãðàäèåíò_131-9);}.cls-101{fill:url(#Áåçûìÿííûé_ãðàäèåíò_131-10);}.cls-102{fill:url(#Áåçûìÿííûé_ãðàäèåíò_367-24);}.cls-103{fill:url(#Áåçûìÿííûé_ãðàäèåíò_367-25);}.cls-104{fill:url(#Áåçûìÿííûé_ãðàäèåíò_367-26);}.cls-105{fill:url(#Áåçûìÿííûé_ãðàäèåíò_367-27);}.cls-106{fill:url(#Áåçûìÿííûé_ãðàäèåíò_367-28);}.cls-107{fill:url(#Áåçûìÿííûé_ãðàäèåíò_137-5);}.cls-108{fill:url(#Áåçûìÿííûé_ãðàäèåíò_155-2);}.cls-109{fill:url(#Áåçûìÿííûé_ãðàäèåíò_66-15);}.cls-110{fill:url(#Áåçûìÿííûé_ãðàäèåíò_107-6);}.cls-111{fill:url(#Áåçûìÿííûé_ãðàäèåíò_132-4);}.cls-112{fill:url(#Áåçûìÿííûé_ãðàäèåíò_367-29);}.cls-113{fill:url(#Áåçûìÿííûé_ãðàäèåíò_137-6);}.cls-114{fill:url(#Áåçûìÿííûé_ãðàäèåíò_367-30);}.cls-115{fill:url(#Áåçûìÿííûé_ãðàäèåíò_367-31);}.cls-116{fill:url(#Áåçûìÿííûé_ãðàäèåíò_149-3);}.cls-117{fill:url(#Áåçûìÿííûé_ãðàäèåíò_24-4);}.cls-118{fill:url(#Áåçûìÿííûé_ãðàäèåíò_40);}.cls-119{fill:url(#Áåçûìÿííûé_ãðàäèåíò_40-2);}.cls-120{fill:url(#Áåçûìÿííûé_ãðàäèåíò_46-4);}.cls-121{fill:url(#Áåçûìÿííûé_ãðàäèåíò_367-32);}.cls-122{fill:url(#Áåçûìÿííûé_ãðàäèåíò_367-33);}.cls-123{fill:url(#Áåçûìÿííûé_ãðàäèåíò_367-34);}.cls-124{fill:#ffb565;}.cls-125{fill:url(#Áåçûìÿííûé_ãðàäèåíò_54);}.cls-126{fill:url(#Áåçûìÿííûé_ãðàäèåíò_18-3);}.cls-127{fill:url(#Áåçûìÿííûé_ãðàäèåíò_24-5);}.cls-128{fill:url(#Áåçûìÿííûé_ãðàäèåíò_40-3);}.cls-129{fill:url(#Áåçûìÿííûé_ãðàäèåíò_40-4);}.cls-130{fill:url(#Áåçûìÿííûé_ãðàäèåíò_40-5);}.cls-131{fill:url(#Áåçûìÿííûé_ãðàäèåíò_46-5);}.cls-132{fill:url(#Áåçûìÿííûé_ãðàäèåíò_40-6);}.cls-133{fill:url(#Áåçûìÿííûé_ãðàäèåíò_367-35);}.cls-134{fill:url(#Áåçûìÿííûé_ãðàäèåíò_367-36);}.cls-135{fill:url(#Áåçûìÿííûé_ãðàäèåíò_40-7);}.cls-136{fill:url(#Áåçûìÿííûé_ãðàäèåíò_367-37);}.cls-137{fill:url(#Áåçûìÿííûé_ãðàäèåíò_367-38);}.cls-138{fill:url(#Áåçûìÿííûé_ãðàäèåíò_46-6);}.cls-139{fill:url(#Áåçûìÿííûé_ãðàäèåíò_46-7);}.cls-140{fill:url(#Áåçûìÿííûé_ãðàäèåíò_46-8);}.cls-141{fill:url(#Áåçûìÿííûé_ãðàäèåíò_46-9);}.cls-142{fill:url(#Áåçûìÿííûé_ãðàäèåíò_46-10);}.cls-143{fill:url(#Áåçûìÿííûé_ãðàäèåíò_191-3);}.cls-144{fill:url(#Áåçûìÿííûé_ãðàäèåíò_191-4);}.cls-145{fill:url(#Áåçûìÿííûé_ãðàäèåíò_191-5);}.cls-146{fill:url(#Áåçûìÿííûé_ãðàäèåíò_191-6);}.cls-147{fill:url(#Áåçûìÿííûé_ãðàäèåíò_191-7);}.cls-148{fill:url(#Áåçûìÿííûé_ãðàäèåíò_54-2);}.cls-149{fill:url(#Áåçûìÿííûé_ãðàäèåíò_54-3);}.cls-150{fill:url(#Áåçûìÿííûé_ãðàäèåíò_93);}.cls-151{fill:url(#Áåçûìÿííûé_ãðàäèåíò_312);}.cls-152{fill:url(#Áåçûìÿííûé_ãðàäèåíò_93-2);}.cls-153{fill:url(#Áåçûìÿííûé_ãðàäèåíò_191-8);}.cls-154{fill:url(#Áåçûìÿííûé_ãðàäèåíò_54-4);}.cls-155{fill:url(#Áåçûìÿííûé_ãðàäèåíò_54-5);}.cls-156{fill:url(#Áåçûìÿííûé_ãðàäèåíò_24-6);}.cls-157{fill:url(#Áåçûìÿííûé_ãðàäèåíò_40-8);}.cls-158{fill:url(#Áåçûìÿííûé_ãðàäèåíò_46-11);}.cls-159{fill:url(#Áåçûìÿííûé_ãðàäèåíò_367-39);}.cls-160{fill:url(#Áåçûìÿííûé_ãðàäèåíò_81);}.cls-161{fill:url(#Áåçûìÿííûé_ãðàäèåíò_24-7);}.cls-162{fill:url(#Áåçûìÿííûé_ãðàäèåíò_40-9);}.cls-163{fill:url(#Áåçûìÿííûé_ãðàäèåíò_46-12);}.cls-164{fill:url(#Áåçûìÿííûé_ãðàäèåíò_367-40);}.cls-165{fill:url(#Áåçûìÿííûé_ãðàäèåíò_24-8);}.cls-166{fill:url(#Áåçûìÿííûé_ãðàäèåíò_40-10);}.cls-167{fill:url(#Áåçûìÿííûé_ãðàäèåíò_367-41);}.cls-168{fill:url(#Áåçûìÿííûé_ãðàäèåíò_229-2);}.cls-169{fill:url(#radial-gradient);}.cls-170{fill:url(#linear-gradient);}</style><clipPath id="clip-path"><rect class="cls-1" width="1000" height="400"/></clipPath><radialGradient id="Áåçûìÿííûé_ãðàäèåíò_39" cx="507.334" cy="80266.0473" r="535.7797" gradientTransform="translate(-90.3115 -7239.0469) scale(1.1076 0.0941)" gradientUnits="userSpaceOnUse"><stop offset="0.3101" stop-color="#ccd89c"/><stop offset="0.47" stop-color="#a7dbaf"/><stop offset="0.691" stop-color="#7adfc6"/><stop offset="0.8622" stop-color="#5ee1d4"/><stop offset="0.9615" stop-color="#54e2d9"/></radialGradient><linearGradient id="Áåçûìÿííûé_ãðàäèåíò_15" x1="491.8246" y1="329.7634" x2="491.8246" y2="272.5335" gradientUnits="userSpaceOnUse"><stop offset="0" stop-color="#fabb52"/><stop offset="0.624" stop-color="#fed66b"/><stop offset="1" stop-color="#ffe075"/></linearGradient><linearGradient id="Áåçûìÿííûé_ãðàäèåíò_229" x1="361.5868" y1="334.9019" x2="361.5868" y2="293.375" gradientUnits="userSpaceOnUse"><stop offset="0.0056" stop-color="#72bdb3"/><stop offset="1"/></linearGradient><linearGradient id="Áåçûìÿííûé_ãðàäèåíò_119" x1="659.0626" y1="125.4617" x2="659.0626" y2="87.0898" gradientTransform="translate(6.0036 -22.6273) rotate(1.4955)" gradientUnits="userSpaceOnUse"><stop offset="0" stop-color="#6f7b00"/><stop offset="0.5796" stop-color="#597414"/><stop offset="1" stop-color="#4f701e"/></linearGradient><linearGradient id="Áåçûìÿííûé_ãðàäèåíò_119-2" x1="645.86" y1="124.8153" x2="645.86" y2="95.1683" xlink:href="#Áåçûìÿííûé_ãðàäèåíò_119"/><linearGradient id="Áåçûìÿííûé_ãðàäèåíò_66" x1="651.5811" y1="82.2444" x2="704.6841" y2="82.2444" gradientTransform="translate(6.0036 -22.6273) rotate(1.4955)" gradientUnits="userSpaceOnUse"><stop offset="0" stop-color="#aead13"/><stop offset="0.4047" stop-color="#899f21"/><stop offset="0.7814" stop-color="#6d942b"/><stop offset="1" stop-color="#63902f"/></linearGradient><linearGradient id="Áåçûìÿííûé_ãðàäèåíò_119-3" x1="618.8789" y1="94.7053" x2="618.8789" y2="78.9554" xlink:href="#Áåçûìÿííûé_ãðàäèåíò_119"/><linearGradient id="Áåçûìÿííûé_ãðàäèåíò_24" x1="646.4425" y1="243.3329" x2="646.4425" y2="90.5471" gradientTransform="translate(6.0036 -22.6273) rotate(1.4955)" gradientUnits="userSpaceOnUse"><stop offset="0" stop-color="#814c63"/><stop offset="0.3927" stop-color="#85586e"/><stop offset="1" stop-color="#8d7288"/></linearGradient><linearGradient id="Áåçûìÿííûé_ãðàäèåíò_66-2" x1="632.9095" y1="78.9573" x2="656.3061" y2="78.9573" xlink:href="#Áåçûìÿííûé_ãðàäèåíò_66"/><linearGradient id="Áåçûìÿííûé_ãðàäèåíò_367" x1="663.3881" y1="125.4617" x2="663.3881" y2="91.8767" gradientTransform="translate(6.0036 -22.6273) rotate(1.4955)" gradientUnits="userSpaceOnUse"><stop offset="0" stop-color="#c0b3d4"/><stop offset="0.4503" stop-color="#d2bfcd"/><stop offset="0.9944" stop-color="#e3cac7"/></linearGradient><linearGradient id="Áåçûìÿííûé_ãðàäèåíò_66-3" x1="587.2019" y1="82.2425" x2="651.5813" y2="82.2425" xlink:href="#Áåçûìÿííûé_ãðàäèåíò_66"/><linearGradient id="Áåçûìÿííûé_ãðàäèåíò_66-4" x1="677.2603" y1="121.2164" x2="677.2603" y2="85.4111" xlink:href="#Áåçûìÿííûé_ãðàäèåíò_66"/><linearGradient id="Áåçûìÿííûé_ãðàäèåíò_107" x1="680.0468" y1="121.2164" x2="680.0468" y2="84.9167" gradientTransform="translate(6.0036 -22.6273) rotate(1.4955)" gradientUnits="userSpaceOnUse"><stop offset="0" stop-color="#c2ba13"/><stop offset="0.6316" stop-color="#a6a627"/><stop offset="1" stop-color="#9c9f2f"/></linearGradient><linearGradient id="Áåçûìÿííûé_ãðàäèåíò_66-5" x1="645.9319" y1="127.559" x2="645.9319" y2="75.633" xlink:href="#Áåçûìÿííûé_ãðàäèåíò_66"/><linearGradient id="Áåçûìÿííûé_ãðàäèåíò_107-2" x1="639.3923" y1="127.559" x2="639.3923" y2="75.6349" xlink:href="#Áåçûìÿííûé_ãðàäèåíò_107"/><linearGradient id="Áåçûìÿííûé_ãðàäèåíò_132" x1="663.0905" y1="104.9864" x2="703.0328" y2="104.9864" gradientTransform="translate(6.0036 -22.6273) rotate(1.4955)" gradientUnits="userSpaceOnUse"><stop offset="0" stop-color="#a4a22f"/><stop offset="0.253" stop-color="#aeaa2a"/><stop offset="0.6875" stop-color="#cabe1e"/><stop offset="1" stop-color="#e2cf13"/></linearGradient><linearGradient id="Áåçûìÿííûé_ãðàäèåíò_131" x1="626.4999" y1="104.4911" x2="654.8329" y2="104.4911" gradientTransform="translate(6.0036 -22.6273) rotate(1.4955)" gradientUnits="userSpaceOnUse"><stop offset="0" stop-color="#e2cf13"/><stop offset="0.3125" stop-color="#cabe1e"/><stop offset="0.747" stop-color="#aeaa2a"/><stop offset="1" stop-color="#a4a22f"/></linearGradient><linearGradient id="Áåçûìÿííûé_ãðàäèåíò_131-2" x1="591.2581" y1="80.3732" x2="637.8857" y2="80.3732" xlink:href="#Áåçûìÿííûé_ãðàäèåíò_131"/><linearGradient id="Áåçûìÿííûé_ãðàäèåíò_131-3" x1="647.2364" y1="77.4629" x2="655.8076" y2="77.4629" xlink:href="#Áåçûìÿííûé_ãðàäèåíò_131"/><linearGradient id="Áåçûìÿííûé_ãðàäèåíò_131-4" x1="657.0608" y1="81.6151" x2="704.6841" y2="81.6151" xlink:href="#Áåçûìÿííûé_ãðàäèåíò_131"/><linearGradient id="Áåçûìÿííûé_ãðàäèåíò_367-2" x1="645.4969" y1="105.3754" x2="645.4969" y2="92.0806" xlink:href="#Áåçûìÿííûé_ãðàäèåíò_367"/><linearGradient id="Áåçûìÿííûé_ãðàäèåíò_367-3" x1="683.0806" y1="112.9335" x2="683.0806" y2="98.7965" xlink:href="#Áåçûìÿííûé_ãðàäèåíò_367"/><linearGradient id="Áåçûìÿííûé_ãðàäèåíò_367-4" x1="662.8753" y1="97.7788" x2="662.8753" y2="84.9166" xlink:href="#Áåçûìÿííûé_ãðàäèåíò_367"/><linearGradient id="Áåçûìÿííûé_ãðàäèåíò_367-5" x1="686.6295" y1="96.5741" x2="686.6295" y2="93.743" xlink:href="#Áåçûìÿííûé_ãðàäèåíò_367"/><linearGradient id="Áåçûìÿííûé_ãðàäèåíò_367-6" x1="640.2076" y1="89.9948" x2="640.2076" y2="81.1962" xlink:href="#Áåçûìÿííûé_ãðàäèåíò_367"/><linearGradient id="Áåçûìÿííûé_ãðàäèåíò_367-7" x1="619.5319" y1="91.4569" x2="619.5319" y2="73.5265" xlink:href="#Áåçûìÿííûé_ãðàäèåíò_367"/><linearGradient id="Áåçûìÿííûé_ãðàäèåíò_367-8" x1="691.9039" y1="87.0908" x2="691.9039" y2="77.5818" xlink:href="#Áåçûìÿííûé_ãðàäèåíò_367"/><linearGradient id="Áåçûìÿííûé_ãðàäèåíò_137" x1="631.2444" y1="108.2287" x2="631.2444" y2="93.9119" gradientTransform="translate(6.0036 -22.6273) rotate(1.4955)" gradientUnits="userSpaceOnUse"><stop offset="0" stop-color="#e2cf13"/><stop offset="0.624" stop-color="#c7be27"/><stop offset="1" stop-color="#bdb82f"/></linearGradient><linearGradient id="Áåçûìÿííûé_ãðàäèåíò_137-2" x1="692.1581" y1="109.4459" x2="692.1581" y2="98.8709" xlink:href="#Áåçûìÿííûé_ãðàäèåíò_137"/><linearGradient id="Áåçûìÿííûé_ãðàäèåíò_155" x1="611.5299" y1="91.3958" x2="611.5299" y2="74.7548" gradientTransform="translate(6.0036 -22.6273) rotate(1.4955)" gradientUnits="userSpaceOnUse"><stop offset="0" stop-color="#aeb413"/><stop offset="0.5342" stop-color="#a8a925"/><stop offset="1" stop-color="#a4a22f"/></linearGradient><linearGradient id="Áåçûìÿííûé_ãðàäèåíò_149" x1="651.625" y1="172.9546" x2="651.625" y2="114.3785" gradientTransform="translate(6.0036 -22.6273) rotate(1.4955)" gradientUnits="userSpaceOnUse"><stop offset="0" stop-color="#ef9f3b"/><stop offset="0.2773" stop-color="#e5973f"/><stop offset="0.7538" stop-color="#c9804a"/><stop offset="1" stop-color="#b87251"/></linearGradient><linearGradient id="Áåçûìÿííûé_ãðàäèåíò_145" x1="652.4278" y1="152.7863" x2="652.4278" y2="130.5721" gradientTransform="translate(6.0036 -22.6273) rotate(1.4955)" gradientUnits="userSpaceOnUse"><stop offset="0" stop-color="#dd9063"/><stop offset="0.6534" stop-color="#dc8d59"/><stop offset="1" stop-color="#db8b51"/></linearGradient><linearGradient id="Áåçûìÿííûé_ãðàäèåíò_156" x1="698.5592" y1="300.7245" x2="698.5592" y2="197.0606" gradientTransform="translate(6.0036 -22.6273) rotate(1.4955)" gradientUnits="userSpaceOnUse"><stop offset="0" stop-color="#63902f"/><stop offset="0.2186" stop-color="#6d942b"/><stop offset="0.5953" stop-color="#899f21"/><stop offset="1" stop-color="#aead13"/></linearGradient><linearGradient id="Áåçûìÿííûé_ãðàäèåíò_119-4" x1="776.4178" y1="188.1461" x2="776.4178" y2="136.7526" xlink:href="#Áåçûìÿííûé_ãðàäèåíò_119"/><linearGradient id="Áåçûìÿííûé_ãðàäèåíò_119-5" x1="801.1931" y1="149.392" x2="801.1931" y2="129.6106" xlink:href="#Áåçûìÿííûé_ãðàäèåíò_119"/><linearGradient id="Áåçûìÿííûé_ãðàäèåíò_24-2" x1="728.513" y1="295.1436" x2="728.513" y2="138.9142" xlink:href="#Áåçûìÿííûé_ãðàäèåíò_24"/><linearGradient id="Áåçûìÿííûé_ãðàäèåíò_66-6" x1="776.0879" y1="138.9159" x2="844.5438" y2="138.9159" xlink:href="#Áåçûìÿííûé_ãðàäèåíò_66"/><linearGradient id="Áåçûìÿííûé_ãðàäèåíò_367-9" x1="798.9049" y1="147.0699" x2="798.9049" y2="134.0885" xlink:href="#Áåçûìÿííûé_ãðàäèåíò_367"/><linearGradient id="Áåçûìÿííûé_ãðàäèåíò_367-10" x1="771.0241" y1="188.1461" x2="771.0241" y2="138.7941" xlink:href="#Áåçûìÿííûé_ãðàäèåíò_367"/><linearGradient id="Áåçûìÿííûé_ãðàäèåíò_117" x1="798.5515" y1="178.5908" x2="798.5515" y2="145.2714" gradientTransform="translate(6.0036 -22.6273) rotate(1.4955)" gradientUnits="userSpaceOnUse"><stop offset="0" stop-color="#6f7b00"/><stop offset="0.5796" stop-color="#597e14"/><stop offset="1" stop-color="#4f7f1e"/></linearGradient><linearGradient id="Áåçûìÿííûé_ãðàäèåíò_107-3" x1="791.4622" y1="186.3708" x2="791.4622" y2="139.5136" xlink:href="#Áåçûìÿííûé_ãðàäèåíò_107"/><linearGradient id="Áåçûìÿííûé_ãðàäèåíò_117-2" x1="744.6389" y1="133.0845" x2="744.6389" y2="119.2586" xlink:href="#Áåçûìÿííûé_ãðàäèåíò_117"/><linearGradient id="Áåçûìÿííûé_ãðàäèåíò_119-6" x1="741.7482" y1="157.0018" x2="741.7482" y2="134.4767" xlink:href="#Áåçûìÿííûé_ãðàäèåíò_119"/><linearGradient id="Áåçûìÿííûé_ãðàäèåíò_66-7" x1="791.2956" y1="186.3708" x2="791.2956" y2="139.7595" xlink:href="#Áåçûìÿííûé_ãðàäèåíò_66"/><linearGradient id="Áåçûìÿííûé_ãðàäèåíò_66-8" x1="724.5269" y1="126.6708" x2="776.8147" y2="126.6708" xlink:href="#Áåçûìÿííûé_ãðàäèåíò_66"/><linearGradient id="Áåçûìÿííûé_ãðàäèåíò_66-9" x1="762.1237" y1="170.7827" x2="762.1237" y2="127.9943" xlink:href="#Áåçûìÿííûé_ãðàäèåíò_66"/><linearGradient id="Áåçûìÿííûé_ãðàäèåíò_107-4" x1="762.1102" y1="170.7827" x2="762.1102" y2="127.9943" xlink:href="#Áåçûìÿííûé_ãðàäèåíò_107"/><linearGradient id="Áåçûìÿííûé_ãðàäèåíò_131-5" x1="743.3349" y1="151.3289" x2="781.8496" y2="151.3289" xlink:href="#Áåçûìÿííûé_ãðàäèåíò_131"/><linearGradient id="Áåçûìÿííûé_ãðàäèåíò_131-6" x1="783.0959" y1="134.5679" x2="844.5438" y2="134.5679" xlink:href="#Áåçûìÿííûé_ãðàäèåíò_131"/><linearGradient id="Áåçûìÿííûé_ãðàäèåíò_132-2" x1="779.6221" y1="163.8004" x2="809.8852" y2="163.8004" xlink:href="#Áåçûìÿííûé_ãðàäèåíò_132"/><linearGradient id="Áåçûìÿííûé_ãðàäèåíò_131-7" x1="736.1971" y1="124.6593" x2="774.4633" y2="124.6593" xlink:href="#Áåçûìÿííûé_ãðàäèåíò_131"/><linearGradient id="Áåçûìÿííûé_ãðàäèåíò_367-11" x1="762.6401" y1="157.2334" x2="762.6401" y2="142.8778" xlink:href="#Áåçûìÿííûé_ãðàäèåíò_367"/><linearGradient id="Áåçûìÿííûé_ãðàäèåíò_367-12" x1="812.1159" y1="144.4933" x2="812.1159" y2="131.8307" xlink:href="#Áåçûìÿííûé_ãðàäèåíò_367"/><linearGradient id="Áåçûìÿííûé_ãðàäèåíò_367-13" x1="829.1794" y1="140.1219" x2="829.1794" y2="132.7981" xlink:href="#Áåçûìÿííûé_ãðàäèåíò_367"/><linearGradient id="Áåçûìÿííûé_ãðàäèåíò_367-14" x1="749.4699" y1="145.7399" x2="749.4699" y2="143.1992" xlink:href="#Áåçûìÿííûé_ãðàäèåíò_367"/><linearGradient id="Áåçûìÿííûé_ãðàäèåíò_367-15" x1="774.5651" y1="140.1475" x2="774.5651" y2="133.7013" xlink:href="#Áåçûìÿííûé_ãðàäèåíò_367"/><linearGradient id="Áåçûìÿííûé_ãðàäèåíò_367-16" x1="745.44" y1="129.1008" x2="745.44" y2="119.8706" xlink:href="#Áåçûìÿííûé_ãðàäèåíò_367"/><linearGradient id="Áåçûìÿííûé_ãðàäèåíò_367-17" x1="758.8962" y1="129.1013" x2="758.8962" y2="118.3123" xlink:href="#Áåçûìÿííûé_ãðàäèåíò_367"/><linearGradient id="Áåçûìÿííûé_ãðàäèåíò_367-18" x1="800.9642" y1="176.4537" x2="800.9642" y2="161.9314" xlink:href="#Áåçûìÿííûé_ãðàäèåíò_367"/><linearGradient id="Áåçûìÿííûé_ãðàäèåíò_137-3" x1="752.9901" y1="145.2698" x2="752.9901" y2="135.1432" xlink:href="#Áåçûìÿííûé_ãðàäèåíò_137"/><linearGradient id="Áåçûìÿííûé_ãðàäèåíò_137-4" x1="805.2117" y1="160.0149" x2="805.2117" y2="149.3909" xlink:href="#Áåçûìÿííûé_ãðàäèåíò_137"/><linearGradient id="Áåçûìÿííûé_ãðàäèåíò_140" x1="815.9605" y1="144.4933" x2="815.9605" y2="130.8291" gradientTransform="translate(6.0036 -22.6273) rotate(1.4955)" gradientUnits="userSpaceOnUse"><stop offset="0" stop-color="#c9c813"/><stop offset="0.6316" stop-color="#aeac27"/><stop offset="1" stop-color="#a4a22f"/></linearGradient><linearGradient id="Áåçûìÿííûé_ãðàäèåíò_140-2" x1="739.4849" y1="129.1005" x2="739.4849" y2="120.2666" xlink:href="#Áåçûìÿííûé_ãðàäèåíò_140"/><linearGradient id="Áåçûìÿííûé_ãðàäèåíò_149-2" x1="714.6652" y1="269.0003" x2="714.6652" y2="163.7977" xlink:href="#Áåçûìÿííûé_ãðàäèåíò_149"/><linearGradient id="Áåçûìÿííûé_ãðàäèåíò_145-2" x1="723.1801" y1="188.7886" x2="723.1801" y2="173.7445" xlink:href="#Áåçûìÿííûé_ãðàäèåíò_145"/><linearGradient id="Áåçûìÿííûé_ãðàäèåíò_367-19" x1="695.4747" y1="295.1436" x2="695.4747" y2="222.9049" xlink:href="#Áåçûìÿííûé_ãðàäèåíò_367"/><linearGradient id="Áåçûìÿííûé_ãðàäèåíò_100" x1="490.1351" y1="275.7364" x2="490.1351" y2="149.7022" gradientTransform="translate(-1.6751 2.211) rotate(-0.361)" gradientUnits="userSpaceOnUse"><stop offset="0" stop-color="#ffa777"/><stop offset="0.4388" stop-color="#d4836c"/><stop offset="0.7939" stop-color="#b86c66"/><stop offset="1" stop-color="#ae6363"/></linearGradient><linearGradient id="Áåçûìÿííûé_ãðàäèåíò_84" x1="488.6487" y1="239.5092" x2="488.6487" y2="149.7022" gradientTransform="translate(-1.6751 2.211) rotate(-0.361)" gradientUnits="userSpaceOnUse"><stop offset="0" stop-color="#d9905b"/><stop offset="1" stop-color="#dd9063"/></linearGradient><linearGradient id="Áåçûìÿííûé_ãðàäèåíò_46" x1="462.1542" y1="229.8627" x2="462.1542" y2="221.5492" gradientTransform="translate(-1.6751 2.211) rotate(-0.361)" gradientUnits="userSpaceOnUse"><stop offset="0" stop-color="#ffb572"/><stop offset="0.2484" stop-color="#fcb46d"/><stop offset="1" stop-color="#f4b363"/></linearGradient><linearGradient id="Áåçûìÿííûé_ãðàäèåíò_367-20" x1="491.07" y1="273.6837" x2="491.07" y2="158.8068" gradientTransform="translate(-1.6751 2.211) rotate(-0.361)" xlink:href="#Áåçûìÿííûé_ãðàäèåíò_367"/><linearGradient id="Áåçûìÿííûé_ãðàäèåíò_191" x1="465.7991" y1="270.1592" x2="465.7991" y2="228.6743" gradientTransform="translate(-1.6751 2.211) rotate(-0.361)" gradientUnits="userSpaceOnUse"><stop offset="0" stop-color="#d1e8ff"/><stop offset="0.0334" stop-color="#d2e8ff"/><stop offset="0.9944" stop-color="#e3ecff"/></linearGradient><linearGradient id="Áåçûìÿííûé_ãðàäèåíò_191-2" x1="487.4425" y1="273.1627" x2="487.4425" y2="195.5045" xlink:href="#Áåçûìÿííûé_ãðàäèåíò_191"/><linearGradient id="Áåçûìÿííûé_ãðàäèåíò_18" x1="493.8754" y1="167.9714" x2="493.8754" y2="149.7022" gradientTransform="translate(-1.6751 2.211) rotate(-0.361)" gradientUnits="userSpaceOnUse"><stop offset="0" stop-color="#f8a152"/><stop offset="0.3466" stop-color="#f6a959"/><stop offset="1" stop-color="#f4b363"/></linearGradient><linearGradient id="Áåçûìÿííûé_ãðàäèåíò_156-2" x1="412.2482" y1="287.5345" x2="412.2482" y2="219.9473" xlink:href="#Áåçûìÿííûé_ãðàäèåíò_156"/><linearGradient id="Áåçûìÿííûé_ãðàäèåíò_66-10" x1="542.9881" y1="308.5378" x2="542.9881" y2="279.6206" xlink:href="#Áåçûìÿííûé_ãðàäèåíò_66"/><linearGradient id="Áåçûìÿííûé_ãðàäèåíò_367-21" x1="586.2376" y1="301.949" x2="586.2376" y2="277.7474" xlink:href="#Áåçûìÿííûé_ãðàäèåíò_367"/><linearGradient id="Áåçûìÿííûé_ãðàäèåíò_100-2" x1="414.5071" y1="285.7557" x2="414.5071" y2="219.9466" gradientTransform="translate(6.0036 -22.6273) rotate(1.4955)" xlink:href="#Áåçûìÿííûé_ãðàäèåíò_100"/><linearGradient id="Áåçûìÿííûé_ãðàäèåíò_84-2" x1="411.7924" y1="263.3693" x2="411.7924" y2="219.9466" gradientTransform="translate(6.0036 -22.6273) rotate(1.4955)" xlink:href="#Áåçûìÿííûé_ãðàäèåíò_84"/><linearGradient id="Áåçûìÿííûé_ãðàäèåíò_46-2" x1="423.7179" y1="257.1696" x2="423.7179" y2="249.6715" gradientTransform="translate(6.0036 -22.6273) rotate(1.4955)" xlink:href="#Áåçûìÿííûé_ãðàäèåíò_46"/><linearGradient id="Áåçûìÿííûé_ãðàäèåíò_46-3" x1="399.8136" y1="263.3689" x2="399.8136" y2="259.1336" gradientTransform="translate(6.0036 -22.6273) rotate(1.4955)" xlink:href="#Áåçûìÿííûé_ãðàäèåíò_46"/><linearGradient id="Áåçûìÿííûé_ãðàäèåíò_367-22" x1="419.7529" y1="285.7354" x2="419.7529" y2="225.2417" xlink:href="#Áåçûìÿííûé_ãðàäèåíò_367"/><linearGradient id="Áåçûìÿííûé_ãðàäèåíò_18-2" x1="414.2507" y1="233.5287" x2="414.2507" y2="219.9466" gradientTransform="translate(6.0036 -22.6273) rotate(1.4955)" xlink:href="#Áåçûìÿííûé_ãðàäèåíò_18"/><linearGradient id="Áåçûìÿííûé_ãðàäèåíò_119-7" x1="1093.139" y1="-111.4002" x2="1093.139" y2="-149.7726" gradientTransform="matrix(-0.6609, 0.7505, 0.7505, 0.6609, 1266.5794, -616.1152)" xlink:href="#Áåçûìÿííûé_ãðàäèåíò_119"/><linearGradient id="Áåçûìÿííûé_ãðàäèåíò_367-23" x1="1097.4654" y1="-111.4002" x2="1097.4654" y2="-144.9847" gradientTransform="matrix(-0.6609, 0.7505, 0.7505, 0.6609, 1266.5794, -616.1152)" xlink:href="#Áåçûìÿííûé_ãðàäèåíò_367"/><linearGradient id="Áåçûìÿííûé_ãðàäèåíò_24-3" x1="440.0617" y1="272.401" x2="440.0617" y2="119.328" xlink:href="#Áåçûìÿííûé_ãðàäèåíò_24"/><linearGradient id="Áåçûìÿííûé_ãðàäèåíò_119-8" x1="1220.899" y1="84.5562" x2="1220.899" y2="54.9083" gradientTransform="matrix(-0.9861, 0.1662, 0.1662, 0.9861, 1616.7449, -135.9445)" xlink:href="#Áåçûìÿííûé_ãðàäèåíò_119"/><linearGradient id="Áåçûìÿííûé_ãðàäèåíò_66-11" x1="1207.586" y1="37.6965" x2="1260.6907" y2="37.6965" gradientTransform="matrix(-0.9861, 0.1662, 0.1662, 0.9861, 1616.7449, -135.9445)" xlink:href="#Áåçûìÿííûé_ãðàäèåíò_66"/><linearGradient id="Áåçûìÿííûé_ãðàäèåíò_119-9" x1="1175.8217" y1="50.0672" x2="1175.8217" y2="34.4115" gradientTransform="matrix(-0.9861, 0.1662, 0.1662, 0.9861, 1616.7449, -135.9445)" xlink:href="#Áåçûìÿííûé_ãðàäèåíò_119"/><linearGradient id="Áåçûìÿííûé_ãðàäèåíò_66-12" x1="1188.9129" y1="34.4106" x2="1212.3111" y2="34.4106" gradientTransform="matrix(-0.9861, 0.1662, 0.1662, 0.9861, 1616.7449, -135.9445)" xlink:href="#Áåçûìÿííûé_ãðàäèåíò_66"/><linearGradient id="Áåçûìÿííûé_ãðàäèåíò_66-13" x1="1143.2049" y1="37.6977" x2="1207.5861" y2="37.6977" gradientTransform="matrix(-0.9861, 0.1662, 0.1662, 0.9861, 1616.7449, -135.9445)" xlink:href="#Áåçûìÿííûé_ãðàäèåíò_66"/><linearGradient id="Áåçûìÿííûé_ãðàäèåíò_66-14" x1="1233.2675" y1="76.667" x2="1233.2675" y2="40.8629" gradientTransform="matrix(-0.9861, 0.1662, 0.1662, 0.9861, 1616.7449, -135.9445)" xlink:href="#Áåçûìÿííûé_ãðàäèåíò_66"/><linearGradient id="Áåçûìÿííûé_ãðàäèåíò_107-5" x1="1236.0538" y1="76.667" x2="1236.0538" y2="40.3689" gradientTransform="matrix(-0.9861, 0.1662, 0.1662, 0.9861, 1616.7449, -135.9445)" xlink:href="#Áåçûìÿííûé_ãðàäèåíò_107"/><linearGradient id="Áåçûìÿííûé_ãðàäèåíò_132-3" x1="1219.0958" y1="60.438" x2="1259.0421" y2="60.438" gradientTransform="matrix(-0.9861, 0.1662, 0.1662, 0.9861, 1616.7449, -135.9445)" xlink:href="#Áåçûìÿííûé_ãðàäèåíò_132"/><linearGradient id="Áåçûìÿííûé_ãðàäèåíò_131-8" x1="1147.261" y1="35.8303" x2="1193.8893" y2="35.8303" gradientTransform="matrix(-0.9861, 0.1662, 0.1662, 0.9861, 1616.7449, -135.9445)" xlink:href="#Áåçûìÿííûé_ãðàäèåíò_131"/><linearGradient id="Áåçûìÿííûé_ãðàäèåíò_131-9" x1="1203.2399" y1="32.9162" x2="1211.8123" y2="32.9162" gradientTransform="matrix(-0.9861, 0.1662, 0.1662, 0.9861, 1616.7449, -135.9445)" xlink:href="#Áåçûìÿííûé_ãðàäèåíò_131"/><linearGradient id="Áåçûìÿííûé_ãðàäèåíò_131-10" x1="1213.0655" y1="37.0655" x2="1260.6907" y2="37.0655" gradientTransform="matrix(-0.9861, 0.1662, 0.1662, 0.9861, 1616.7449, -135.9445)" xlink:href="#Áåçûìÿííûé_ãðàäèåíò_131"/><linearGradient id="Áåçûìÿííûé_ãðàäèåíò_367-24" x1="1239.0886" y1="68.3854" x2="1239.0886" y2="54.248" gradientTransform="matrix(-0.9861, 0.1662, 0.1662, 0.9861, 1616.7449, -135.9445)" xlink:href="#Áåçûìÿííûé_ãðàäèåíò_367"/><linearGradient id="Áåçûìÿííûé_ãðàäèåíò_367-25" x1="1218.8807" y1="53.2318" x2="1218.8807" y2="40.3689" gradientTransform="matrix(-0.9861, 0.1662, 0.1662, 0.9861, 1616.7449, -135.9445)" xlink:href="#Áåçûìÿííûé_ãðàäèåíò_367"/><linearGradient id="Áåçûìÿííûé_ãðàäèåíò_367-26" x1="1242.6361" y1="52.0249" x2="1242.6361" y2="49.1942" gradientTransform="matrix(-0.9861, 0.1662, 0.1662, 0.9861, 1616.7449, -135.9445)" xlink:href="#Áåçûìÿííûé_ãðàäèåíò_367"/><linearGradient id="Áåçûìÿííûé_ãðàäèåíò_367-27" x1="1175.5352" y1="46.9131" x2="1175.5352" y2="28.9821" gradientTransform="matrix(-0.9861, 0.1662, 0.1662, 0.9861, 1616.7449, -135.9445)" xlink:href="#Áåçûìÿííûé_ãðàäèåíò_367"/><linearGradient id="Áåçûìÿííûé_ãðàäèåíò_367-28" x1="1247.9097" y1="42.5414" x2="1247.9097" y2="33.0318" gradientTransform="matrix(-0.9861, 0.1662, 0.1662, 0.9861, 1616.7449, -135.9445)" xlink:href="#Áåçûìÿííûé_ãðàäèåíò_367"/><linearGradient id="Áåçûìÿííûé_ãðàäèåíò_137-5" x1="1248.1657" y1="64.8963" x2="1248.1657" y2="54.3213" gradientTransform="matrix(-0.9861, 0.1662, 0.1662, 0.9861, 1616.7449, -135.9445)" xlink:href="#Áåçûìÿííûé_ãðàäèåíò_137"/><linearGradient id="Áåçûìÿííûé_ãðàäèåíò_155-2" x1="1167.5331" y1="46.8535" x2="1167.5331" y2="30.2108" gradientTransform="matrix(-0.9861, 0.1662, 0.1662, 0.9861, 1616.7449, -135.9445)" xlink:href="#Áåçûìÿííûé_ãðàäèåíò_155"/><linearGradient id="Áåçûìÿííûé_ãðàäèåíò_66-15" x1="425.9219" y1="155.3139" x2="417.4612" y2="112.0426" xlink:href="#Áåçûìÿííûé_ãðàäèåíò_66"/><linearGradient id="Áåçûìÿííûé_ãðàäèåíò_107-6" x1="421.5546" y1="156.1678" x2="413.0939" y2="112.8965" xlink:href="#Áåçûìÿííûé_ãðàäèåíò_107"/><linearGradient id="Áåçûìÿííûé_ãðàäèåíò_132-4" x1="430.0799" y1="134.4321" x2="405.4703" y2="139.2439" xlink:href="#Áåçûìÿííûé_ãðàäèåíò_132"/><linearGradient id="Áåçûìÿííûé_ãðàäèåíò_367-29" x1="423.4268" y1="142.3845" x2="420.3921" y2="126.8639" xlink:href="#Áåçûìÿííûé_ãðàäèåíò_367"/><linearGradient id="Áåçûìÿííûé_ãðàäèåíò_137-6" x1="414.4997" y1="130.1482" x2="413.0325" y2="122.6441" xlink:href="#Áåçûìÿííûé_ãðàäèåíò_137"/><linearGradient id="Áåçûìÿííûé_ãðàäèåíò_367-30" x1="438.8065" y1="121.1506" x2="436.7374" y2="110.5684" xlink:href="#Áåçûìÿííûé_ãðàäèåíò_367"/><linearGradient id="Áåçûìÿííûé_ãðàäèåíò_367-31" x1="407.1187" y1="145.2077" x2="407.1187" y2="119.9812" xlink:href="#Áåçûìÿííûé_ãðàäèåíò_367"/><linearGradient id="Áåçûìÿííûé_ãðàäèåíò_149-3" x1="441.0035" y1="250.563" x2="441.0035" y2="144.6639" xlink:href="#Áåçûìÿííûé_ãðàäèåíò_149"/><linearGradient id="Áåçûìÿííûé_ãðàäèåíò_24-4" x1="730.9983" y1="293.971" x2="730.9983" y2="233.3534" xlink:href="#Áåçûìÿííûé_ãðàäèåíò_24"/><linearGradient id="Áåçûìÿííûé_ãðàäèåíò_40" x1="720.9582" y1="284.1359" x2="720.9582" y2="233.0621" gradientTransform="translate(6.0036 -22.6273) rotate(1.4955)" gradientUnits="userSpaceOnUse"><stop offset="0" stop-color="#b87251"/><stop offset="0.337" stop-color="#d38755"/><stop offset="0.756" stop-color="#ef9c59"/><stop offset="1" stop-color="#f9a45a"/></linearGradient><linearGradient id="Áåçûìÿííûé_ãðàäèåíò_40-2" x1="747.2515" y1="269.7613" x2="747.2515" y2="257.8313" xlink:href="#Áåçûìÿííûé_ãðàäèåíò_40"/><linearGradient id="Áåçûìÿííûé_ãðàäèåíò_46-4" x1="746.8437" y1="290.199" x2="746.8437" y2="284.6091" gradientTransform="translate(6.0036 -22.6273) rotate(1.4955)" xlink:href="#Áåçûìÿííûé_ãðàäèåíò_46"/><linearGradient id="Áåçûìÿííûé_ãðàäèåíò_367-32" x1="743.7928" y1="263.6619" x2="743.7928" y2="233.4471" xlink:href="#Áåçûìÿííûé_ãðàäèåíò_367"/><linearGradient id="Áåçûìÿííûé_ãðàäèåíò_367-33" x1="733.5971" y1="293.971" x2="733.5971" y2="258.5223" xlink:href="#Áåçûìÿííûé_ãðàäèåíò_367"/><linearGradient id="Áåçûìÿííûé_ãðàäèåíò_367-34" x1="754.3655" y1="272.7591" x2="748.9923" y2="272.7591" xlink:href="#Áåçûìÿííûé_ãðàäèåíò_367"/><linearGradient id="Áåçûìÿííûé_ãðàäèåíò_54" x1="726.8223" y1="264.8313" x2="726.8223" y2="233.3997" gradientTransform="translate(6.0036 -22.6273) rotate(1.4955)" gradientUnits="userSpaceOnUse"><stop offset="0" stop-color="#9f917e"/><stop offset="0.1046" stop-color="#ac9375"/><stop offset="0.5073" stop-color="#d99957"/><stop offset="0.8191" stop-color="#f59d45"/><stop offset="1" stop-color="#ff9f3e"/></linearGradient><linearGradient id="Áåçûìÿííûé_ãðàäèåíò_18-3" x1="733.6025" y1="239.9436" x2="733.6025" y2="232.8011" gradientTransform="translate(6.0036 -22.6273) rotate(1.4955)" xlink:href="#Áåçûìÿííûé_ãðàäèåíò_18"/><linearGradient id="Áåçûìÿííûé_ãðàäèåíò_24-5" x1="590.6948" y1="289.1914" x2="590.6948" y2="128.5115" gradientTransform="translate(4.654 -18.2468) rotate(1.1975)" xlink:href="#Áåçûìÿííûé_ãðàäèåíò_24"/><linearGradient id="Áåçûìÿííûé_ãðàäèåíò_40-3" x1="522.355" y1="262.2942" x2="522.355" y2="174.0703" gradientTransform="translate(4.654 -18.2468) rotate(1.1975)" xlink:href="#Áåçûìÿííûé_ãðàäèåíò_40"/><linearGradient id="Áåçûìÿííûé_ãðàäèåíò_40-4" x1="593.265" y1="242.1329" x2="593.265" y2="128.5115" gradientTransform="translate(4.654 -18.2468) rotate(1.1975)" xlink:href="#Áåçûìÿííûé_ãðàäèåíò_40"/><linearGradient id="Áåçûìÿííûé_ãðàäèåíò_40-5" x1="670.3425" y1="283.5072" x2="670.3425" y2="162.2275" gradientTransform="translate(4.654 -18.2468) rotate(1.1975)" xlink:href="#Áåçûìÿííûé_ãðàäèåíò_40"/><linearGradient id="Áåçûìÿííûé_ãðàäèåíò_46-5" x1="503.479" y1="266.4515" x2="503.479" y2="254.2545" gradientTransform="translate(4.654 -18.2468) rotate(1.1975)" xlink:href="#Áåçûìÿííûé_ãðàäèåíò_46"/><linearGradient id="Áåçûìÿííûé_ãðàäèåíò_40-6" x1="685.0681" y1="235.7179" x2="685.0681" y2="225.1597" gradientTransform="translate(4.654 -18.2468) rotate(1.1975)" xlink:href="#Áåçûìÿííûé_ãðàäèåíò_40"/><linearGradient id="Áåçûìÿííûé_ãðàäèåíò_367-35" x1="576.677" y1="289.1895" x2="576.677" y2="174.0707" gradientTransform="translate(4.654 -18.2468) rotate(1.1975)" xlink:href="#Áåçûìÿííûé_ãðàäèåíò_367"/><linearGradient id="Áåçûìÿííûé_ãðàäèåíò_367-36" x1="630.6593" y1="189.8419" x2="630.6593" y2="131.6526" gradientTransform="translate(4.654 -18.2468) rotate(1.1975)" xlink:href="#Áåçûìÿííûé_ãðàäèåíò_367"/><linearGradient id="Áåçûìÿííûé_ãðàäèåíò_40-7" x1="631.5358" y1="277.3453" x2="631.5358" y2="189.8419" gradientTransform="translate(4.654 -18.2468) rotate(1.1975)" xlink:href="#Áåçûìÿííûé_ãðàäèåíò_40"/><linearGradient id="Áåçûìÿííûé_ãðàäèåíò_367-37" x1="679.7669" y1="289.1914" x2="679.7669" y2="229.9883" gradientTransform="translate(4.654 -18.2468) rotate(1.1975)" xlink:href="#Áåçûìÿííûé_ãðàäèåíò_367"/><linearGradient id="Áåçûìÿííûé_ãðàäèåíò_367-38" x1="683.1995" y1="230.9852" x2="683.1995" y2="162.2275" gradientTransform="translate(4.654 -18.2468) rotate(1.1975)" xlink:href="#Áåçûìÿííûé_ãðàäèåíò_367"/><linearGradient id="Áåçûìÿííûé_ãðàäèåíò_46-6" x1="606.621" y1="147.0575" x2="606.621" y2="128.5115" gradientTransform="translate(4.654 -18.2468) rotate(1.1975)" xlink:href="#Áåçûìÿííûé_ãðàäèåíò_46"/><linearGradient id="Áåçûìÿííûé_ãðàäèåíò_46-7" x1="673.295" y1="194.8528" x2="673.295" y2="162.2275" gradientTransform="translate(4.654 -18.2468) rotate(1.1975)" xlink:href="#Áåçûìÿííûé_ãðàäèåíò_46"/><linearGradient id="Áåçûìÿííûé_ãðàäèåíò_46-8" x1="632.4839" y1="196.2786" x2="632.4839" y2="187.3528" gradientTransform="translate(4.654 -18.2468) rotate(1.1975)" xlink:href="#Áåçûìÿííûé_ãðàäèåíò_46"/><linearGradient id="Áåçûìÿííûé_ãðàäèåíò_46-9" x1="527.4909" y1="218.0367" x2="527.4909" y2="208.3705" gradientTransform="translate(4.654 -18.2468) rotate(1.1975)" xlink:href="#Áåçûìÿííûé_ãðàäèåíò_46"/><linearGradient id="Áåçûìÿííûé_ãðàäèåíò_46-10" x1="540.2342" y1="184.7587" x2="540.2342" y2="174.0703" gradientTransform="translate(4.654 -18.2468) rotate(1.1975)" xlink:href="#Áåçûìÿííûé_ãðàäèåíò_46"/><linearGradient id="Áåçûìÿííûé_ãðàäèåíò_191-3" x1="576.5505" y1="248.2764" x2="546.5768" y2="248.2764" gradientTransform="translate(4.654 -18.2468) rotate(1.1975)" xlink:href="#Áåçûìÿííûé_ãðàäèåíò_191"/><linearGradient id="Áåçûìÿííûé_ãðàäèåíò_191-4" x1="607.3464" y1="225.307" x2="580.792" y2="225.307" gradientTransform="translate(4.654 -18.2468) rotate(1.1975)" xlink:href="#Áåçûìÿííûé_ãðàäèåíò_191"/><linearGradient id="Áåçûìÿííûé_ãðàäèåíò_191-5" x1="646.9924" y1="272.7919" x2="626.0138" y2="272.7919" gradientTransform="translate(4.654 -18.2468) rotate(1.1975)" xlink:href="#Áåçûìÿííûé_ãðàäèåíò_191"/><linearGradient id="Áåçûìÿííûé_ãðàäèåíò_191-6" x1="654.072" y1="218.0623" x2="639.1442" y2="218.0623" gradientTransform="translate(4.654 -18.2468) rotate(1.1975)" xlink:href="#Áåçûìÿííûé_ãðàäèåíò_191"/><linearGradient id="Áåçûìÿííûé_ãðàäèåíò_191-7" x1="540.4946" y1="237.0093" x2="535.038" y2="237.0093" gradientTransform="translate(4.654 -18.2468) rotate(1.1975)" xlink:href="#Áåçûìÿííûé_ãðàäèåíò_191"/><linearGradient id="Áåçûìÿííûé_ãðàäèåíò_54-2" x1="588.7214" y1="242.1329" x2="588.7214" y2="155.5275" gradientTransform="translate(4.654 -18.2468) rotate(1.1975)" xlink:href="#Áåçûìÿííûé_ãðàäèåíò_54"/><linearGradient id="Áåçûìÿííûé_ãðàäèåíò_54-3" x1="626.2925" y1="264.26" x2="626.2925" y2="190.7654" gradientTransform="translate(4.654 -18.2468) rotate(1.1975)" xlink:href="#Áåçûìÿííûé_ãðàäèåíò_54"/><linearGradient id="Áåçûìÿííûé_ãðàäèåíò_93" x1="683.3802" y1="218.1899" x2="683.3802" y2="162.2275" gradientTransform="translate(4.654 -18.2468) rotate(1.1975)" gradientUnits="userSpaceOnUse"><stop offset="0" stop-color="#735279"/><stop offset="0.2688" stop-color="#725881"/><stop offset="0.9944" stop-color="#706492"/></linearGradient><linearGradient id="Áåçûìÿííûé_ãðàäèåíò_312" x1="685.0681" y1="277.9235" x2="685.0681" y2="229.9883" gradientTransform="translate(4.654 -18.2468) rotate(1.1975)" gradientUnits="userSpaceOnUse"><stop offset="0" stop-color="#848179"/><stop offset="0.3553" stop-color="#7c7583"/><stop offset="0.9944" stop-color="#706492"/></linearGradient><linearGradient id="Áåçûìÿííûé_ãðàäèåíò_93-2" x1="627.3978" y1="166.5511" x2="627.3978" y2="131.6526" xlink:href="#Áåçûìÿííûé_ãðàäèåíò_93"/><linearGradient id="Áåçûìÿííûé_ãðàäèåíò_191-8" x1="525.1503" y1="280.1963" x2="525.1503" y2="218.0367" gradientTransform="translate(4.654 -18.2468) rotate(1.1975)" xlink:href="#Áåçûìÿííûé_ãðàäèåíò_191"/><linearGradient id="Áåçûìÿííûé_ãðàäèåíò_54-4" x1="509.3661" y1="258.7212" x2="509.3661" y2="208.3705" gradientTransform="translate(4.654 -18.2468) rotate(1.1975)" xlink:href="#Áåçûìÿííûé_ãðàäèåíò_54"/><linearGradient id="Áåçûìÿííûé_ãðàäèåíò_54-5" x1="665.9085" y1="262.3016" x2="665.9085" y2="188.6959" gradientTransform="translate(4.654 -18.2468) rotate(1.1975)" xlink:href="#Áåçûìÿííûé_ãðàäèåíò_54"/><linearGradient id="Áåçûìÿííûé_ãðàäèåíò_24-6" x1="442.4696" y1="286.6355" x2="442.4696" y2="251.6066" xlink:href="#Áåçûìÿííûé_ãðàäèåíò_24"/><linearGradient id="Áåçûìÿííûé_ãðàäèåíò_40-8" x1="443.2724" y1="276.9311" x2="443.2724" y2="251.5642" xlink:href="#Áåçûìÿííûé_ãðàäèåíò_40"/><linearGradient id="Áåçûìÿííûé_ãðàäèåíò_46-11" x1="432.9929" y1="280.6791" x2="432.9929" y2="275.9896" gradientTransform="translate(6.0036 -22.6273) rotate(1.4955)" xlink:href="#Áåçûìÿííûé_ãðàäèåíò_46"/><linearGradient id="Áåçûìÿííûé_ãðàäèåíò_367-39" x1="448.0352" y1="287.0216" x2="448.0352" y2="261.0823" xlink:href="#Áåçûìÿííûé_ãðàäèåíò_367"/><linearGradient id="Áåçûìÿííûé_ãðàäèåíò_81" x1="445.5359" y1="264.9809" x2="445.5359" y2="251.3009" gradientTransform="translate(6.0036 -22.6273) rotate(1.4955)" gradientUnits="userSpaceOnUse"><stop offset="0" stop-color="#d99f5b"/><stop offset="0.2484" stop-color="#da9a5d"/><stop offset="1" stop-color="#dd9063"/></linearGradient><linearGradient id="Áåçûìÿííûé_ãðàäèåíò_24-7" x1="391.1168" y1="287.5349" x2="391.1168" y2="264.101" xlink:href="#Áåçûìÿííûé_ãðàäèåíò_24"/><linearGradient id="Áåçûìÿííûé_ãðàäèåíò_40-9" x1="391.8334" y1="276.301" x2="391.8334" y2="264.101" xlink:href="#Áåçûìÿííûé_ãðàäèåíò_40"/><linearGradient id="Áåçûìÿííûé_ãðàäèåíò_46-12" x1="400.1802" y1="277.4558" x2="400.1802" y2="275.8649" gradientTransform="translate(6.0036 -22.6273) rotate(1.4955)" xlink:href="#Áåçûìÿííûé_ãðàäèåíò_46"/><linearGradient id="Áåçûìÿííûé_ãðàäèåíò_367-40" x1="391.1168" y1="287.5349" x2="391.1168" y2="274.7808" xlink:href="#Áåçûìÿííûé_ãðàäèåíò_367"/><linearGradient id="Áåçûìÿííûé_ãðàäèåíò_24-8" x1="522.1029" y1="285.2065" x2="522.1029" y2="265.6573" xlink:href="#Áåçûìÿííûé_ãðàäèåíò_24"/><linearGradient id="Áåçûìÿííûé_ãðàäèåíò_40-10" x1="522.3271" y1="275.4312" x2="522.3271" y2="265.6501" xlink:href="#Áåçûìÿííûé_ãðàäèåíò_40"/><linearGradient id="Áåçûìÿííûé_ãðàäèåíò_367-41" x1="522.1029" y1="285.2065" x2="522.1029" y2="269.0672" xlink:href="#Áåçûìÿííûé_ãðàäèåíò_367"/><linearGradient id="Áåçûìÿííûé_ãðàäèåíò_229-2" x1="361.6852" y1="334.9572" x2="361.6852" y2="295.4855" xlink:href="#Áåçûìÿííûé_ãðàäèåíò_229"/><radialGradient id="radial-gradient" cx="180.8827" cy="305.1526" r="58.2336" gradientUnits="userSpaceOnUse"><stop offset="0" stop-color="#ccd89c"/><stop offset="0.1716" stop-color="#c8d89e"/><stop offset="0.3572" stop-color="#bbd9a5"/><stop offset="0.5494" stop-color="#a5dbb0"/><stop offset="0.746" stop-color="#87debf"/><stop offset="0.9442" stop-color="#60e1d3"/><stop offset="1" stop-color="#54e2d9"/></radialGradient><linearGradient id="linear-gradient" x1="258.9112" y1="307.1632" x2="258.9112" y2="287.06" gradientUnits="userSpaceOnUse"><stop offset="0" stop-color="#fab33c"/><stop offset="0.2666" stop-color="#fcc24f"/><stop offset="0.7302" stop-color="#fed86b"/><stop offset="1" stop-color="#ffe075"/></linearGradient></defs><g class="cls-2"><g id="island_and_ship_01"><g class="cls-3"><path class="cls-4" d="M158.27,293.375l-58.2451,10.632s171.86,41.0547,320.76,44.9517c170.241,4.4556,398.0512-9.9146,455.6491-35.4123,0,0-8.9978-9.0466-70.92-15.8161C748.5251,292.2263,158.27,293.375,158.27,293.375Z"/><path class="cls-5" d="M820.95,311.0348c0,7.5764-165.3205,20.7945-352.2634,18.455C289.8056,327.2582,333.608,308.65,333.419,305.618c-.2519-4.0131-90.3941-1.9705-195.6439-8.683-.072-.009-.144-.009-.216-.018a1.9844,1.9844,0,0,0,.198-.045c2.2855-.45,24.5826-4.751,66.0364-9.6369h.0091c48.5082-5.7228,123.2548-12.2373,222.89-14.3158,169.1267-3.5183,332.9986,17.924,399.6379,27.8128,8.0713,1.1968,14.7118,2.2225,19.76,3.0143-1.5477-.1619-32.3839-3.4282-36.352-.7108C806.9487,304.9522,820.95,305.753,820.95,311.0348Z"/><path class="cls-6" d="M820.95,311.0348c0,7.5764-165.3205,20.7945-352.2634,18.455C289.8056,327.2582,333.608,308.65,333.419,305.618c-.2519-4.0131-90.3941-1.9705-195.6439-8.683l-.018-.063-2.2945-5.1379L178.2842,280.64l25.5093,6.5956c-.7288.135-31.8349,5.9027-35.5511,8.1162-3.7522,2.25,169.8537,6.6942,170.3492,8.1588.9995,2.9545-7.7732,8.0652-5.2266,10.6291,6.2261,6.2683,107.5624,19.979,270.3365,10.7976,72.2829-4.0772,209.6448-14.0009,211.1745-15.2157,1.5387-1.2147-11.9944-6.3256-12.39-7.5223-.3239-.9808,17.3572-1.3587,23.8447-1.4667,8.0713,1.1968,14.7118,2.2225,19.76,3.0143-1.5477-.1619-32.3839-3.4282-36.352-.7108C806.9487,304.9522,820.95,305.753,820.95,311.0348Z"/><path class="cls-7" d="M158.27,293.375s-11.7818,1.7732-12.3483,2.4857,71.406,5.9248,127.2878,6.3874,61.3218,1.9187,60.2122,3.3723-5.4265,4.9135-4.1231,8.5887,37.2368,20.1466,255.5393,14.8431c0,0-67.6672,5.3571-122.0516,5.8179s-59.1052-4.1992-80.4436-7.0975-61.1824-6.7165-65.7144-9.7516,14.7291-7.9729,14.54-11.5564-81.0384,2.0491-114.2592,0-13.3173-4.0937-14.1078-5.33-30.8841-.08-49.1376-1.8332-15.1239-2.3245-15.1239-2.3245Z"/><path class="cls-8" d="M647.863,83.7861s4.3212,12.3758,10.797,21.0883l5.2849-3.9935-3.5658,5.2989a65.0454,65.0454,0,0,0,15.581,14.1936l.4187-16.0076-4.3012-1.7325,4.322.9382s1.1082-16.65.5293-20.2351S647.863,83.7861,647.863,83.7861Z"/><path class="cls-9" d="M640.2161,89.1352s2.9475,19.7356,3.8418,22.1153a62.9223,62.9223,0,0,0,4.4376,7.7592s4.9211-8.6413,5.9386-13.2129,3.7216-16.1923,3.7216-16.1923Z"/><path class="cls-10" d="M655.1,82.08s10.91-9.4876,16.1441-11.0849,24.5905.87,27.1213,2.3831,9.8216,10.09,9.8216,10.09l-8.9194-.9084-.8625-5.2415-.5608,5.0614s-10.1115.0211-14.5566.1905-11.8318,1.1185-11.8318,1.1185l-3.5715-2.3782,1.0962,2.3134S658.2865,83.6951,655.1,82.08Z"/><path class="cls-11" d="M595.8942,84.0826s21.5517,2.0363,29.4565,3.8244,23.3652-1.7165,23.3652-1.7165l-16.185-13.4743-14.09-.3686Z"/><path class="cls-12" d="M637.5169,237.2855s14.2169-61.2894,15.4791-85.1746c.5455-10.3209,2.0185-66.7774,2.0185-66.7774l1.9491-.384s-.616,61.2164-.4967,68.8916-10.5721,83.6635-10.5721,83.6635Z"/><path class="cls-13" d="M659.84,81.5653s-1.6992-13.5478-3.35-15.9353-19.7781,5.3256-19.7781,5.3256l13.3658,6.8232Z"/><path class="cls-14" d="M657.7881,103.6578l4.4808-9.5256s1.5295,1.4333,5.9168,8.3993,7.7744,17.8419,7.7744,17.8419l.4187-16.0076-4.3012-1.7325,4.322.9382.0857-3.2771L675.0271,92.11l-14.5582-5.7386-3.896,6.7527.2276,9.065Z"/><path class="cls-15" d="M655.1674,79.4884S638.163,68.7333,631.8251,66.5561s-28.0266,7.4267-41.1788,17.4194c0,0,14.89.6549,24.6018.6134l4.38-5.755-1.5089,5.83s10.86.4154,18.2056,1.0756,18.7339-2.089,18.7339-2.089Z"/><path class="cls-16" d="M655.0585,83.6506s19.2763-4.5479,25.0829-2.9851,18.2658,11.1612,18.2658,11.1612l-5.0991-.1334,6.0854,2.6909s4.6515,8.8156,6.2683,22.5177l-15.7158-6.3952-2.4429-2.5819-3.137.135s-17.0285-16.7785-18.29-17.6782S654.8907,86.5,654.8907,86.5Z"/><path class="cls-17" d="M665.8357,83.189s10.2658,2.9817,14.1067,5.0814,25.7194,28.6315,25.7194,28.6315a85.3493,85.3493,0,0,0-6.2683-22.5177l-5.5221-2.4418,4.5358-.1157s-11.7855-9.32-18.2658-11.1612-19.51-.51-19.51-.51Z"/><path class="cls-18" d="M658.4109,79.8484S653.0777,71.7141,646.52,69.759c0,0-5.3769-.51-11.4507,8.9056l6.5172,3.0244-7.5138-.1965s-6.4932,14.2608-7.1105,20.3855,1.5732,19.3553,1.5732,19.3553,12.6007-11.2683,19.4068-18.5895l-2.6459-8.9556,5.3184,5.93L671.57,78.341A78.63,78.63,0,0,0,658.4109,79.8484Z"/><path class="cls-19" d="M658.4109,79.8484s-9.5229,2.5984-12.8779,4.8021-12.7162,15.4327-13.9448,19.088-3.0525,17.4948-3.0525,17.4948-2.0128-12.37-1.5732-19.3553,7.1105-20.3855,7.1105-20.3855l7.5138.1965L635.07,78.6646A15.5948,15.5948,0,0,1,646.52,69.759S655.39,71.9105,658.4109,79.8484Z"/><path class="cls-20" d="M666.5786,83.4091s10.18,2.7074,14.05,4.8078,17.58,18.4362,17.58,18.4362l7.4532,10.2488-15.599-18.3168s-7.9056-8.8288-9.7364-9.8049S666.5786,83.4091,666.5786,83.4091Z"/><path class="cls-21" d="M629.09,117.2593s2.1778-10.77,3.0067-13.5075S645.09,86.3067,646.9093,84.6865s11.5016-4.8381,11.5016-4.8381-9.84,2.8043-13.1763,4.7943-12.8087,16.7361-13.6383,18.785S629.09,117.2593,629.09,117.2593Z"/><path class="cls-22" d="M594.7809,81.0305s23.469-12.936,31.0108-13.7392,15.8843,4.175,15.8843,4.175-8.0905-4.6029-10.9667-5.1957S615.2222,67.6042,594.7809,81.0305Z"/><path class="cls-23" d="M651.1781,65.8054s3.6445-.3548,4.8173.5139,3.4251,12.2035,3.4251,12.2035-1.4113-11.3543-2.9311-12.8928C655.4637,64.5918,651.1781,65.8054,651.1781,65.8054Z"/><path class="cls-24" d="M660.7,77.5258s9.8382-5.4909,13.008-6.2688,22.18,1.2138,24.27,2.3484,10.2084,9.863,10.2084,9.863-7.6221-8.6519-9.8216-10.09-21.3687-4.0963-27.1213-2.3831S660.7,77.5258,660.7,77.5258Z"/><polygon class="cls-25" points="650.615 99.618 642.411 89.782 645.493 86.184 655.075 95.09 650.615 99.618"/><polygon class="cls-26" points="685.847 93.956 684.366 108.06 687.503 107.925 687.422 95.635 685.847 93.956"/><path class="cls-27" d="M668.3743,92.4819l-.0011-8.4066,2.8376-4.3865-.944-.0246-8.7889,8.9238s3.7555,1.2505,4.1768,1.522S668.3743,92.4819,668.3743,92.4819Z"/><polygon class="cls-28" points="693.871 91.942 683.897 90.897 681.486 88.787 694.526 89.128 698.407 91.827 693.871 91.942"/><path class="cls-29" d="M635.07,78.6646l11.1552,5.452L652.4729,81.7l-15.1457-6.6175A22.1893,22.1893,0,0,0,635.07,78.6646Z"/><path class="cls-30" d="M618.119,84.664l3.7958-16.4279a12.6,12.6,0,0,1,6.3629-1.0135L626.5643,85.066Z"/><path class="cls-31" d="M697.8439,82.38l1.0235-8.145a9.4148,9.4148,0,0,0-3.1613-1.2442l-3.5018,9.4212Z"/><path class="cls-32" d="M626.9836,101.07l5.3689.9254,9.5148-13.6563-10.5939-.6941S627.147,97.7422,626.9836,101.07Z"/><path class="cls-33" d="M699.3935,94.3842l-12.2682-.224,8.5214,9.4907,7.6966,1.4155S701.4226,97.6667,699.3935,94.3842Z"/><path class="cls-34" d="M612.2441,72.1856l-3.7954,12.3463,6.7994.057,4.38-5.755,2.2869-10.5978S615.4114,69.5211,612.2441,72.1856Z"/><path class="cls-35" d="M654.4027,108.7231a17.7981,17.7981,0,0,0,1.1468,2.2331c.5952.9282-.4618,37.3371-1.12,42.8316s-1.5322,12.5033-1.5322,12.5033l-1.562.95s.915-8.2006,1.6611-15.1306S654.4027,108.7231,654.4027,108.7231Z"/><polygon class="cls-36" points="653.329 147.118 654.957 144.849 655.746 124.958 654.022 126.148 653.329 147.118"/><path class="cls-37" d="M591.39,268.9406s23.8716-41.0255,39.7746-58.4355l.2326,4.92s21.8054-20.831,39.8149-23.55l-7.9252,4.5311s23.595-2.1854,40.7676,11.4569l.1653-9.2451s19.9916,23.8833,27.9406,52.7582l2.1-5.3055s4.2,5.5886,9.44,28.1259l6.1141,1.4761-3.5769,6.199s15.5739-7.0535,35.3993.038S802.2593,299,802.2593,299s-107.3872-20.154-211.069-22.4127Z"/><path class="cls-38" d="M771.4444,136.9233s-5.1778,11.2654-4.5268,21.0391l5.7069.3844-5.3811,1.9876s1.642,9.2552,10.4287,25.4028l5.5572-10.3108-5.1033-7.0429,5.7014,5.5707s5.2795-13.0525,5.5529-22.9037-.9185-13.4361-.9185-13.4361S775.8145,130.6823,771.4444,136.9233Z"/><path class="cls-39" d="M779.0561,132.8248s18.6808-5.2368,24.0122-4.9807,24.36,20.4232,24.36,20.4232-14.1129-1.7578-17.3345-3.066-12.6227-5.1386-12.6227-5.1386l-15.4385-.4038Z"/><path class="cls-40" d="M681.1182,290.2543S708.62,202.0707,717.0429,184.777s56.1277-48.408,56.1277-48.408l2.8995,3.104s-38.5857,23.34-53.2556,45.1807-33.0118,105.8277-33.0118,105.8277Z"/><path class="cls-41" d="M778.2009,137.732s28.8092-7.65,36.07-8.1184,32.463,6.1593,32.463,6.1593l-7.0873,1.7782-6.5691-3.1416,4.1529,4.2346s-19.6579,3.6014-21.9207,4.4062l-2.3886-.9039-2.7678.7691a34.5778,34.5778,0,0,1-12.8082,1.9523C790.69,144.4642,778.2009,137.732,778.2009,137.732Z"/><polygon class="cls-42" points="803.979 144.483 801.864 132.291 798.019 133.085 799.946 145.227 803.979 144.483"/><path class="cls-43" d="M767.2434,160.3344s3.4238,13.8538,10.4287,25.4028l-.655-34.6573,1.2191-14.6988-8.94,6.2454-1.9684,7.2485a52.1954,52.1954,0,0,0-.41,8.0874l5.9845.4764Z"/><path class="cls-44" d="M788.765,143.1357s8.6574,21.1075,22.6482,33.9234l-1.34-20.5007-5.5361-10.0365Z"/><path class="cls-45" d="M776.1345,137.046s22.1387,4.3762,30.02,9.5282,4.6275,38.2514,4.6275,38.2514l-9.17-34.1066-26.1491-12.1961-.6324-1.265Z"/><path class="cls-46" d="M726.9993,123.2132a118.6705,118.6705,0,0,0,19.0148,5.0743,137.67,137.67,0,0,0,20.8265,2.08l.4246-8.1753-5.1761-5.7753S736.5428,118.886,726.9993,123.2132Z"/><path class="cls-47" d="M767.49,131.7815s-13.709,1.0041-21.6422,2.8559-25.8872,18.4369-25.8872,18.4369a59.425,59.425,0,0,0,12.961-1.6949l1.9742-7.13-.1691,6.4669s12.9021-.312,20.32-4.93a21.55,21.55,0,0,0,9.2607-11.4709Z"/><path class="cls-48" d="M774.83,137.2579s24.44,5.184,28.05,10.6179,7.9019,36.95,7.9019,36.95l-10.1375-8.436,4.493-10.4948-5.515,8.7186-6.2634-9.7586,5.1208-11.7606L791.82,163.33l-1.4167-1.4041,6.9544-11.5836-8.258,9.2635S778.0405,144.2892,774.83,137.2579Z"/><path class="cls-49" d="M779.0317,133.76s-9.019-16.5237-12.3713-18.6947-21.9084.7527-39.6611,8.1481c0,0,12.6853,2.2284,16.4645,2.5627l3.0219-6.9229-1.342,6.9668,14.0939.3687,5.2281-6.8652-4.3285,8.6392,2.3518,1.7661,6.0075-3.8387-4.5083,4.4461S769.7394,133.5167,779.0317,133.76Z"/><path class="cls-50" d="M780.4062,137.7916l-4.3217-2.7054,2.824,3.53L766.422,154.5189l-6.0076-8.7982,4.0594,11.0155a173.0378,173.0378,0,0,1-20.1109,10.7613c-1.7637-11.7205.6289-24.0434.6289-24.0434l10.0495-.8533-8.7316-1.3535s15.5219-16.6691,20.7956-15.9461c5.1212.7011,16.4932,11.5748,17.1164,12.1851a.112.112,0,0,1,.0265.0188Z"/><path class="cls-51" d="M784.2217,137.4863c-.61-.412-10.287-6.93-12.194-6.98-1.97-.0425-6.0711,1.2-12.4116,8.5684-6.3312,7.3593-15.2532,28.4225-15.2532,28.4225-1.7637-11.7205.6289-24.0434.6289-24.0434l10.0495-.8533-8.7316-1.3535s15.5219-16.6691,20.7956-15.9461C772.2265,126.0023,783.5985,136.876,784.2217,137.4863Z"/><path class="cls-52" d="M744.6774,166.7654a163.886,163.886,0,0,1,7.0949-16.3458c3.7332-7.164,8.51-13.7256,11.7648-16.4653s7.3827-4.053,9.4249-3.8859,11.0153,7.1827,11.0153,7.1827-8.3226-5.8047-11.2708-6.1092-9.7528,4.6305-12.4524,7.2042-8.76,14.81-9.7072,16.2633S744.6774,166.7654,744.6774,166.7654Z"/><path class="cls-53" d="M785.2593,135.9041s23.4349-5.4467,29.141-5.6614,32.3338,5.53,32.3338,5.53-23.9944-6.54-31.6344-6.1884S788.7888,134.6317,785.2593,135.9041Z"/><path class="cls-54" d="M781.7057,138.9085s18.4808,6.61,20.9638,9.4819,5.3947,21.9641,5.5317,23.2468,2.58,13.1884,2.58,13.1884-1.5217-11.2847-1.4593-13.6707-2.969-19.093-6.2654-23.525S781.7057,138.9085,781.7057,138.9085Z"/><path class="cls-55" d="M738.7852,118.95s19.8207-5.1184,25.2522-4.1236,12.7462,14.9406,12.7462,14.9406S769.801,117.25,766.66,115.0651,749.204,115.5364,738.7852,118.95Z"/><polygon class="cls-56" points="766.422 154.519 757.78 141.693 758.931 139.962 771.338 148.258 766.422 154.519"/><polygon class="cls-57" points="815.31 143.05 813.261 130.329 812.921 142.146 815.31 143.05"/><polygon class="cls-58" points="825.531 131.618 834.364 139.175 837.231 138.644 833.078 134.409 830.015 132.42 825.531 131.618"/><polygon class="cls-59" points="746.31 141.247 756.295 142.757 756.625 142.295 747.345 139.981 746.31 141.247"/><polygon class="cls-60" points="780.406 137.792 770.688 131.475 772.706 131.142 782.833 137.611 780.406 137.792"/><polygon class="cls-61" points="745.144 125.82 746.943 117.029 748.598 116.677 750.557 125.961 745.144 125.82"/><polygon class="cls-62" points="757.048 126.131 765.839 115.568 764.16 119.933 759.238 126.189 757.048 126.131"/><polygon class="cls-63" points="799.622 174.613 797.709 171.632 806.244 160.258 806.902 163.684 799.622 174.613"/><path class="cls-64" d="M747.345,139.9813l9.28,2.3137,6.2431-7.7435-7.1649-2.411S748.8036,138.4367,747.345,139.9813Z"/><path class="cls-65" d="M803.0569,147.63l5.5679,2.0866a33.7921,33.7921,0,0,1,2.19,8.744l-3.9977-.8841S804.7926,151.829,803.0569,147.63Z"/><path class="cls-66" d="M813.246,129.7308l2.0639,13.32,7.7361-1.7091-3.0655-11.4342S815.2493,128.8745,813.246,129.7308Z"/><polygon class="cls-67" points="746.943 117.029 743.464 125.776 737.1 124.898 742.875 117.951 746.943 117.029"/><path class="cls-68" d="M689.3406,264.316s6.4239-6.1526,7.5109-8.59,16.03-60.6506,24.1364-71.873c8.751-12.1147,17.5971-18.1,17.5971-18.1l1.6873-5.35s-17.9178,13.7161-23.2294,24.374S694.9661,243.5469,689.3406,264.316Z"/><path class="cls-69" d="M717.0429,184.777l3.2637.1052s5.499-8.1615,11.0776-13.0428l-2.2936-1.7777S719.5058,178.7062,717.0429,184.777Z"/><path class="cls-70" d="M704.0671,218.5875l.4121,14.0511-14.6765,57.8428-5.63-.1472,3.7872-21.731S702.359,222.6809,704.0671,218.5875Z"/><path class="cls-71" d="M445.0228,269.5036l10.7628-46.46,5.7307-2.1931,4.917-39.4712,5.1989-14.1731s9.93-12.7442,29.3569-18.4542l13.838,9.0177,9.7308,69.3939,10.66,28.7.1174,18.7112Z"/><path class="cls-72" d="M471.6322,167.2066,466.4333,181.38l-4.917,39.4712,5.2623,5.7491,5.2859,9.4951,7.0928,2.6054,15.9607-44.107,1.9755-.7168,7.8005-24.82,7.247-4.3625,2.6861-6.9241-13.838-9.0177S481.9357,153.1169,471.6322,167.2066Z"/><polygon class="cls-73" points="455.637 223.686 463.607 227.963 468.183 229.123 466.603 225.387 461.516 220.851 455.786 223.044 455.637 223.686"/><polygon class="cls-74" points="514.827 157.77 512.141 164.694 508.027 197.384 503.365 209.073 504.894 169.057 497.093 193.877 495.266 218.221 495.118 194.593 479.157 238.701 472.064 236.095 468.183 229.123 463.607 227.963 459.378 269.476 513.728 272.658 522.616 237.371 520.352 197.169 514.827 157.77"/><polygon class="cls-75" points="463.607 227.963 459.378 269.476 470.319 269.407 472.064 236.095 468.183 229.123 463.607 227.963"/><polygon class="cls-76" points="495.118 194.593 479.157 238.701 485.824 271.795 494.125 272.261 495.234 213.111 495.118 194.593"/><polygon class="cls-77" points="479.419 223.304 480.618 211.612 484.673 204.82 491.724 187.165 484.055 210.452 479.419 223.304"/><path class="cls-78" d="M471.6322,167.2066l25.2929-.1587,15.2159-2.3537,2.6861-6.9241-13.838-9.0177S478.9234,153.0408,471.6322,167.2066Z"/><path class="cls-79" d="M364.2168,274.369l4.2115-18.6543.4544,3.2773s2.2275-10.1752,5.485-17.3507l-.0782,2.9876s9.2771-17.8428,20.2242-24.5275c14.7913-9.0321,32.7037.8554,32.7037.8554l.5178-12.5424,2.5352,9.7524-.5681-7.4844s12.4119,1.1793,17.7969,9.407c6.3229,9.66,9.77,47.5464,9.77,47.5464Z"/><path class="cls-80" d="M322.5444,276.3035s53.1128-2.46,55.8243-1.7987-5.8262,4.4662-4.9194,5.5063,68.2786,4.2356,123.1358,6.4888c0,0,20.786.7935,20.7594,1.8133-.0736,2.81-30.5149,1.6724-31.9586,4.7045s128.2976,13.0521,159.0222,5.93c3.9834-.9233-15.3958-4.2394-13.0681-5.4595s56.0086-3.3466,89.1065-2.0191c28.5752,1.146,39.416-.5385,39.416-.5385s-90.5826-13.6-203.34-19.1328C446.0079,266.3752,322.5444,276.3035,322.5444,276.3035Z"/><path class="cls-81" d="M372.3173,274.5809l93.33,5.0992,28.1737-4.6434S648.4652,289.5111,713.947,296.19s82.5872-.1879,82.5872-.1879-76.6806-11.0526-121.8409-15.2922S510.1639,268.39,510.1639,268.39l-31.7614-.8308-93.3434,5.5741Z"/><path class="cls-82" d="M391.2264,273.2947l5.3948-23.6819,2.0954-2.7548L404.3,221.3891l9.5534-13.3378s8.0986,2.6079,11.6276,7.1591l-.5981,22.8651,3.3118,4.1641,6.64,24.3319-.2009,7.68Z"/><path class="cls-83" d="M404.3,221.3891l-5.5834,25.4689,2.3462,4.2982,8.2465.2157,4.4556-9.51,10.2212-28.2493s-6.0795-4.0352-10.1327-5.5616C413.8534,208.0513,404.9813,218.2813,404.3,221.3891Z"/><polygon class="cls-84" points="424.883 238.076 417.659 245.388 424.728 243.985 428.195 242.24 424.883 238.076"/><polygon class="cls-85" points="396.621 249.613 401.063 251.156 398.717 246.858 396.621 249.613"/><polygon class="cls-86" points="409.309 251.372 408.755 272.556 406.726 273.679 416.923 273.516 428.983 266.418 430.258 249.801 428.195 242.24 424.728 243.985 417.237 261.522 417.659 245.388 424.883 238.076 425.481 215.21 423.986 213.613 414.503 241.555 409.309 251.372"/><path class="cls-87" d="M404.3,221.3891l15.2573-.3615,4.4288-7.4147s-3.236-4.0745-10.1327-5.5616C413.8534,208.0513,405.1928,217.3166,404.3,221.3891Z"/><path class="cls-88" d="M443.3173,95.9645s6.1309,11.5864,8.1112,22.26l-6.5224,1.1567,6.31.9913a65.044,65.044,0,0,1-.1968,21.0758l-12.0173-10.5831,1.6563-4.3311-2.2527,3.806s-12.9572-10.5147-15.1911-13.378S443.3173,95.9645,443.3173,95.9645Z"/><path class="cls-89" d="M451.13,116.7577l-10.03-3.1961s.01,2.096,2.131,10.0506,7.788,17.836,7.788,17.836l-12.0173-10.5831,1.6563-4.3311-2.2527,3.806-2.46-2.1666-5.0069-6.6368,5.698-14.5742,7.6,1.7383,6.4893,6.3338Z"/><path class="cls-90" d="M446.7952,261.3854s1.2756-65.1987-.9226-79.0836S427.36,108.9765,427.36,108.9765l3.0064-1.1511s15.4859,57.9153,18.491,74.7263c2.7347,15.2984,5.3932,79.0287,5.3932,79.0287Z"/><path class="cls-91" d="M430.79,119.6234s-.1489,19.9538-.7,22.4355a62.9191,62.9191,0,0,1-3.3048,8.3051s-6.0851-7.8652-7.734-12.2488-5.957-15.51-5.957-15.51Z"/><path class="cls-92" d="M433.121,107.337s-12.1332-7.8628-17.54-8.71-24.2252,4.3118-26.5186,6.1654-8.3084,11.3687-8.3084,11.3687l8.7036-2.1511.1184-5.3106,1.2655,4.9327s10.0145-1.398,14.4393-1.8541,11.8717-.5529,11.8717-.5529l3.2024-2.8558-.7607,2.4444S430.1922,109.3835,433.121,107.337Z"/><path class="cls-93" d="M492.0216,101.012s-21.0527,5.04-28.6284,7.92-25.5025.2507-25.5025.2507l16.2617-14.2836,13.8987-2.3421Z"/><path class="cls-94" d="M428.3555,107.4927s-.2187-13.6522,1.0811-16.2477,20.33,2.4975,20.33,2.4975L437.49,102.3737Z"/><path class="cls-95" d="M432.69,104.7807s15.3268-13.0348,21.2966-16.08,28.7914,3.4205,43.2157,11.4687c0,0-14.6512,2.7379-24.2723,4.06l-5.1441-5.0835,2.3122,5.5607s-10.6938,1.9351-17.8746,3.62-18.8417.56-18.8417.56Z"/><path class="cls-96" d="M433.3821,108.8864s-19.7237-1.798-25.2536.5642S391.61,123.0645,391.61,123.0645l5.03-.8476-5.6476,3.5182s-3.3684,9.3811-3.0464,23.1745l14.6629-8.5372,2.0564-2.8992,3.1249-.3066s14.5056-19.0019,15.6285-20.07,10.53-5.4126,10.53-5.4126Z"/><path class="cls-97" d="M422.6468,109.9417s-9.7459,4.3928-13.2542,7.0106S387.9455,148.91,387.9455,148.91a85.348,85.348,0,0,1,3.0464-23.1745l5.1248-3.1925-4.5071.5219s10.3611-10.8814,16.5189-13.6139,19.2453-3.243,19.2453-3.243Z"/><path class="cls-98" d="M421.9421,110.2638s-9.7,4.1093-13.2367,6.7319-14.8187,20.7206-14.8187,20.7206L387.9455,148.91,400.82,128.5851s6.5885-9.8508,8.2642-11.0741S421.9421,110.2638,421.9421,110.2638Z"/><path class="cls-99" d="M492.6956,97.8339s-25.052-9.5148-32.6319-9.2518-15.1413,6.3627-15.1413,6.3627,7.3646-5.6927,10.1292-6.6832S470.5726,87.4087,492.6956,97.8339Z"/><path class="cls-100" d="M434.72,90.6733s-3.6581.16-4.6974,1.1848-1.6788,12.5634-1.6788,12.5634-.196-11.44,1.0929-13.1765C430.3064,90.0731,434.72,90.6733,434.72,90.6733Z"/><path class="cls-101" d="M426.9367,103.6139s-10.5113-4.0561-13.7589-4.3815-21.79,4.3142-23.7,5.7309-8.7232,11.1979-8.7232,11.1979,6.3325-9.6359,8.3084-11.3687,20.5825-7.0544,26.5186-6.1654S426.9367,103.6139,426.9367,103.6139Z"/><polygon class="cls-102" points="404.345 123.41 407.79 137.167 404.665 137.473 403.02 125.294 404.345 123.41"/><path class="cls-103" d="M421.4373,119.4989l-1.1785-8.3236-3.4251-3.9449.9312-.1569,9.9542,7.6023s-3.5429,1.7651-3.9219,2.0931S421.4373,119.4989,421.4373,119.4989Z"/><polygon class="cls-104" points="396.117 122.543 405.846 120.108 407.937 117.68 395.074 119.848 391.61 123.065 396.117 122.543"/><path class="cls-105" d="M470.0984,104.7063l-6.0636-15.7327a12.6,12.6,0,0,0-6.4421-.1106l4.2,17.4264Z"/><path class="cls-106" d="M390.8417,113.6322l-2.1563-7.9208a9.4169,9.4169,0,0,1,2.9555-1.6756l4.7892,8.8366Z"/><path class="cls-107" d="M390.9919,125.7351l12.1154-1.9433-7.1053,10.5926-7.4218,2.4815S389.4435,129.27,390.9919,125.7351Z"/><path class="cls-108" d="M474.164,91.5269l5.49,11.6916-6.7241,1.0106-5.1441-5.0835-3.7514-10.172S470.6543,89.3333,474.164,91.5269Z"/><path class="cls-109" d="M429.1719,103.5669l-13.9571-2.4129s-3.5844,11.134-3.3542,12.8382-.8687,32.5881-.8687,32.5881,10.0573-9.333,15.7913-15.5558l-2.3808-3.9219,3.4574,3.28a151.1868,151.1868,0,0,0,8.3295-15.5646c3.0841-7.0651,1.2616-15.6319,1.2616-15.6319Z"/><path class="cls-110" d="M429.1719,103.5669s-7.8724,7.7556-9.6082,11.66-8.5718,31.3538-8.5718,31.3538-.4316-20.55.8687-32.5881,3.3542-12.8382,3.3542-12.8382Z"/><path class="cls-111" d="M429.1719,103.5669s-8.8492,8.21-10.5463,11.15-7.6337,31.8632-7.6337,31.8632,6.4949-26.3243,8.4591-30.8183S429.1719,103.5669,429.1719,103.5669Z"/><polygon class="cls-112" points="427.86 130.383 417.651 121.216 419.451 115.762 430.86 124.518 427.86 130.383"/><path class="cls-113" d="M411.4249,119.237l6.9724-4.0313,3.1-4.0259-9.3169.1755S411.5413,117.2112,411.4249,119.237Z"/><path class="cls-114" d="M444.9179,109.3665l-5.7024-9.974-1.52,1.3053s.7848,6.2316.1952,8.4849Z"/><path class="cls-115" d="M410.8219,133.2047l-.8483-17.0573-2.9908-6.1266s1.58-1.216,5.7156-2.0032C412.6984,108.0176,410.4564,121.6146,410.8219,133.2047Z"/><path class="cls-116" d="M433.5463,133.254s1.76,3.7284,3.0279,5.715c1.7311,2.7125,10.0094,35.9014,11.0908,42.1831s2.3452,53.7837,2.3452,53.7837l-3.19,4.6042s.04-50.2678-.9481-57.2382C444.4329,172.1423,433.5463,133.254,433.5463,133.254Z"/><path class="cls-117" d="M697.5875,283.4147l9.6439-20.3187,4.339-2.37,14.3038-28.2778s8.4483-3.2238,14.7661-2.3594l5.0443,24.5252,4.9933.8216,2.0366,26.15,8.2359,3.4867-.1593,6.09Z"/><path class="cls-118" d="M725.8742,232.448,711.57,260.7258l-4.339,2.37-7.89,16.6225,26.25-4.0509,5.2141-7.6021,4.3681-3.869,5.0606-18.5824.4061-15.5255A20.2308,20.2308,0,0,0,725.8742,232.448Z"/><polygon class="cls-119" points="745.685 254.614 742.899 260.374 741.596 266.442 748.805 263.86 750.678 255.435 745.685 254.614"/><path class="cls-120" d="M752.7145,281.5854l-2.7812,2.315-20.671.5962s20.2309,2.3627,23.6248,2.6717,8.0633-2.0962,8.0633-2.0962Z"/><polygon class="cls-121" points="740.234 245.614 742.899 260.374 745.685 254.614 740.64 230.089 740.234 245.614"/><polygon class="cls-122" points="748.805 263.86 747.355 280.974 739.258 282.939 741.596 266.442 735.174 264.197 730.805 268.066 725.591 275.668 727.034 283.301 716.577 284.392 702.771 284.031 760.791 291.162 760.95 285.072 753.687 287.189 729.262 284.497 749.933 283.9 752.714 281.585 750.678 255.435 748.805 263.86"/><polygon class="cls-123" points="748.805 263.86 747.355 280.974 749.933 283.9 752.714 281.585 750.678 255.435 748.805 263.86"/><polygon class="cls-124" points="746.034 264.852 749.207 262.051 748.805 263.86 746.034 264.852"/><polygon class="cls-124" points="733.52 265.661 736.099 260.799 735.174 264.197 733.52 265.661"/><path class="cls-125" d="M711.57,260.7258l18.3921-2.998,8.58-15.79,2.0976-11.85s-6.0429-.7927-14.7661,2.3594Z"/><path class="cls-126" d="M725.8742,232.448l12.2645,4.0742,2.3317.061.17-6.4946A16.7237,16.7237,0,0,0,725.8742,232.448Z"/><path class="cls-127" d="M489.2272,269.9922l5.3051-22.171,3.99-1.4293,16.1607-45.5571,4.0018.0838L538.12,167.0164l8.2147.1721,1.538,16.7272,5.3439.112L557.39,170.18l23.4463-29.29,16.6331-9.6537,21.2851-8.1041,16.8909,3.495,2.1024,55.7573,3.5793,3.4891,7.2315,27.4334,4.9083,27.4253,2.3351-20.9052,4.0681-29.4784L673.9952,162.19l14.3-3.88-1.3183,62.92,3.6392,4.9059L688.1013,285.3l-68.669-2.7116,5.2306-6.4841L615.0522,260.43s-28.26-6.4242-52.056,6.5592L558.91,273.09S511.7845,273.1372,489.2272,269.9922Z"/><polygon class="cls-128" points="546.335 167.189 545.775 193.889 540.568 207.006 535.029 210.929 519.201 250.141 498.354 254.43 498.523 246.392 514.683 200.835 518.685 200.919 538.12 167.016 546.335 167.189"/><path class="cls-129" d="M557.39,170.18l-4.1737,13.848,1.4631,22.8438,12.5162,9.7475-.386,19.0759,13.5259-2.9012,27.6816-53.6222,11.1108-2.4188L625.65,141.23l9.9962-14.6029-16.8909-3.495s-24.2762,7.0726-37.9182,17.7578Z"/><polygon class="cls-130" points="653.467 240.733 652.199 274.771 659.722 279.021 667.388 271.241 676.783 218.915 679.132 216.763 688.295 158.31 673.995 162.19 659.87 190.349 653.467 240.733"/><polygon class="cls-131" points="494.532 247.821 498.354 254.43 510.618 258.845 503.584 253.354 498.523 246.392 494.532 247.821"/><polygon class="cls-132" points="686.977 221.23 682.028 226.953 678.821 231.62 684.721 228.635 690.616 226.136 686.977 221.23"/><path class="cls-133" d="M619.1282,176.7527l-3.5791,26.67.18,24.6939L627.93,259.1049l17.7908,13.46-1.6665-41.6739-5.2224-40.9832,2.4958-4.0343,7.2315,27.4334,4.9083,27.4253-1.2681,34.0384-2.3082,9.7285-30.4586-1.911,5.2306-6.4841L615.0522,260.43s-24.8379-6.4785-52.056,6.5592L558.91,273.09l-59.72-1.1239-.8357-17.5364,12.2636,4.4147,3.5443,3.978,5.0388-12.6812,15.8279-39.2128,5.539-3.9226-3.6741,18.5319,2.2555,27.4695,6.4159,5.9666,11.46-34.64-11.25-30.4451.5595-26.7005,1.538,16.7272,5.3439.112,1.4631,22.8438,12.5162,9.7475-.386,19.0759,13.5259-2.9012,27.6816-53.6222Z"/><polygon class="cls-134" points="625.649 141.23 626.852 182.156 630.618 184.725 637.748 182.385 635.646 126.627 625.649 141.23"/><polygon class="cls-135" points="627.93 259.105 615.729 228.117 624.721 185.526 630.618 184.725 639.568 191.351 644.054 230.891 645.72 272.565 627.93 259.105"/><polygon class="cls-136" points="667.111 284.471 667.388 271.241 678.821 231.62 690.616 226.136 688.101 285.3 667.111 284.471"/><polygon class="cls-137" points="679.132 216.763 682.028 226.953 686.977 221.23 688.295 158.31 679.132 216.763"/><path class="cls-138" d="M580.8366,140.89l32.4137-.8233L625.65,141.23l9.9962-14.6029-16.8909-3.495S587.2135,132.924,580.8366,140.89Z"/><path class="cls-139" d="M673.9952,162.19,659.87,190.3489l19.0048-5.7611,7.5681-14.4637,1.8521-11.814S678.7078,159.4094,673.9952,162.19Z"/><polygon class="cls-140" points="624.721 185.526 637.748 182.385 641.327 185.874 639.568 191.351 624.721 185.526"/><polygon class="cls-141" points="514.683 200.835 527.905 206.31 535.029 210.929 540.568 207.006 518.685 200.919 514.683 200.835"/><polygon class="cls-142" points="538.12 167.016 535.829 172.727 546.111 177.874 546.335 167.189 538.12 167.016"/><polygon class="cls-143" points="567.196 216.619 557.025 224.334 545.565 258.974 562.996 266.989 575.501 261.113 566.81 235.695 567.196 216.619"/><path class="cls-144" d="M580.3358,232.7937l5.9269,27.0329a47.7076,47.7076,0,0,1,13.59-1.0022l8.1651-79.6529Z"/><polygon class="cls-145" points="624.663 276.104 645.72 272.565 627.93 259.105 624.663 276.104"/><polygon class="cls-146" points="644.087 231.726 653.467 240.733 648.559 213.307 641.327 185.874 639.568 191.351 644.087 231.726"/><polygon class="cls-147" points="535.029 210.929 534.668 228.138 539.149 253.007 536.894 225.538 540.568 207.006 535.029 210.929"/><polygon class="cls-148" points="580.336 232.794 566.81 235.695 567.196 216.619 594.157 162.551 611.407 150.001 608.017 179.172 580.336 232.794"/><polygon class="cls-149" points="615.729 228.117 627.93 259.105 633.231 241.861 636.371 218.068 635.046 188.003 624.721 185.526 615.729 228.117"/><polygon class="cls-150" points="679.549 214.103 688.295 158.31 687.697 186.845 687.506 195.96 679.549 214.103"/><polygon class="cls-151" points="678.821 231.62 678.905 253.339 688.58 274.039 690.616 226.136 678.821 231.62"/><polygon class="cls-152" points="625.649 141.23 621.975 161.248 632.051 144.976 635.646 126.627 625.649 141.23"/><polygon class="cls-153" points="514.162 262.823 519.201 250.141 535.029 210.929 532.169 232.442 526.48 258.574 525.37 272.901 514.799 272.076 514.162 262.823"/><polygon class="cls-154" points="514.683 200.835 505.114 227.81 498.523 246.392 501.821 250.929 513.145 234.013 519.604 202.873 514.683 200.835"/><polygon class="cls-155" points="659.87 190.349 655.069 226.388 653.467 240.733 652.558 257.661 660.312 250.831 673.483 202.937 678.875 184.588 659.87 190.349"/><polygon class="cls-77" points="559.755 170.229 563.892 165.047 577.827 150.129 572.754 160.217 566.989 166.794 559.755 170.229"/><polygon class="cls-77" points="558.07 174.462 556.328 179.153 560.374 173.242 558.07 174.462"/><polygon class="cls-77" points="567.196 216.619 570.105 205.295 581.323 185.666 587.057 176.79 567.196 216.619"/><polygon class="cls-77" points="667.942 244.801 668.156 234.577 673.196 216.639 667.942 244.801"/><polygon class="cls-77" points="665.128 249.217 663.941 251.882 663.815 257.897 663.728 262.052 664.979 256.335 665.128 249.217"/><polygon class="cls-77" points="542.799 219.878 539.866 227.981 541.232 228.737 540.383 235.141 542.623 228.305 542.799 219.878"/><polygon class="cls-124" points="620.409 140.739 624.66 139.024 630.742 133.79 625.649 141.23 620.409 140.739"/><polygon class="cls-124" points="531.541 208.668 536.989 209.54 535.029 210.929 531.541 208.668"/><polygon class="cls-124" points="495.795 249.502 500.537 255.216 498.448 256.392 495.795 249.502"/><polygon class="cls-124" points="680.884 230.428 685.778 227.032 690.616 226.136 680.884 230.428"/><polygon class="cls-124" points="671.574 247.93 669.48 253.141 668.552 264.76 671.574 247.93"/><polygon class="cls-124" points="635.725 189.843 638.832 189.908 640.564 188.252 639.568 191.351 635.725 189.843"/><path class="cls-156" d="M464.8754,274.3456l.16-6.1067-5.1008-4.95-1.9356-12.9335-11.3565-9.2039s-8.574-2.5641-15.2891,2.0484l-5.108,22.1813-6.25,1.68-3.0945,7.332,29.2952,1.2172Z"/><path class="cls-157" d="M431.3531,243.2l-5.108,22.1813,8.5071-.72,4.4835-5.5067,5.9355-5.2342,12.8275-3.5652-11.3565-9.2039S437.6735,238.4632,431.3531,243.2Z"/><polygon class="cls-158" points="419.995 267.061 428.172 269.181 443.228 266.074 434.752 264.661 426.245 265.381 419.995 267.061"/><polygon class="cls-159" points="445.171 253.92 443.228 266.074 428.172 269.181 428.024 274.855 448.312 276.051 464.875 274.346 465.089 266.163 457.578 266.449 459.934 263.289 457.999 250.355 445.171 253.92"/><path class="cls-160" d="M431.3531,243.2,445.1712,253.92l12.8275-3.5652-11.3565-9.2039S436.4984,237.75,431.3531,243.2Z"/><polygon class="cls-124" points="441.854 251.346 447.004 253.411 444.874 255.777 441.854 251.346"/><polygon class="cls-124" points="426.646 268.785 428.94 269.022 428.161 269.592 426.646 268.785"/><polygon class="cls-161" points="406.726 273.679 404.343 263.929 400.915 263.653 387.929 251.546 380.341 254.758 372.317 274.581 406.726 273.679"/><path class="cls-162" d="M380.3414,254.7582l3.2045,7.3569s12.4468,2.8305,17.37,1.538L387.93,251.5457Z"/><polygon class="cls-163" points="400.915 263.653 393.368 263.892 400.874 265.244 404.343 263.929 400.915 263.653"/><polygon class="cls-164" points="383.546 262.115 381.057 273.029 372.317 274.581 406.726 273.679 404.343 263.929 400.874 265.244 399.351 271.287 391.244 272.61 393.368 263.892 383.546 262.115"/><polygon class="cls-124" points="399.411 264.98 401.429 265.033 400.673 266.039 399.411 264.98"/><polygon class="cls-124" points="383.211 261.345 385.337 262.491 383.519 263.152 383.211 261.345"/><polygon class="cls-165" points="494.356 271.743 504.711 258.082 511.102 257.708 532.72 256.883 537.63 260.422 546.752 276.806 517.665 276.045 513.954 273.628 494.356 271.743"/><path class="cls-166" d="M504.7112,258.0818l2.1759,4.0483,19.8962,4.3753,10.8468-6.0833-4.91-3.5394S517.0311,256.2427,504.7112,258.0818Z"/><polygon class="cls-167" points="526.783 266.505 526.82 273.757 518.517 276.067 513.954 273.628 517.608 264.488 506.887 262.13 502.863 270.57 494.356 271.743 512.869 273.6 517.665 276.045 546.752 276.806 537.63 260.422 526.783 266.505"/><polygon class="cls-124" points="525.61 266.247 528.116 265.758 526.79 267.923 525.61 266.247"/><path class="cls-168" d="M584.9373,329.1055s-67.67,5.36-122.05,5.82c-54.39.46-59.11-4.2-80.45-7.1s-61.18-6.71-65.71-9.75c-4.53-3.03,14.73-7.97,14.54-11.56-.12-2.34-34.78-.74-68.03.07h-.09c-10.43.26-20.71.43-29.75.38h-.01c-1.2,0-2.38-.01-3.53-.03-4.77-.06-9.11-.19-12.85-.42q-1.4249-.09-2.73-.18a.2769.2769,0,0,1-.09-.01c-29.24-1.97-10.52-3.94-11.29-5.14-.15-.23-1.37-.38-3.37-.48h-.03c-3.16-.15-8.24-.18-14.14-.23-.01-.01-.02-.01-.04-.01-6.75-.05-14.57-.14-21.79-.46-3.46-.15-6.77-.36-9.77-.65-18.25-1.75-15.12-2.32-15.12-2.32l8.47-1.55a2.788,2.788,0,0,0-1.09.43c-.33.42,24.94,2.44,57.23,4.09,9.39.49,19.37.94,29.48,1.32h.01c6.3.23,12.66.44,18.96.6,7.34.19,14.6.32,21.61.38,22.43.19,36.73.53,45.74.97,13.45.66,15.13,1.53,14.47,2.4-1.11,1.45-5.42,4.91-4.12,8.59C330.6972,317.9356,366.6372,334.4155,584.9373,329.1055Z"/><path class="cls-169" d="M233.3,306.91h-.01a3.8606,3.8606,0,0,1-.65.19,7.2368,7.2368,0,0,1-2.68-.16c-.06-.02-.13-.03-.2-.06-4.77-.06-9.11-.19-12.85-.42q-1.4248-.09-2.73-.18a.2763.2763,0,0,1-.09-.01c-29.24-1.97-10.52-3.94-11.29-5.14-.15-.23-1.37-.38-3.37-.48h-.03c-3.56.69-5.69,1.15-5.69,1.15s-3.55-.75-8.45-1.38c-.01-.01-.02-.01-.04-.01l-14.46-.81c-1.77.08-4.3.2-7.33.35-14.81.74-25.43,2.08-29.76,1.05-9.34-2.22-34.45,2.67-34.67,2.67-4.1,0,37.38,6.84,41.4,6.95,20.69.58,78.19-1.91,122.65-4.09C252.62,306.79,242.34,306.96,233.3,306.91Z"/><path class="cls-170" d="M320.22,303.56s-18.09,1.01-43.04,2.27c-.12,0-.24.01-.36.02-.64.03-1.28.06-1.92.1-.11.01-.22.01-.33.01-3.69.18-7.51.37-11.43.57h-.09c-10.43.26-20.71.43-29.75.38h-.01a3.8606,3.8606,0,0,1-.65.19,7.2368,7.2368,0,0,1-2.68-.16c-.06-.02-.13-.03-.2-.06-4.77-.06-9.11-.19-12.85-.42q-1.4248-.09-2.73-.18a.2763.2763,0,0,1-.09-.01c-29.24-1.97-10.52-3.94-11.29-5.14-.15-.23-1.37-.38-3.37-.48,1.11-.22,2.36-.45,3.72-.7,6.53-1.19,15.78-2.74,25.6-3.88,14.39-1.69,22.1-.81,28.56-.44a31.2429,31.2429,0,0,1,1.41-8.57l60.23,16.16Z"/></g></g></g></svg>