<svg xmlns="http://www.w3.org/2000/svg" xmlns:xlink="http://www.w3.org/1999/xlink" width="1000.367" height="400" viewBox="0 0 1000.367 400"><defs><style>.cls-1{fill:none;}.cls-2{isolation:isolate;}.cls-3{clip-path:url(#clip-path);}.cls-4{fill:url(#Áåçûìÿííûé_ãðàäèåíò_207);}.cls-10,.cls-11,.cls-12,.cls-13,.cls-14,.cls-15,.cls-5,.cls-6,.cls-7,.cls-8,.cls-9{fill-rule:evenodd;mix-blend-mode:multiply;}.cls-5{fill:url(#Áåçûìÿííûé_ãðàäèåíò_185);}.cls-6{fill:url(#Áåçûìÿííûé_ãðàäèåíò_185-2);}.cls-7{fill:url(#Áåçûìÿííûé_ãðàäèåíò_191);}.cls-8{fill:url(#Áåçûìÿííûé_ãðàäèåíò_191-2);}.cls-9{fill:url(#Áåçûìÿííûé_ãðàäèåíò_191-3);}.cls-10{fill:url(#Áåçûìÿííûé_ãðàäèåíò_191-4);}.cls-11{fill:url(#Áåçûìÿííûé_ãðàäèåíò_191-5);}.cls-12{fill:url(#Áåçûìÿííûé_ãðàäèåíò_191-6);}.cls-13{fill:url(#Áåçûìÿííûé_ãðàäèåíò_191-7);}.cls-14{fill:url(#Áåçûìÿííûé_ãðàäèåíò_191-8);}.cls-15{fill:url(#Áåçûìÿííûé_ãðàäèåíò_191-9);}.cls-16{fill:#fff;}.cls-17,.cls-18{mix-blend-mode:screen;}.cls-17{fill:url(#Áåçûìÿííûé_ãðàäèåíò_17);}.cls-18{fill:url(#Áåçûìÿííûé_ãðàäèåíò_16);}</style><clipPath id="clip-path"><rect class="cls-1" width="1000" height="400"/></clipPath><radialGradient id="Áåçûìÿííûé_ãðàäèåíò_207" cx="1069.4575" cy="24181.6699" r="665.0091" gradientTransform="matrix(-1.1111, 0, 0, 0.2607, 1701.7482, -5907.7463)" gradientUnits="userSpaceOnUse"><stop offset="0.3101" stop-color="#46e7c4"/><stop offset="0.6164" stop-color="#4dbbdd"/><stop offset="0.8592" stop-color="#529fec"/><stop offset="1" stop-color="#5495f2"/></radialGradient><linearGradient id="Áåçûìÿííûé_ãðàäèåíò_185" x1="734.2505" y1="367.5971" x2="1610" y2="367.5971" gradientTransform="matrix(-1, 0, 0, 1, 1650, 0)" gradientUnits="userSpaceOnUse"><stop offset="0.0056" stop-color="#a2c2ff"/><stop offset="0.2925" stop-color="#c1d6ff"/><stop offset="0.7589" stop-color="#eef4ff"/><stop offset="0.9944" stop-color="#fff"/></linearGradient><linearGradient id="Áåçûìÿííûé_ãðàäèåíò_185-2" x1="1040.178" y1="384.4714" y2="384.4714" xlink:href="#Áåçûìÿííûé_ãðàäèåíò_185"/><linearGradient id="Áåçûìÿííûé_ãðàäèåíò_191" x1="965.3568" y1="322.3509" x2="965.3568" y2="277.63" gradientTransform="matrix(-1, 0, 0, 1, 1650, 0)" gradientUnits="userSpaceOnUse"><stop offset="0" stop-color="#d1e8ff"/><stop offset="0.0334" stop-color="#d2e8ff"/><stop offset="0.9944" stop-color="#e3ecff"/></linearGradient><linearGradient id="Áåçûìÿííûé_ãðàäèåíò_191-2" x1="1434.9164" y1="328.42" x2="1434.9164" y2="277.63" xlink:href="#Áåçûìÿííûé_ãðàäèåíò_191"/><linearGradient id="Áåçûìÿííûé_ãðàäèåíò_191-3" x1="1245.5237" y1="299.6259" x2="1245.5237" y2="295.0631" xlink:href="#Áåçûìÿííûé_ãðàäèåíò_191"/><linearGradient id="Áåçûìÿííûé_ãðàäèåíò_191-4" x1="733.3326" y1="331.8915" x2="733.3326" y2="328.3407" xlink:href="#Áåçûìÿííûé_ãðàäèåíò_191"/><linearGradient id="Áåçûìÿííûé_ãðàäèåíò_191-5" x1="696.0488" y1="345.5204" x2="696.0488" y2="337.6232" xlink:href="#Áåçûìÿííûé_ãðàäèåíò_191"/><linearGradient id="Áåçûìÿííûé_ãðàäèåíò_191-6" x1="772.0529" y1="344.4518" x2="772.0529" y2="340.9058" xlink:href="#Áåçûìÿííûé_ãðàäèåíò_191"/><linearGradient id="Áåçûìÿííûé_ãðàäèåíò_191-7" x1="864.4186" y1="331.4755" x2="864.4186" y2="319.6196" xlink:href="#Áåçûìÿííûé_ãðàäèåíò_191"/><linearGradient id="Áåçûìÿííûé_ãðàäèåíò_191-8" x1="989.904" y1="325.0354" x2="989.904" y2="319.3139" xlink:href="#Áåçûìÿííûé_ãðàäèåíò_191"/><linearGradient id="Áåçûìÿííûé_ãðàäèåíò_191-9" x1="650" y1="281.8999" x2="1650" y2="281.8999" xlink:href="#Áåçûìÿííûé_ãðàäèåíò_191"/><linearGradient id="Áåçûìÿííûé_ãðàäèåíò_17" x1="1361.3093" y1="347.2038" x2="1650" y2="347.2038" gradientTransform="matrix(-1, 0, 0, 1, 1650, 0)" gradientUnits="userSpaceOnUse"><stop offset="0"/><stop offset="0.9944" stop-color="#72bdb3"/></linearGradient><linearGradient id="Áåçûìÿííûé_ãðàäèåíò_16" x1="847.4151" y1="346.9354" x2="847.4151" y2="314.0105" gradientUnits="userSpaceOnUse"><stop offset="0" stop-color="#00565e"/><stop offset="0.9944" stop-color="#72bdb3"/></linearGradient></defs><g class="cls-2"><g id="sea_01"><g class="cls-3"><rect class="cls-4" y="277.63" width="1000" height="122.37"/><path class="cls-5" d="M915.75,400s-185.6011-4.9081-297.0865-11.7158c-173.7624-10.6105-215.07-42.3242-310.9472-50.661S40,345.0842,40,345.0842v9.0947s129.0808-10.3578,277.5872,3.7895S624.515,400,714.5674,400Z"/><path class="cls-6" d="M609.822,400s-147.09-6.3249-267.2372-21.9474C193.9532,358.7263,40,376.1579,40,376.1579v8.44s158.5976-19.0508,279.4333-6.4193S507.6374,397.0632,575.5673,400Z"/><path class="cls-7" d="M369.287,307.19c.15,1.7,36.9956,4.3413,41.0931,4.7368a144.2179,144.2179,0,0,0,16.3912.7459c5.6819-.0879,11.7864-.9922,17.47-1.5422,3.0449-.3,7.6283-.83,10.7159-.19a19.4114,19.4114,0,0,0,3.8675.81c2.2863.07,4.5833-.16,6.859-.05,2.0833.1,4.0491.76,6.1324.82a6.4148,6.4148,0,0,1,3.3975.53c1.3782.77,1.9871,2.28,3.28,3.07,1.923,1.16,5.8333,1.63,8.0662,1.7,2.4786.08,4.7009.77,7.2329.75,2.4894-.03,4.968-.01,7.4573-.01,3.2692-.01,6.282.74,9.4979.78a72.9543,72.9543,0,0,1,13.3654,1.28c8.0876,1.61,15.8119,1.73,24.0384,1.73,5.641,0,11.2821-.06,16.9231,0,1.9231.03,2.8526-.7,4.7756-.74,3.2906-.08,6.4423-1.67,9.6795-2.21,2.6389-.44,5.2351-1.01,7.8205-1.53,2.2116-.44,4.0171-1.51,6.4851-1.61,3.8888-.17,7.5.73,11.3247.81,12.0834.26,24.3911.37,36.4-.69,1.6667-.15,8.312-1.06,3.3975-2.58-2.2864-.71-4.968-.77-7.34-1.27-4.2094-.88-8.3867-1.96-12.6389-2.63-10.7265-1.67-22.1474-.66-32.5962-3.66a45.0381,45.0381,0,0,0-12.9273-2.1c-4.4231.04-8.6218-.8-12.9808-.76-5.032.05-10.0641-.01-15.0961.02-2.6389.02-5.0214-.68-7.65-.78-4.8718-.19-20.7051,1.12-18.2585-7.42,6.5064-1.7,13.8034-1.7,20.5021-1.63,4.6368.05,9.1881-.66,13.8141-.82,4.6688-.17,9.38.04,14.0491.04H589.53a73.4479,73.4479,0,0,1,13.1838,1.13c4.8931.86,9.765,1.73,14.1987,3.98a19.7708,19.7708,0,0,0,4.4017,1.71c2.7778.71,5.5556.79,8.4509,1.33,5.9615,1.12,11.9551,1.4,17.9059,2.84,4.2094,1.02,8.5791,1.7,12.5107,3.42a36.6154,36.6154,0,0,0,5.6624,2.21c2.82.62,6.2393-.08,9.156.02a26.8236,26.8236,0,0,1,7.0406,1.64,38.7616,38.7616,0,0,0,8.5256,1.33c7.0086.66,14.0278.74,21.015,1.42,4.2308.42,8.6111.85,12.874.99,2.9059.09,5.8012-.19,8.7072.02,5.4273.41,10.94,1.05,16.3461,1.64,6.7522.73,13.5791,2.12,20.3846,2.09a76.783,76.783,0,0,0,11.9552-.59c1.5812-.26,3.1517-.27,4.6795-.55a5.9845,5.9845,0,0,1,2.5534-.34c-2.4466-1.35-6.3889-.28-8.4295-2.14,4.5726-.84,9.3162-1.21,14.0385-1.77,6.7841-.82,13.4615-2.33,20.2777-3.03,2.5748-.27,5.0214-1.27,7.5535-1.47,2.3183-.19,4.562-.44,6.88-.66,2.1047-.2,4.1666.3,6.1005-.6,1.1538-.53,1.9443-1.51,3.2157-1.79,3.0128-.66,6.9338.42,9.84.98,2.9487.57,5.94,1.03,8.8568,1.72a28.4835,28.4835,0,0,0,4.7864,1.16c1.1965.08,2.4358-.07,3.6431-.02,1.7842.06,3.4188.58,5.203.75,1.688.15,10.7372,1.76,10.5235,4.41a17.724,17.724,0,0,0-6.3461,1.85c.3953,1.59,4.0384,1.51,5.4273,1.88,2.4893.66,4.9359,1.15,7.4573,1.72,4.8931,1.11,9.8611.72,14.8825.77,3.4081.03,6.9016-.54,10.2991-.84,3.1945-.28,6.5278-.68,9.6581-1.27,3.0128-.57,5.2564.28,8.141.62,1.0363.13,3.6432.3,3.9423-.61-3.8461-1.21-7.9166-1.79-11.7307-3.12a21.58,21.58,0,0,1-3.109-1.71,14.5839,14.5839,0,0,0-2.8846-.77c-.4274-1.59,6.3461-4.77,7.1688-5.13,6.891-2.96,15.5662-3.01,23.0449-3.17,10.235-.21,20.5127.58,30.6944,1.38,7.532.6,14.38,2.77,21.6346,4.76.0534-.01.1068-.01.15-.02V277.63H634.6581c-6.41.57-13.1089.53-19.391,1.59-3.9423.66-8.12.92-12.0085,1.99-1.1966.33-2.7137.6-3.8355,1.03-1.1859.46-2.1047,1.27-3.3761,1.68a37.5141,37.5141,0,0,1-7.1581,1.22c-4.7009.49-9.7757.52-14.5193.76-4.9145.25-9.8611.07-14.7756.05-6.0043-.02-11.891.75-17.8739.82-8.7286.1-17.468-.04-26.1859-.04-1.7415,0-3.6325.21-5.3525.04-1.4744-.15-2.7352-.77-4.2415-.83a47.2768,47.2768,0,0,0-8.1624.2c-2.703.37-5.1709.38-7.8847.54-1.8162.12-3.4508.77-5.2991.83-2.18.08-4.38-.14-6.57-.06-6.2714.22-12.965,2.2205-19.1616,3.1605-6.56.99-26.6158-.507-34.1093.4737,4.6559,1.6143,22.1491,1.6458,26.1342,1.6758a106.086,106.086,0,0,1,12.0619,1.19c1.2286.15,4.5833-.08,5.4594,1.07.6624.88-.8013,3.58-1.5491,4.44-1.6453,1.88-4.4231,2.24-6.8056,2.52a65.48,65.48,0,0,1-7.4038.7,58.7054,58.7054,0,0,1-6.2287-.73c-4.85-.51-9.9786-.07-14.8718-.07-3.5683.01-7.1794-.19-10.7371.06-1.8483.13-7.9925,1.085-10.027,1.085C382.7485,303.025,369.18,306.04,369.287,307.19Z"/><path class="cls-8" d="M0,277.63v50.79H1.0862c3.6054-.02,6.3787-1.2,9.7761-2.24a56.6577,56.6577,0,0,1,22.695-1.97c7.8809.74,15.0338,2.86,22.8569.98,3.86-.94,7.2569-2.65,11.22-3.43,3.7324-.73,7.5111-.66,11.2667-1.11a45.1154,45.1154,0,0,1,8.1351-.63c3.0622.15,5.9858.74,9.0827.81a83.3032,83.3032,0,0,1,11.2666.93c7.28,1.16,14.4906,2.84,21.944,2.89,4.9226.03,9.8569-.03,14.78-.03a198.4629,198.4629,0,0,0,21.6666-1.14c9.2213-1,19.032-.21,28.0569-2.26,3.016-.69,9.1173-1.8,3.3973-3.71-7.3262-2.45-17.2524-1.23-24.8906-1.23-4.784,0-9.58.08-14.3636.04-3.1315-.02-6.1245-.09-8.9787-1.37-2.7733-1.24-2.9466-3.27-.6124-5.12,5.096-4.03,13.9591-3.41,20.2453-3.4,8.84.02,17.2525-.61,26.0347-1.29,6.02-.47,11.1511-2.05,16.9751-3.3,3.3974-.72,6.8062-1.33,10.1342-2.24,1.6178-.45,4.2178-.92,5.8241-1.57,1.2133-.49,1.8373-1.46,2.97-2.06,3.4782-1.85,9.3716-2.12,13.208-2.33,4.992-.27,10.03-.39,14.9876-1.02,2.9-.37,6.5173-.6,9.2791-1.54,2.6115-.89,2.5769-2.88,5.0613-3.51,3.2818-.82,8.3547-1.52,11.7752-.78a15.5745,15.5745,0,0,0,3.1315.71c3.4551.2,6.8524-.39,10.2729-.61,11.5208-.73,23.25-.16,34.7937-.16q14.716,0,29.4436,0c5.1653,0,10.1573.81,15.3.77a131.648,131.648,0,0,0,14.7333-.77c9.048-1.08,18.096-.76,27.2249-.76-3.5938,2.75-.2543,1.95,1.34.02a7.7342,7.7342,0,0,0,1.3405-2.26c.3-1.13-.5894-2.61.1271-3.67.82-1.22,3.0853-1.55,4.4835-1.86,1.0284-.22,2.0569-.41,3.0969-.57Z"/><path class="cls-9" d="M438.5848,297.5746a241.9739,241.9739,0,0,0-45.3645-2.32c-5.4016.1939-10.7639.3936-16.094.9878-2.1392.2385-4.8938.2176-6.7584.962.3418.4739,2.4893.7055,3.427.8747a93.0517,93.0517,0,0,0,12.9781,1.0245c5.5154.1852,10.8653.5049,16.3969.5221,4.75.0147,9.3648-.4968,14.0912-.5394,4.9369-.0444,10.18.1554,14.9428-.5347C433.8912,298.307,438.3822,298.8087,438.5848,297.5746Z"/><path class="cls-10" d="M908.9006,329.5474a40.841,40.841,0,0,1,6.7448-1.1943c1.682-.0449,3.5821.04,5.2176.133,1.7855.1017,3.5726.2439,5.3534.3985.2606.0226,2.7615.04,3.2156.569-.505,1.0321-2.7387.7751-3.7514.9346a38.017,38.017,0,0,1-4.37.6524c-1.7683.0738-3.5354-.0349-5.3022.1055-3.0746.2445-6.1462.6788-9.2114.675-.8246-.0011-3.5929.414-2.729-.7586C905.2534,329.4531,909.2905,329.7917,908.9006,329.5474Z"/><path class="cls-11" d="M936.69,337.8842a153.5256,153.5256,0,0,1,24.4929.5977,97.4567,97.4567,0,0,1,13.8516,1.9693c1.0049.2392,4.202.614,4.6045,1.5259a26.9132,26.9132,0,0,1-3.3213.37c-1.9363.2552-3.9026.003-5.8476.0647a65.6246,65.6246,0,0,0-8.1791.8523c-3.3788.5476-6.6859,1.3925-10.127,1.7457a106.8558,106.8558,0,0,1-10.8417.4518,36.2176,36.2176,0,0,1-5.3059-.0829c-1.4978-.2248-3.0541-.0959-4.5245-.3594-1.414-.2534-3.5252-.7924-3.1938-2.3978.2885-1.3978,1.76-1.5789,2.93-2.1793C933.1357,339.4637,934.4819,339.4182,936.69,337.8842Z"/><path class="cls-12" d="M883.2164,341.2947c-3.1905-.2356-6.1476-.3591-9.3082-.3877-1.0159-.0092-3.3745.02-4.2023.6527-1.7131,1.3089,3.2634,2.0846,4.0187,2.1877,3.3768.4614,7.5685,1.3653,10.7535-.0852.635-.2892,1.8016-.6214,2.03-1.325.2486-.7678-.8-1.182-1.6071-1.0425Z"/><path class="cls-13" d="M769.1111,321.2105c3.1032-.5863,6.319-1.4634,9.5248-1.5314,2.2527-.0477,4.5945-.104,6.8446-.0039,1.7531.0779,3.4322.3438,5.2.3877,1.9458.0483,3.9528.3078,5.8925.4841a59.6,59.6,0,0,1,11.5453,1.7073,8.3094,8.3094,0,0,1,3.5489,1.98c1.1694,1.38.1018,2.9106-1.3185,3.7112-3.4547,1.9475-8.836,1.6077-12.7216,1.8873-4.0356.29-7.9808.8827-12.0127,1.23-1.5268.1315-2.9369.4-4.4846.3877-1.5552-.0128-3.11-.0088-4.6655-.0088-4.6563,0-9.68.3506-14.1082-1.2211-1.6592-.589-3.2624-3.17-3.3538-4.6489-.1516-2.4509,2.4334-3.0429,4.6349-3.5207,1.1348-.2463,2.2483-.5054,3.3684-.7566.5765-.1292,1.1084-.0369,1.6843-.1686C769.34,320.9777,769.6624,320.8185,769.1111,321.2105Z"/><path class="cls-14" d="M677.3216,320.8316c-2.8165-.386-5.6163-.5924-8.414-.9461-1.989-.2514-3.8959-.1031-5.88-.1712-1.092-.0374-2.1155-.306-3.1972-.38a26.7628,26.7628,0,0,0-3.9712.269c-2.1923.1682-4.3749.2657-6.56.5135-1.6984.1926-4.8008.3879-6.1011,1.6587-1.3146,1.2847,1.6787,2.1633,2.7874,2.37,1.89.353,3.7512.2836,5.6345.5114a19.4493,19.4493,0,0,0,3.8085.3612c1.4673-.0994,2.9211-.3254,4.4-.4333,1.885-.1375,3.8778-.1695,5.7454-.4171,2.53-.3353,5.0191-1.05,7.5362-1.4048a14.1944,14.1944,0,0,0,2.5353-.4171A3.0579,3.0579,0,0,0,677.3216,320.8316Z"/><path class="cls-15" d="M1000,277.63v8.0858s-118.6082,1.01-197.2047,0S671.4124,284.2,671.4124,284.2s88.1548-.31,117.6285-2.3026,40.3085-1.74,40.3085-1.74-509.0484-1.01-589.7661,0-198.0511,1.74-198.0511,1.74,229.9345.1775,296.6623.0026,333.2179,2.3,333.2179,2.3L0,286.17v-8.54Z"/><path class="cls-16" d="M679.0058,371.3449c1.5376.3383-91.3684,1.8186-96.6315,0S665.7427,368.4266,679.0058,371.3449Z"/><path class="cls-16" d="M573.4186,369.7884c2.5474.8438-23.1708,1.7863-28.9181-.2115S568.6733,368.2164,573.4186,369.7884Z"/><path class="cls-16" d="M675.1648,361.68c-.6935,1.0741-14.8527,1.2-15.0666,0S675.8582,360.6057,675.1648,361.68Z"/><path class="cls-17" d="M288.6907,345.52s-53.2614-2.9744-70.7772,0-41.168,4.9391-84.0656,5.0611-66.1323-9.6989-90.2165-11.7665A426.3125,426.3125,0,0,0,0,337.3078v7.7764s29.901-6.3316,62.0229.3789,24.6681,9.7264,64.3706,11.4948,74.4421-8.0983,95.461-9.86S276.4138,343.6829,288.6907,345.52Z"/><path class="cls-18" d="M920.2743,314.0105s29.1511,4.6421,29.6256,4.9263-39.1108-2.6526-39.23,0,12.7724,3.1576,12.8323,8.4946-124.13,16.5369-184.5492,18.089c0,0,39.7591,2.465,69.4071.8881s25.9778-4.1037,48.8855-7.3268,71.7729-5.852,79.5379-8.8605S913.415,320.699,912.23,319.62s40.61,1.6076,43.4929.5646S920.2743,314.0105,920.2743,314.0105Z"/></g></g></g></svg>