<?xml version="1.0" encoding="utf-8"?>
<!-- Generator: Adobe Illustrator 25.2.0, SVG Export Plug-In . SVG Version: 6.00 Build 0)  -->
<svg version="1.1" id="Layer_1" xmlns="http://www.w3.org/2000/svg" xmlns:xlink="http://www.w3.org/1999/xlink" x="0px" y="0px"
	 viewBox="0 0 351.3 73.5" style="enable-background:new 0 0 351.3 73.5;" xml:space="preserve">
<style type="text/css">
	.st0{fill:#141516;}
</style>
<g>
	<g id="v">
		<g>
			<path class="st0" d="M35.3,41.3c-3.7-8.4-5.6-12.7-9.3-21.2c2.8,0.4,4.1,0.6,6.9,1c2.6,6.5,3.9,9.7,6.5,16.1
				c5.1-5.6,7.7-8.4,12.8-14.1c2.8,0.2,4.1,0.3,6.9,0.5c-7.2,7.5-10.7,11.2-17.9,18.3c4.3,8.1,6.5,12.1,10.9,20
				c-2.8-0.2-4.2-0.3-6.9-0.6c-3.1-6-4.7-9-7.8-15.1c-1.1,1-2.2,2-3.4,3c-1.2,1.1-2.3,2.1-3.5,3.2s-2.4,2.1-3.6,3.2
				c-1.2,1-2.3,2-3.4,3c-2.8-0.5-4.1-0.7-6.9-1.2C24.1,51.1,27.8,47.9,35.3,41.3z"/>
			<path class="st0" d="M59,62.3c2.7-12.8,5.5-25.6,8.2-38.4c6.7,0.3,10.1,0.3,16.8,0.4c2.4,0,4.4,0.1,5.9,0.4
				c1.6,0.2,2.8,0.7,3.7,1.5c0.9,0.8,1.4,1.8,1.6,3.2c0.2,1.4,0.2,3.3-0.3,5.6c-0.7,3.6-2.5,6.4-5.1,8.4c-2.6,1.9-6.1,2.9-10.5,2.8
				c-4.3-0.1-6.5-0.1-10.8-0.3c-1.4,6.7-2.2,10.1-3.6,16.8C62.6,62.5,61.4,62.4,59,62.3z M69.8,40.4c5,0.2,7.5,0.2,12.6,0.3
				c4.1-0.1,6.5-1.9,7.3-5.6c0.1-0.3,0.1-0.4,0.2-0.6c0.2-0.9,0.2-1.6,0.1-2.2c-0.1-0.6-0.3-1.1-0.8-1.4s-1-0.6-1.7-0.8
				c-0.7-0.2-1.7-0.2-2.8-0.2c-5,0-7.5,0-12.6-0.2C71.2,33.9,70.7,36,69.8,40.4z"/>
			<path class="st0" d="M109.7,23.8c-2.3,11.2-4.6,22.3-7,33.5c8.2-0.2,12.4-0.4,20.6-0.9c-0.1,0.5-0.2,1-0.3,1.5
				c-0.1,0.5-0.2,0.9-0.3,1.3c-0.1,0.4-0.2,0.9-0.3,1.3c-0.1,0.4-0.2,0.9-0.3,1.4c-10.7,0.6-16,0.8-26.7,1c0.7-3.3,1.4-6.6,2.1-9.8
				c0.7-3.2,1.4-6.4,2-9.6c0.7-3.2,1.3-6.4,2-9.6c0.7-3.2,1.4-6.5,2.1-9.8C106.2,24,107.4,23.9,109.7,23.8z"/>
			<path class="st0" d="M132.5,41.9c1.2-5.6,4-10.4,8.3-14.5c4.4-4,9.3-6.3,14.8-6.8c5.5-0.5,9.7,1,12.5,4.4c2.8,3.4,3.6,8,2.4,13.6
				c-1.2,5.6-4,10.5-8.3,14.6c-2.2,2-4.5,3.6-7,4.8c-2.5,1.1-5.1,1.8-7.8,2c-5.5,0.4-9.7-1.1-12.5-4.6
				C132.2,52.1,131.4,47.5,132.5,41.9z M148.6,54.6c4-0.3,7.4-2,10.4-5c1.5-1.5,2.7-3.1,3.6-4.8c0.9-1.7,1.6-3.6,2-5.6
				c0.4-2,0.5-3.8,0.3-5.4c-0.2-1.6-0.8-3.1-1.7-4.3c-1.8-2.6-4.7-3.7-8.7-3.3c-4,0.3-7.4,2-10.3,4.9c-1.5,1.5-2.7,3-3.6,4.8
				c-0.9,1.7-1.6,3.6-2,5.5c-0.4,2-0.5,3.8-0.3,5.4c0.2,1.6,0.8,3.1,1.7,4.4C141.8,53.8,144.7,54.9,148.6,54.6z"/>
			<path class="st0" d="M176.4,40.6c0.5-2.2,0.7-3.3,1.2-5.5c7.4-0.7,11.2-1,18.6-1.7c4-0.5,6.6-2.6,7.4-6.3c0.7-3.3-1.1-5.1-5-4.9
				c-3.1,0.2-6.3,0.6-9.3,0.9c-3.1,0.3-6.2,0.6-9.3,0.9c0.5-2.2,0.7-3.4,1.2-5.6c6.7-0.6,10.1-0.9,16.8-1.6c8.8-0.8,12.5,2.5,11,9.7
				c-0.6,2.8-1.7,5.1-3.4,7c-1.7,1.9-4,3.4-6.9,4.6c2.5,6.7,3.8,10.1,6.3,16.9c-2.8,0.2-4.1,0.4-6.9,0.6c-2.5-6.6-3.7-9.8-6.2-16.4
				C185.5,39.8,182.5,40,176.4,40.6z"/>
			<path class="st0" d="M211,48.9c2.4-0.2,4.8-0.4,7.1-0.6c2.3-0.2,4.6-0.3,6.9-0.5c2.3-0.2,4.6-0.3,6.9-0.5c2.3-0.1,4.6-0.3,7-0.4
				c-0.5,2.2-0.7,3.3-1.1,5.5c-11.2,0.7-16.7,1.1-27.9,2.1C210.3,52.3,210.5,51.2,211,48.9z M213.4,37.2c0.5-2.2,0.7-3.3,1.2-5.6
				c2-0.2,3.9-0.3,5.7-0.4c1.9-0.1,3.7-0.3,5.5-0.4c1.8-0.1,3.7-0.3,5.5-0.4c1.8-0.1,3.7-0.2,5.7-0.4c-0.5,2.2-0.7,3.3-1.2,5.5
				C226.9,36.2,222.4,36.5,213.4,37.2z M216.9,20.6c0.5-2.2,0.7-3.3,1.2-5.5c2.4-0.2,4.8-0.4,7.1-0.5c2.3-0.2,4.6-0.3,6.9-0.5
				c2.3-0.2,4.6-0.3,6.9-0.4c2.3-0.1,4.7-0.3,7.1-0.4c-0.5,2.2-0.7,3.3-1.2,5.5C235.5,19.2,226.2,19.8,216.9,20.6z"/>
			<path class="st0" d="M284.9,11.4c3.9,0.1,6.8,1.2,8.8,3.1c1.9,1.9,2.6,4.7,1.8,8.4c-1,4.6-3.7,8.7-8,12.4
				c-2.2,1.9-4.3,3.5-6.1,4.8c-1.8,1.3-3.5,2.3-5,3c0,0.8,0,1.1,0.1,1.9c5.5,0,8.3,0,13.8,0.2c-0.5,2.5-0.8,3.7-1.3,6.1
				c-10.2-0.3-15.3-0.3-25.5,0c0.5-2.4,0.8-3.6,1.3-6c1.2-0.4,2.8-1.3,4.7-2.6c1.9-1.3,4.3-3,7.1-5.1c3.2-2.4,5.8-4.4,7.7-6.1
				c1.9-1.7,3.2-3.1,3.9-4.1c0.7-1.1,1.1-2.2,1.4-3.2c0.1-0.6,0.2-1.2,0.2-1.8c0-0.6-0.1-1.2-0.2-1.8c-0.6-2.4-3-3.6-7-3.7
				c-1.1,0-2.3,0.2-3.5,0.7c-1.2,0.5-2.4,1.4-3.6,2.4c-2.1,0-3.1,0-5.2,0c0.7-1.6,1.6-2.9,2.6-4.1c1-1.1,2.2-2,3.4-2.7
				c1.4-0.7,2.9-1.2,4.4-1.6C282.2,11.5,283.6,11.3,284.9,11.4C284.9,11.4,284.9,11.4,284.9,11.4z"/>
			<path class="st0" d="M318.6,13.3c3.9,0.4,6.8,1.7,8.8,3.9c1.9,2.1,2.6,5,1.8,8.6c-1,4.5-3.7,8.3-8,11.7c-2.2,1.7-4.3,3.2-6.1,4.3
				c-1.8,1.2-3.5,2-5,2.6c0,0.8,0,1.2,0.1,1.9c5.5,0.4,8.3,0.7,13.8,1.4c-0.5,2.4-0.8,3.6-1.3,6c-10.2-1.2-15.3-1.5-25.5-2
				c0.5-2.4,0.8-3.5,1.3-5.9c1.2-0.4,2.8-1.1,4.7-2.3c1.9-1.1,4.3-2.7,7.1-4.5c3.2-2.1,5.8-4,7.7-5.5c1.9-1.5,3.2-2.8,3.9-3.8
				c0.7-1,1.1-2.1,1.4-3.1c0.1-0.6,0.2-1.2,0.2-1.8c0-0.6-0.1-1.2-0.2-1.8c-0.6-2.5-3-3.9-7-4.3c-1.1-0.1-2.3,0-3.5,0.5
				c-1.2,0.4-2.4,1.2-3.6,2.2c-2.1-0.2-3.1-0.2-5.2-0.4c0.7-1.5,1.6-2.8,2.6-3.9c1-1.1,2.2-1.9,3.4-2.4c1.4-0.6,2.9-1,4.4-1.3
				C315.8,13.2,317.2,13.2,318.6,13.3C318.6,13.3,318.6,13.3,318.6,13.3z"/>
			<path class="st0" d="M339.6,24.2c1.4-0.6,2.8-2,4.2-4.2c-0.8-0.1-1.1-0.2-1.9-0.3c-0.9-0.2-1.6-0.5-2.1-1.2
				c-0.4-0.6-0.6-1.3-0.4-2.1c0.2-0.8,0.6-1.4,1.2-1.8c0.7-0.4,1.4-0.6,2.4-0.4c1,0.2,1.7,0.6,2.2,1.2c0.4,0.6,0.6,1.3,0.4,2.1
				c0,0.1,0,0.1-0.1,0.2c-0.4,1.8-1.1,3.2-2,4.4c-0.9,1.2-2.2,2.1-3.8,2.7C339.8,24.5,339.7,24.4,339.6,24.2z"/>
		</g>
	</g>
</g>
</svg>
