<svg xmlns="http://www.w3.org/2000/svg" xmlns:xlink="http://www.w3.org/1999/xlink" width="841.5476" height="179.9101" viewBox="0 0 841.5476 179.9101"><defs><style>.cls-1{fill:none;}.cls-2{isolation:isolate;}.cls-3{clip-path:url(#clip-path);}.cls-100,.cls-101,.cls-102,.cls-103,.cls-104,.cls-105,.cls-106,.cls-107,.cls-108,.cls-109,.cls-110,.cls-111,.cls-112,.cls-113,.cls-114,.cls-115,.cls-116,.cls-117,.cls-118,.cls-119,.cls-120,.cls-121,.cls-122,.cls-123,.cls-124,.cls-125,.cls-126,.cls-127,.cls-128,.cls-129,.cls-130,.cls-131,.cls-132,.cls-133,.cls-134,.cls-135,.cls-136,.cls-137,.cls-138,.cls-139,.cls-140,.cls-141,.cls-142,.cls-143,.cls-144,.cls-145,.cls-146,.cls-147,.cls-148,.cls-149,.cls-150,.cls-151,.cls-152,.cls-153,.cls-154,.cls-155,.cls-156,.cls-157,.cls-158,.cls-159,.cls-160,.cls-161,.cls-162,.cls-163,.cls-164,.cls-165,.cls-166,.cls-167,.cls-17,.cls-18,.cls-19,.cls-20,.cls-21,.cls-22,.cls-23,.cls-24,.cls-25,.cls-26,.cls-27,.cls-28,.cls-29,.cls-30,.cls-31,.cls-32,.cls-33,.cls-34,.cls-35,.cls-36,.cls-37,.cls-38,.cls-39,.cls-4,.cls-40,.cls-41,.cls-42,.cls-43,.cls-44,.cls-45,.cls-46,.cls-47,.cls-48,.cls-49,.cls-5,.cls-50,.cls-51,.cls-52,.cls-53,.cls-54,.cls-55,.cls-56,.cls-57,.cls-58,.cls-59,.cls-60,.cls-61,.cls-62,.cls-63,.cls-64,.cls-65,.cls-66,.cls-67,.cls-68,.cls-69,.cls-70,.cls-71,.cls-72,.cls-73,.cls-74,.cls-75,.cls-76,.cls-77,.cls-78,.cls-79,.cls-80,.cls-81,.cls-82,.cls-83,.cls-84,.cls-85,.cls-86,.cls-87,.cls-88,.cls-89,.cls-90,.cls-91,.cls-92,.cls-93,.cls-94,.cls-95,.cls-96,.cls-97,.cls-98,.cls-99{fill-rule:evenodd;}.cls-4{fill:url(#Áåçûìÿííûé_ãðàäèåíò_39);}.cls-5{fill:url(#Áåçûìÿííûé_ãðàäèåíò_15);}.cls-104,.cls-110,.cls-116,.cls-122,.cls-128,.cls-13,.cls-134,.cls-14,.cls-140,.cls-15,.cls-161,.cls-38,.cls-54,.cls-58,.cls-6,.cls-66,.cls-7,.cls-70,.cls-74,.cls-78,.cls-82,.cls-86,.cls-92,.cls-98{mix-blend-mode:screen;}.cls-6{fill:url(#Áåçûìÿííûé_ãðàäèåíò_61);}.cls-7{fill:url(#Áåçûìÿííûé_ãðàäèåíò_61-2);}.cls-8{fill:#efbbd4;opacity:0.5;}.cls-10,.cls-11,.cls-12,.cls-142,.cls-150,.cls-151,.cls-159,.cls-16,.cls-162,.cls-163,.cls-164,.cls-165,.cls-166,.cls-39,.cls-43,.cls-44,.cls-45,.cls-46,.cls-48,.cls-49,.cls-50,.cls-55,.cls-8,.cls-9{mix-blend-mode:multiply;}.cls-9{fill:url(#Áåçûìÿííûé_ãðàäèåíò_73);}.cls-10{fill:url(#Áåçûìÿííûé_ãðàäèåíò_76);}.cls-11{fill:url(#Áåçûìÿííûé_ãðàäèåíò_73-2);}.cls-12{fill:url(#Áåçûìÿííûé_ãðàäèåíò_76-2);}.cls-13{fill:url(#Áåçûìÿííûé_ãðàäèåíò_99);}.cls-14{fill:url(#Áåçûìÿííûé_ãðàäèåíò_101);}.cls-15{fill:url(#Áåçûìÿííûé_ãðàäèåíò_99-2);}.cls-142,.cls-16{opacity:0.71;}.cls-16{fill:url(#Áåçûìÿííûé_ãðàäèåíò_504);}.cls-17{fill:url(#Áåçûìÿííûé_ãðàäèåíò_317);}.cls-18{fill:url(#Áåçûìÿííûé_ãðàäèåíò_324);}.cls-19{fill:url(#Áåçûìÿííûé_ãðàäèåíò_253);}.cls-20{fill:url(#Áåçûìÿííûé_ãðàäèåíò_106);}.cls-21{fill:#ecd9ca;}.cls-22{fill:url(#Áåçûìÿííûé_ãðàäèåíò_106-2);}.cls-23{fill:url(#Áåçûìÿííûé_ãðàäèåíò_333);}.cls-24{fill:url(#Áåçûìÿííûé_ãðàäèåíò_307);}.cls-25{fill:url(#Áåçûìÿííûé_ãðàäèåíò_313);}.cls-26{fill:url(#Áåçûìÿííûé_ãðàäèåíò_262);}.cls-27{fill:url(#Áåçûìÿííûé_ãðàäèåíò_331);}.cls-28{fill:url(#Áåçûìÿííûé_ãðàäèåíò_262-2);}.cls-29{fill:#9b8a8d;}.cls-30{fill:url(#Áåçûìÿííûé_ãðàäèåíò_311);}.cls-31{fill:url(#Áåçûìÿííûé_ãðàäèåíò_262-3);}.cls-32{fill:url(#Áåçûìÿííûé_ãðàäèåíò_262-4);}.cls-33{fill:url(#Áåçûìÿííûé_ãðàäèåíò_296);}.cls-34{fill:url(#Áåçûìÿííûé_ãðàäèåíò_308);}.cls-35{fill:url(#Áåçûìÿííûé_ãðàäèåíò_327);}.cls-36{fill:url(#Áåçûìÿííûé_ãðàäèåíò_327-2);}.cls-37{fill:url(#Áåçûìÿííûé_ãðàäèåíò_327-3);}.cls-38{fill:url(#Áåçûìÿííûé_ãðàäèåíò_706);}.cls-159,.cls-39,.cls-43,.cls-45,.cls-46,.cls-49,.cls-50,.cls-55{opacity:0.6;}.cls-39{fill:url(#Áåçûìÿííûé_ãðàäèåíò_154);}.cls-40{fill:url(#Áåçûìÿííûé_ãðàäèåíò_327-4);}.cls-41{fill:url(#Áåçûìÿííûé_ãðàäèåíò_308-2);}.cls-42{fill:#624d52;}.cls-43{fill:url(#Áåçûìÿííûé_ãðàäèåíò_154-2);}.cls-44,.cls-48{opacity:0.18;}.cls-44{fill:url(#Áåçûìÿííûé_ãðàäèåíò_154-3);}.cls-45{fill:#caa4ca;}.cls-46{fill:url(#Áåçûìÿííûé_ãðàäèåíò_362);}.cls-47{fill:url(#Áåçûìÿííûé_ãðàäèåíò_308-3);}.cls-48{fill:url(#Áåçûìÿííûé_ãðàäèåíò_154-4);}.cls-49{fill:url(#Áåçûìÿííûé_ãðàäèåíò_221);}.cls-50{fill:url(#Áåçûìÿííûé_ãðàäèåíò_343);}.cls-51{fill:#f1e3d8;}.cls-52{fill:#d3b4a7;}.cls-53{fill:url(#Áåçûìÿííûé_ãðàäèåíò_308-4);}.cls-54{fill:url(#Áåçûìÿííûé_ãðàäèåíò_706-2);}.cls-55{fill:url(#Áåçûìÿííûé_ãðàäèåíò_221-2);}.cls-56{fill:url(#Áåçûìÿííûé_ãðàäèåíò_565);}.cls-57{fill:url(#Áåçûìÿííûé_ãðàäèåíò_565-2);}.cls-58{fill:url(#Áåçûìÿííûé_ãðàäèåíò_328);}.cls-59{fill:url(#Áåçûìÿííûé_ãðàäèåíò_443);}.cls-60{fill:url(#Áåçûìÿííûé_ãðàäèåíò_65);}.cls-61{fill:#ffa83b;}.cls-62{fill:#ffdf36;}.cls-63{fill:url(#Áåçûìÿííûé_ãðàäèåíò_468);}.cls-64{fill:url(#Áåçûìÿííûé_ãðàäèåíò_440);}.cls-65{fill:#ffff54;}.cls-66{fill:url(#Áåçûìÿííûé_ãðàäèåíò_436);}.cls-67{fill:url(#Áåçûìÿííûé_ãðàäèåíò_440-2);}.cls-68{fill:url(#Áåçûìÿííûé_ãðàäèåíò_451);}.cls-69{fill:url(#Áåçûìÿííûé_ãðàäèåíò_448);}.cls-70{fill:url(#Áåçûìÿííûé_ãðàäèåíò_436-2);}.cls-71{fill:url(#Áåçûìÿííûé_ãðàäèåíò_440-3);}.cls-72{fill:url(#Áåçûìÿííûé_ãðàäèåíò_451-2);}.cls-73{fill:url(#Áåçûìÿííûé_ãðàäèåíò_448-2);}.cls-74{fill:url(#Áåçûìÿííûé_ãðàäèåíò_436-3);}.cls-75{fill:url(#Áåçûìÿííûé_ãðàäèåíò_440-4);}.cls-76{fill:url(#Áåçûìÿííûé_ãðàäèåíò_451-3);}.cls-77{fill:url(#Áåçûìÿííûé_ãðàäèåíò_448-3);}.cls-78{fill:url(#Áåçûìÿííûé_ãðàäèåíò_436-4);}.cls-79{fill:url(#Áåçûìÿííûé_ãðàäèåíò_440-5);}.cls-80{fill:url(#Áåçûìÿííûé_ãðàäèåíò_451-4);}.cls-81{fill:url(#Áåçûìÿííûé_ãðàäèåíò_448-4);}.cls-82{fill:url(#Áåçûìÿííûé_ãðàäèåíò_436-5);}.cls-83{fill:url(#Áåçûìÿííûé_ãðàäèåíò_440-6);}.cls-84{fill:url(#Áåçûìÿííûé_ãðàäèåíò_451-5);}.cls-85{fill:url(#Áåçûìÿííûé_ãðàäèåíò_448-5);}.cls-86{fill:url(#Áåçûìÿííûé_ãðàäèåíò_436-6);}.cls-87{fill:url(#Áåçûìÿííûé_ãðàäèåíò_440-7);}.cls-88{fill:url(#Áåçûìÿííûé_ãðàäèåíò_443-2);}.cls-89{fill:url(#Áåçûìÿííûé_ãðàäèåíò_65-2);}.cls-90{fill:url(#Áåçûìÿííûé_ãðàäèåíò_468-2);}.cls-91{fill:url(#Áåçûìÿííûé_ãðàäèåíò_440-8);}.cls-92{fill:url(#Áåçûìÿííûé_ãðàäèåíò_436-7);}.cls-93{fill:url(#Áåçûìÿííûé_ãðàäèåíò_440-9);}.cls-94{fill:url(#Áåçûìÿííûé_ãðàäèåíò_443-3);}.cls-95{fill:url(#Áåçûìÿííûé_ãðàäèåíò_65-3);}.cls-96{fill:url(#Áåçûìÿííûé_ãðàäèåíò_468-3);}.cls-97{fill:url(#Áåçûìÿííûé_ãðàäèåíò_440-10);}.cls-98{fill:url(#Áåçûìÿííûé_ãðàäèåíò_436-8);}.cls-99{fill:url(#Áåçûìÿííûé_ãðàäèåíò_440-11);}.cls-100{fill:url(#Áåçûìÿííûé_ãðàäèåíò_443-4);}.cls-101{fill:url(#Áåçûìÿííûé_ãðàäèåíò_65-4);}.cls-102{fill:url(#Áåçûìÿííûé_ãðàäèåíò_468-4);}.cls-103{fill:url(#Áåçûìÿííûé_ãðàäèåíò_440-12);}.cls-104{fill:url(#Áåçûìÿííûé_ãðàäèåíò_436-9);}.cls-105{fill:url(#Áåçûìÿííûé_ãðàäèåíò_440-13);}.cls-106{fill:url(#Áåçûìÿííûé_ãðàäèåíò_443-5);}.cls-107{fill:url(#Áåçûìÿííûé_ãðàäèåíò_65-5);}.cls-108{fill:url(#Áåçûìÿííûé_ãðàäèåíò_468-5);}.cls-109{fill:url(#Áåçûìÿííûé_ãðàäèåíò_440-14);}.cls-110{fill:url(#Áåçûìÿííûé_ãðàäèåíò_436-10);}.cls-111{fill:url(#Áåçûìÿííûé_ãðàäèåíò_440-15);}.cls-112{fill:url(#Áåçûìÿííûé_ãðàäèåíò_443-6);}.cls-113{fill:url(#Áåçûìÿííûé_ãðàäèåíò_65-6);}.cls-114{fill:url(#Áåçûìÿííûé_ãðàäèåíò_468-6);}.cls-115{fill:url(#Áåçûìÿííûé_ãðàäèåíò_440-16);}.cls-116{fill:url(#Áåçûìÿííûé_ãðàäèåíò_436-11);}.cls-117{fill:url(#Áåçûìÿííûé_ãðàäèåíò_440-17);}.cls-118{fill:url(#Áåçûìÿííûé_ãðàäèåíò_443-7);}.cls-119{fill:url(#Áåçûìÿííûé_ãðàäèåíò_65-7);}.cls-120{fill:url(#Áåçûìÿííûé_ãðàäèåíò_468-7);}.cls-121{fill:url(#Áåçûìÿííûé_ãðàäèåíò_440-18);}.cls-122{fill:url(#Áåçûìÿííûé_ãðàäèåíò_436-12);}.cls-123{fill:url(#Áåçûìÿííûé_ãðàäèåíò_440-19);}.cls-124{fill:url(#Áåçûìÿííûé_ãðàäèåíò_457);}.cls-125{fill:url(#Áåçûìÿííûé_ãðàäèåíò_65-8);}.cls-126{fill:url(#Áåçûìÿííûé_ãðàäèåíò_468-8);}.cls-127{fill:url(#Áåçûìÿííûé_ãðàäèåíò_440-20);}.cls-128{fill:url(#Áåçûìÿííûé_ãðàäèåíò_436-13);}.cls-129{fill:url(#Áåçûìÿííûé_ãðàäèåíò_440-21);}.cls-130{fill:url(#Áåçûìÿííûé_ãðàäèåíò_443-8);}.cls-131{fill:url(#Áåçûìÿííûé_ãðàäèåíò_65-9);}.cls-132{fill:url(#Áåçûìÿííûé_ãðàäèåíò_468-9);}.cls-133{fill:url(#Áåçûìÿííûé_ãðàäèåíò_440-22);}.cls-134{fill:url(#Áåçûìÿííûé_ãðàäèåíò_436-14);}.cls-135{fill:url(#Áåçûìÿííûé_ãðàäèåíò_440-23);}.cls-136{fill:url(#Áåçûìÿííûé_ãðàäèåíò_443-9);}.cls-137{fill:url(#Áåçûìÿííûé_ãðàäèåíò_65-10);}.cls-138{fill:url(#Áåçûìÿííûé_ãðàäèåíò_468-10);}.cls-139{fill:url(#Áåçûìÿííûé_ãðàäèåíò_440-24);}.cls-140{fill:url(#Áåçûìÿííûé_ãðàäèåíò_436-15);}.cls-141{fill:url(#Áåçûìÿííûé_ãðàäèåíò_440-25);}.cls-142{fill:url(#Áåçûìÿííûé_ãðàäèåíò_504-2);}.cls-143{fill:url(#Áåçûìÿííûé_ãðàäèåíò_24);}.cls-144{fill:url(#Áåçûìÿííûé_ãðàäèåíò_40);}.cls-145{fill:url(#Áåçûìÿííûé_ãðàäèåíò_40-2);}.cls-146{fill:url(#Áåçûìÿííûé_ãðàäèåíò_40-3);}.cls-147{fill:url(#Áåçûìÿííûé_ãðàäèåíò_46);}.cls-148{fill:url(#Áåçûìÿííûé_ãðàäèåíò_46-2);}.cls-149{fill:url(#Áåçûìÿííûé_ãðàäèåíò_46-3);}.cls-150{fill:url(#Áåçûìÿííûé_ãðàäèåíò_367);}.cls-151{fill:url(#Áåçûìÿííûé_ãðàäèåíò_367-2);}.cls-152{fill:#ffb565;}.cls-153{fill:url(#Áåçûìÿííûé_ãðàäèåíò_218);}.cls-154{fill:#ffb446;}.cls-155{fill:url(#Áåçûìÿííûé_ãðàäèåíò_253-2);}.cls-156{fill:url(#Áåçûìÿííûé_ãðàäèåíò_106-3);}.cls-157{fill:url(#Áåçûìÿííûé_ãðàäèåíò_511);}.cls-158{fill:url(#Áåçûìÿííûé_ãðàäèåíò_262-5);}.cls-159{fill:url(#Áåçûìÿííûé_ãðàäèåíò_154-5);}.cls-160{fill:#a15952;}.cls-161{fill:url(#Áåçûìÿííûé_ãðàäèåíò_122);}.cls-162,.cls-163,.cls-164,.cls-165,.cls-166{opacity:0.2;}.cls-162{fill:url(#Áåçûìÿííûé_ãðàäèåíò_504-3);}.cls-163{fill:url(#Áåçûìÿííûé_ãðàäèåíò_504-4);}.cls-164{fill:url(#Áåçûìÿííûé_ãðàäèåíò_504-5);}.cls-165{fill:url(#Áåçûìÿííûé_ãðàäèåíò_504-6);}.cls-166{fill:url(#Áåçûìÿííûé_ãðàäèåíò_504-7);}.cls-167{fill:url(#Áåçûìÿííûé_ãðàäèåíò_143);}</style><clipPath id="clip-path" transform="translate(-125.5062 -220.5007)"><rect class="cls-1" width="1000" height="400"/></clipPath><radialGradient id="Áåçûìÿííûé_ãðàäèåíò_39" cx="528.2683" cy="80750.1823" r="642.9367" gradientTransform="translate(0 -7239.0469) scale(1 0.0941)" gradientUnits="userSpaceOnUse"><stop offset="0.3101" stop-color="#ccd89c"/><stop offset="0.47" stop-color="#a7dbaf"/><stop offset="0.691" stop-color="#7adfc6"/><stop offset="0.8622" stop-color="#5ee1d4"/><stop offset="0.9615" stop-color="#54e2d9"/></radialGradient><linearGradient id="Áåçûìÿííûé_ãðàäèåíò_15" x1="575.25" y1="400.41" x2="575.25" y2="338.0444" gradientUnits="userSpaceOnUse"><stop offset="0" stop-color="#fabb52"/><stop offset="0.624" stop-color="#fed66b"/><stop offset="1" stop-color="#ffe075"/></linearGradient><linearGradient id="Áåçûìÿííûé_ãðàäèåíò_61" x1="334.6039" y1="400.045" x2="334.6039" y2="341.0106" gradientUnits="userSpaceOnUse"><stop offset="0.0056" stop-color="#a7f6bd"/><stop offset="1"/></linearGradient><linearGradient id="Áåçûìÿííûé_ãðàäèåíò_61-2" x1="807.6209" y1="399.6908" x2="807.6209" y2="343.5142" xlink:href="#Áåçûìÿííûé_ãðàäèåíò_61"/><linearGradient id="Áåçûìÿííûé_ãðàäèåíò_73" x1="321.6178" y1="388.2313" x2="651.8805" y2="388.2313" gradientUnits="userSpaceOnUse"><stop offset="0" stop-color="#fecaad"/><stop offset="0.2082" stop-color="#fed7c1"/><stop offset="0.7307" stop-color="#fff4ee"/><stop offset="0.9944" stop-color="#fff"/></linearGradient><linearGradient id="Áåçûìÿííûé_ãðàäèåíò_76" x1="578.2745" y1="373.1575" x2="709.6947" y2="373.1575" gradientUnits="userSpaceOnUse"><stop offset="0.0056" stop-color="#fff"/><stop offset="0.2693" stop-color="#fff4ee"/><stop offset="0.7918" stop-color="#fed7c1"/><stop offset="1" stop-color="#fecaad"/></linearGradient><linearGradient id="Áåçûìÿííûé_ãðàäèåíò_73-2" x1="352.849" y1="370.4574" x2="414.8755" y2="370.4574" xlink:href="#Áåçûìÿííûé_ãðàäèåíò_73"/><linearGradient id="Áåçûìÿííûé_ãðàäèåíò_76-2" x1="425.7601" y1="395.6018" x2="746.0006" y2="395.6018" xlink:href="#Áåçûìÿííûé_ãðàäèåíò_76"/><linearGradient id="Áåçûìÿííûé_ãðàäèåíò_99" x1="326.7485" y1="389.6129" x2="473.897" y2="389.6129" gradientUnits="userSpaceOnUse"><stop offset="0"/><stop offset="0.9944" stop-color="#d36339"/></linearGradient><linearGradient id="Áåçûìÿííûé_ãðàäèåíò_101" x1="368.7621" y1="369.7637" x2="438.0105" y2="369.7637" gradientUnits="userSpaceOnUse"><stop offset="0.0056" stop-color="#d36339"/><stop offset="1"/></linearGradient><linearGradient id="Áåçûìÿííûé_ãðàäèåíò_99-2" x1="535.5988" y1="392.2822" x2="726.3861" y2="392.2822" xlink:href="#Áåçûìÿííûé_ãðàäèåíò_99"/><linearGradient id="Áåçûìÿííûé_ãðàäèåíò_504" x1="547.8744" y1="354.9326" x2="689.5248" y2="354.9326" gradientUnits="userSpaceOnUse"><stop offset="0.0056" stop-color="#e39574"/><stop offset="0.4374" stop-color="#d38f85"/><stop offset="1" stop-color="#b984a2"/></linearGradient><linearGradient id="Áåçûìÿííûé_ãðàäèåíò_317" x1="610.3272" y1="360.3476" x2="610.3272" y2="322.657" gradientUnits="userSpaceOnUse"><stop offset="0" stop-color="#d45942"/><stop offset="1" stop-color="#ff8a36"/></linearGradient><linearGradient id="Áåçûìÿííûé_ãðàäèåíò_324" x1="632.049" y1="360.2464" x2="632.049" y2="322.8744" gradientUnits="userSpaceOnUse"><stop offset="0" stop-color="#ab3c3e"/><stop offset="1" stop-color="#c54919"/></linearGradient><linearGradient id="Áåçûìÿííûé_ãðàäèåíò_253" x1="571.4747" y1="356.1357" x2="650.4417" y2="356.1357" gradientUnits="userSpaceOnUse"><stop offset="0" stop-color="#e5ccae"/><stop offset="1" stop-color="#907c7e"/></linearGradient><linearGradient id="Áåçûìÿííûé_ãðàäèåíò_106" x1="584.983" y1="360.0222" x2="584.983" y2="321.0609" gradientUnits="userSpaceOnUse"><stop offset="0" stop-color="#907c7e"/><stop offset="1" stop-color="#e5ccae"/></linearGradient><linearGradient id="Áåçûìÿííûé_ãðàäèåíò_106-2" x1="630.9465" y1="360.9113" x2="630.9465" y2="320.5673" xlink:href="#Áåçûìÿííûé_ãðàäèåíò_106"/><linearGradient id="Áåçûìÿííûé_ãðàäèåíò_333" x1="588.2383" y1="360.0225" x2="588.2383" y2="321.3905" gradientUnits="userSpaceOnUse"><stop offset="0" stop-color="#6d5472"/><stop offset="1" stop-color="#9f7767"/></linearGradient><linearGradient id="Áåçûìÿííûé_ãðàäèåíò_307" x1="579.2291" y1="356.4327" x2="611.9322" y2="356.4327" gradientUnits="userSpaceOnUse"><stop offset="0" stop-color="#b0958c"/><stop offset="1" stop-color="#978588"/></linearGradient><linearGradient id="Áåçûìÿííûé_ãðàäèåíò_313" x1="580.7078" y1="336.364" x2="614.5194" y2="336.364" gradientUnits="userSpaceOnUse"><stop offset="0" stop-color="#ccbba7"/><stop offset="1" stop-color="#b2a5a7"/></linearGradient><linearGradient id="Áåçûìÿííûé_ãðàäèåíò_262" x1="455.2016" y1="118.8657" x2="487.8081" y2="118.8657" gradientUnits="userSpaceOnUse"><stop offset="0" stop-color="#9f7767"/><stop offset="1" stop-color="#7a637e"/></linearGradient><linearGradient id="Áåçûìÿííûé_ãðàäèåíò_331" x1="640.5858" y1="360.0225" x2="640.5858" y2="323.2854" gradientUnits="userSpaceOnUse"><stop offset="0" stop-color="#6d3d45"/><stop offset="1" stop-color="#63506f"/></linearGradient><linearGradient id="Áåçûìÿííûé_ãðàäèåíò_262-2" x1="620.1806" y1="356.872" x2="646.0864" y2="356.872" xlink:href="#Áåçûìÿííûé_ãðàäèåíò_262"/><linearGradient id="Áåçûìÿííûé_ãðàäèåíò_311" x1="580.0872" y1="342.6554" x2="613.3143" y2="342.6554" gradientUnits="userSpaceOnUse"><stop offset="0" stop-color="#b79f97"/><stop offset="1" stop-color="#b2a5a7"/></linearGradient><linearGradient id="Áåçûìÿííûé_ãðàäèåíò_262-3" x1="495.3473" y1="115.9198" x2="518.8574" y2="115.9198" xlink:href="#Áåçûìÿííûé_ãðàäèåíò_262"/><linearGradient id="Áåçûìÿííûé_ãðàäèåíò_262-4" x1="619.9456" y1="342.4324" x2="644.3636" y2="342.4324" xlink:href="#Áåçûìÿííûé_ãðàäèåíò_262"/><linearGradient id="Áåçûìÿííûé_ãðàäèåíò_296" x1="507.1023" y1="119.4319" x2="507.1023" y2="118.383" gradientUnits="userSpaceOnUse"><stop offset="0" stop-color="#6d4b45"/><stop offset="1" stop-color="#63506f"/></linearGradient><linearGradient id="Áåçûìÿííûé_ãðàäèåíò_308" x1="595.4422" y1="345.3397" x2="595.4422" y2="333.3181" gradientUnits="userSpaceOnUse"><stop offset="0" stop-color="#7a637e"/><stop offset="1" stop-color="#9f7767"/></linearGradient><linearGradient id="Áåçûìÿííûé_ãðàäèåíò_327" x1="621.6096" y1="360.9221" x2="621.6096" y2="324.5536" gradientUnits="userSpaceOnUse"><stop offset="0" stop-color="#aa9b9d"/><stop offset="1" stop-color="#e5ccae"/></linearGradient><linearGradient id="Áåçûìÿííûé_ãðàäèåíò_327-2" x1="579.6961" y1="352.9378" x2="611.9322" y2="352.9378" xlink:href="#Áåçûìÿííûé_ãðàäèåíò_327"/><linearGradient id="Áåçûìÿííûé_ãðàäèåíò_327-3" x1="573.0584" y1="357.0252" x2="592.5393" y2="323.2833" xlink:href="#Áåçûìÿííûé_ãðàäèåíò_327"/><linearGradient id="Áåçûìÿííûé_ãðàäèåíò_706" x1="597.9078" y1="334.8822" x2="608.8937" y2="315.854" gradientUnits="userSpaceOnUse"><stop offset="0"/><stop offset="1" stop-color="#d7883d"/></linearGradient><linearGradient id="Áåçûìÿííûé_ãðàäèåíò_154" x1="590.0836" y1="343.0422" x2="602.8034" y2="343.0422" gradientUnits="userSpaceOnUse"><stop offset="0" stop-color="#ffc4c0"/><stop offset="0.9944" stop-color="#90609a"/></linearGradient><linearGradient id="Áåçûìÿííûé_ãðàäèåíò_327-4" x1="594.6673" y1="345.1447" x2="594.6673" y2="333.4057" xlink:href="#Áåçûìÿííûé_ãðàäèåíò_327"/><linearGradient id="Áåçûìÿííûé_ãðàäèåíò_308-2" x1="594.2626" y1="341.3435" x2="594.2626" y2="336.5871" xlink:href="#Áåçûìÿííûé_ãðàäèåíò_308"/><linearGradient id="Áåçûìÿííûé_ãðàäèåíò_154-2" x1="457.3025" y1="112.5961" x2="458.7987" y2="112.5961" xlink:href="#Áåçûìÿííûé_ãðàäèåíò_154"/><linearGradient id="Áåçûìÿííûé_ãðàäèåíò_154-3" x1="449.2227" y1="139.3682" x2="449.2227" y2="130.0185" xlink:href="#Áåçûìÿííûé_ãðàäèåíò_154"/><linearGradient id="Áåçûìÿííûé_ãðàäèåíò_362" x1="619.2748" y1="341.8982" x2="642.2744" y2="341.8982" gradientUnits="userSpaceOnUse"><stop offset="0.0056" stop-color="#b66054"/><stop offset="1" stop-color="#bf777c"/></linearGradient><linearGradient id="Áåçûìÿííûé_ãðàäèåíò_308-3" x1="634.2533" y1="360.9221" x2="634.2533" y2="321.0611" xlink:href="#Áåçûìÿííûé_ãðàäèåíò_308"/><linearGradient id="Áåçûìÿííûé_ãðàäèåíò_154-4" x1="614.7578" y1="360.8543" x2="614.7578" y2="342.8683" xlink:href="#Áåçûìÿííûé_ãðàäèåíò_154"/><linearGradient id="Áåçûìÿííûé_ãðàäèåíò_221" x1="506.6612" y1="125.8295" x2="506.6612" y2="124.3876" gradientUnits="userSpaceOnUse"><stop offset="0.0056" stop-color="#90609a"/><stop offset="1" stop-color="#9783c0"/></linearGradient><linearGradient id="Áåçûìÿííûé_ãðàäèåíò_343" x1="580.1047" y1="345.9264" x2="612.476" y2="345.9264" gradientUnits="userSpaceOnUse"><stop offset="0.0056" stop-color="#ae429a"/><stop offset="1" stop-color="#e08368"/></linearGradient><linearGradient id="Áåçûìÿííûé_ãðàäèåíò_308-4" x1="453.7229" y1="139.5806" x2="486.0266" y2="139.5806" xlink:href="#Áåçûìÿííûé_ãðàäèåíò_308"/><linearGradient id="Áåçûìÿííûé_ãðàäèåíò_706-2" x1="467.4334" y1="107.9867" x2="490.1476" y2="107.9867" xlink:href="#Áåçûìÿííûé_ãðàäèåíò_706"/><linearGradient id="Áåçûìÿííûé_ãðàäèåíò_221-2" x1="495.0504" y1="139.8855" x2="520.5802" y2="139.8855" xlink:href="#Áåçûìÿííûé_ãðàäèåíò_221"/><linearGradient id="Áåçûìÿííûé_ãðàäèåíò_565" x1="479.0092" y1="108.2646" x2="479.0092" y2="107.2632" gradientUnits="userSpaceOnUse"><stop offset="0" stop-color="#9e4044"/><stop offset="1" stop-color="#a83e36"/></linearGradient><linearGradient id="Áåçûìÿííûé_ãðàäèåíò_565-2" x1="457.6361" y1="130.0185" x2="457.6361" y2="128.8775" xlink:href="#Áåçûìÿííûé_ãðàäèåíò_565"/><linearGradient id="Áåçûìÿííûé_ãðàäèåíò_328" x1="455.2016" y1="130.0917" x2="461.8293" y2="130.0917" gradientUnits="userSpaceOnUse"><stop offset="0" stop-color="#d7883d"/><stop offset="1"/></linearGradient><linearGradient id="Áåçûìÿííûé_ãðàäèåíò_443" x1="551.7412" y1="358.1355" x2="560.5201" y2="358.1355" gradientTransform="translate(-0.4333 2.057) rotate(-0.0974)" gradientUnits="userSpaceOnUse"><stop offset="0" stop-color="#ff921b"/><stop offset="1" stop-color="#eb5d4e"/></linearGradient><linearGradient id="Áåçûìÿííûé_ãðàäèåíò_65" x1="556.7781" y1="358.7577" x2="555.4952" y2="355.7355" gradientTransform="translate(-0.4333 2.057) rotate(-0.0974)" gradientUnits="userSpaceOnUse"><stop offset="0" stop-color="#fb6b42"/><stop offset="0.5587" stop-color="#ffdf36"/><stop offset="0.9693" stop-color="#ffa036"/></linearGradient><linearGradient id="Áåçûìÿííûé_ãðàäèåíò_468" x1="552.5629" y1="357.1914" x2="559.5262" y2="357.1914" gradientTransform="translate(-0.4333 2.057) rotate(-0.0974)" gradientUnits="userSpaceOnUse"><stop offset="0" stop-color="#eb5d4e"/><stop offset="1" stop-color="#ff921b"/></linearGradient><linearGradient id="Áåçûìÿííûé_ãðàäèåíò_440" x1="552.5875" y1="357.3229" x2="559.1348" y2="357.3229" gradientTransform="translate(-0.4333 2.057) rotate(-0.0974)" gradientUnits="userSpaceOnUse"><stop offset="0" stop-color="#ffb525"/><stop offset="0.9693" stop-color="#ffa036"/></linearGradient><linearGradient id="Áåçûìÿííûé_ãðàäèåíò_436" x1="559.9829" y1="358.9231" x2="559.9829" y2="357.1911" gradientTransform="translate(-0.4333 2.057) rotate(-0.0974)" gradientUnits="userSpaceOnUse"><stop offset="0" stop-color="#d74600"/><stop offset="1"/></linearGradient><linearGradient id="Áåçûìÿííûé_ãðàäèåíò_440-2" x1="554.9885" y1="357.5639" x2="560.3382" y2="357.5639" xlink:href="#Áåçûìÿííûé_ãðàäèåíò_440"/><linearGradient id="Áåçûìÿííûé_ãðàäèåíò_451" x1="568.5185" y1="360.2522" x2="580.7643" y2="360.2522" gradientTransform="translate(-0.4333 2.057) rotate(-0.0974)" gradientUnits="userSpaceOnUse"><stop offset="0" stop-color="#c7431b"/><stop offset="1" stop-color="#eb5d4e"/></linearGradient><linearGradient id="Áåçûìÿííûé_ãðàäèåíò_448" x1="575.5445" y1="361.1202" x2="573.7551" y2="356.9045" gradientTransform="translate(-0.4333 2.057) rotate(-0.0974)" gradientUnits="userSpaceOnUse"><stop offset="0" stop-color="#fb6b42"/><stop offset="0.9693" stop-color="#ffa036"/></linearGradient><linearGradient id="Áåçûìÿííûé_ãðàäèåíò_436-2" x1="580.015" y1="361.3509" x2="580.015" y2="358.935" xlink:href="#Áåçûìÿííûé_ãðàäèåíò_436"/><linearGradient id="Áåçûìÿííûé_ãðàäèåíò_440-3" x1="573.0483" y1="359.4549" x2="580.5106" y2="359.4549" xlink:href="#Áåçûìÿííûé_ãðàäèåíò_440"/><linearGradient id="Áåçûìÿííûé_ãðàäèåíò_451-2" x1="568.6378" y1="358.2031" x2="580.8834" y2="358.2031" xlink:href="#Áåçûìÿííûé_ãðàäèåíò_451"/><linearGradient id="Áåçûìÿííûé_ãðàäèåíò_448-2" x1="575.6637" y1="359.0711" x2="573.8743" y2="354.8554" xlink:href="#Áåçûìÿííûé_ãðàäèåíò_448"/><linearGradient id="Áåçûìÿííûé_ãðàäèåíò_436-3" x1="580.1342" y1="359.0426" x2="580.1342" y2="356.8859" xlink:href="#Áåçûìÿííûé_ãðàäèåíò_436"/><linearGradient id="Áåçûìÿííûé_ãðàäèåíò_440-4" x1="573.1676" y1="357.4058" x2="580.6297" y2="357.4058" xlink:href="#Áåçûìÿííûé_ãðàäèåíò_440"/><linearGradient id="Áåçûìÿííûé_ãðàäèåíò_451-3" x1="567.2814" y1="356.17" x2="579.5272" y2="356.17" xlink:href="#Áåçûìÿííûé_ãðàäèåíò_451"/><linearGradient id="Áåçûìÿííûé_ãðàäèåíò_448-3" x1="574.3075" y1="357.038" x2="572.518" y2="352.8223" xlink:href="#Áåçûìÿííûé_ãðàäèåíò_448"/><linearGradient id="Áåçûìÿííûé_ãðàäèåíò_436-4" x1="578.7779" y1="357.0096" x2="578.7779" y2="354.8528" xlink:href="#Áåçûìÿííûé_ãðàäèåíò_436"/><linearGradient id="Áåçûìÿííûé_ãðàäèåíò_440-5" x1="571.8113" y1="355.3727" x2="579.2735" y2="355.3727" xlink:href="#Áåçûìÿííûé_ãðàäèåíò_440"/><linearGradient id="Áåçûìÿííûé_ãðàäèåíò_451-4" x1="562.2403" y1="354.3548" x2="574.4338" y2="354.3548" xlink:href="#Áåçûìÿííûé_ãðàäèåíò_451"/><linearGradient id="Áåçûìÿííûé_ãðàäèåíò_448-4" x1="569.2184" y1="355.2855" x2="567.4052" y2="351.0139" xlink:href="#Áåçûìÿííûé_ãðàäèåíò_448"/><linearGradient id="Áåçûìÿííûé_ãðàäèåíò_436-5" x1="573.7406" y1="354.8592" x2="573.7406" y2="353.0563" xlink:href="#Áåçûìÿííûé_ãðàäèåíò_436"/><linearGradient id="Áåçûìÿííûé_ãðàäèåíò_440-6" x1="566.7178" y1="353.3682" x2="574.4338" y2="353.3682" xlink:href="#Áåçûìÿííûé_ãðàäèåíò_440"/><linearGradient id="Áåçûìÿííûé_ãðàäèåíò_451-5" x1="563.4984" y1="352.2452" x2="575.6919" y2="352.2452" xlink:href="#Áåçûìÿííûé_ãðàäèåíò_451"/><linearGradient id="Áåçûìÿííûé_ãðàäèåíò_448-5" x1="570.4765" y1="353.1759" x2="568.6633" y2="348.9044" xlink:href="#Áåçûìÿííûé_ãðàäèåíò_448"/><linearGradient id="Áåçûìÿííûé_ãðàäèåíò_436-6" x1="574.9987" y1="352.7496" x2="574.9987" y2="350.9468" xlink:href="#Áåçûìÿííûé_ãðàäèåíò_436"/><linearGradient id="Áåçûìÿííûé_ãðàäèåíò_440-7" x1="567.9759" y1="351.2586" x2="575.6919" y2="351.2586" xlink:href="#Áåçûìÿííûé_ãðàäèåíò_440"/><linearGradient id="Áåçûìÿííûé_ãðàäèåíò_443-2" x1="557.7785" y1="360.5344" x2="570.0242" y2="360.5344" xlink:href="#Áåçûìÿííûé_ãðàäèåíò_443"/><linearGradient id="Áåçûìÿííûé_ãðàäèåíò_65-2" x1="564.8045" y1="361.4025" x2="563.015" y2="357.1868" xlink:href="#Áåçûìÿííûé_ãðàäèåíò_65"/><linearGradient id="Áåçûìÿííûé_ãðàäèåíò_468-2" x1="558.9247" y1="359.2175" x2="568.6378" y2="359.2175" xlink:href="#Áåçûìÿííûé_ãðàäèåíò_468"/><linearGradient id="Áåçûìÿííûé_ãðàäèåíò_440-8" x1="558.9589" y1="359.4009" x2="568.092" y2="359.4009" xlink:href="#Áåçûìÿííûé_ãðàäèåíò_440"/><linearGradient id="Áåçûìÿííûé_ãðàäèåíò_436-7" x1="569.2749" y1="361.6331" x2="569.2749" y2="359.2173" xlink:href="#Áåçûìÿííûé_ãðàäèåíò_436"/><linearGradient id="Áåçûìÿííûé_ãðàäèåíò_440-9" x1="562.3084" y1="359.7371" x2="569.7705" y2="359.7371" xlink:href="#Áåçûìÿííûé_ãðàäèåíò_440"/><linearGradient id="Áåçûìÿííûé_ãðàäèåíò_443-3" x1="558.2654" y1="358.5446" x2="570.5111" y2="358.5446" xlink:href="#Áåçûìÿííûé_ãðàäèåíò_443"/><linearGradient id="Áåçûìÿííûé_ãðàäèåíò_65-3" x1="565.2913" y1="359.4126" x2="563.5019" y2="355.1969" xlink:href="#Áåçûìÿííûé_ãðàäèåíò_65"/><linearGradient id="Áåçûìÿííûé_ãðàäèåíò_468-3" x1="559.4116" y1="357.2277" x2="569.1247" y2="357.2277" xlink:href="#Áåçûìÿííûé_ãðàäèåíò_468"/><linearGradient id="Áåçûìÿííûé_ãðàäèåíò_440-10" x1="559.4458" y1="357.4111" x2="568.5789" y2="357.4111" xlink:href="#Áåçûìÿííûé_ãðàäèåíò_440"/><linearGradient id="Áåçûìÿííûé_ãðàäèåíò_436-8" x1="569.7618" y1="359.6433" x2="569.7618" y2="357.2274" xlink:href="#Áåçûìÿííûé_ãðàäèåíò_436"/><linearGradient id="Áåçûìÿííûé_ãðàäèåíò_440-11" x1="562.7952" y1="357.7473" x2="570.2574" y2="357.7473" xlink:href="#Áåçûìÿííûé_ãðàäèåíò_440"/><linearGradient id="Áåçûìÿííûé_ãðàäèåíò_443-4" x1="557.6582" y1="356.3428" x2="569.904" y2="356.3428" xlink:href="#Áåçûìÿííûé_ãðàäèåíò_443"/><linearGradient id="Áåçûìÿííûé_ãðàäèåíò_65-4" x1="564.6843" y1="357.2108" x2="562.8948" y2="352.995" xlink:href="#Áåçûìÿííûé_ãðàäèåíò_65"/><linearGradient id="Áåçûìÿííûé_ãðàäèåíò_468-4" x1="558.8046" y1="355.0259" x2="568.5176" y2="355.0259" xlink:href="#Áåçûìÿííûé_ãðàäèåíò_468"/><linearGradient id="Áåçûìÿííûé_ãðàäèåíò_440-12" x1="558.8388" y1="355.2093" x2="567.9718" y2="355.2093" xlink:href="#Áåçûìÿííûé_ãðàäèåíò_440"/><linearGradient id="Áåçûìÿííûé_ãðàäèåíò_436-9" x1="569.1547" y1="357.4415" x2="569.1547" y2="355.0256" xlink:href="#Áåçûìÿííûé_ãðàäèåíò_436"/><linearGradient id="Áåçûìÿííûé_ãðàäèåíò_440-13" x1="562.1881" y1="355.5455" x2="569.6503" y2="355.5455" xlink:href="#Áåçûìÿííûé_ãðàäèåíò_440"/><linearGradient id="Áåçûìÿííûé_ãðàäèåíò_443-5" x1="568.0512" y1="358.2585" x2="580.297" y2="358.2585" xlink:href="#Áåçûìÿííûé_ãðàäèåíò_443"/><linearGradient id="Áåçûìÿííûé_ãðàäèåíò_65-5" x1="575.0772" y1="359.1265" x2="573.2877" y2="354.9107" xlink:href="#Áåçûìÿííûé_ãðàäèåíò_65"/><linearGradient id="Áåçûìÿííûé_ãðàäèåíò_468-5" x1="569.1974" y1="356.9416" x2="578.9106" y2="356.9416" xlink:href="#Áåçûìÿííûé_ãðàäèåíò_468"/><linearGradient id="Áåçûìÿííûé_ãðàäèåíò_440-14" x1="569.2317" y1="357.1249" x2="578.3647" y2="357.1249" xlink:href="#Áåçûìÿííûé_ãðàäèåíò_440"/><linearGradient id="Áåçûìÿííûé_ãðàäèåíò_436-10" x1="579.5476" y1="359.3571" x2="579.5476" y2="356.9413" xlink:href="#Áåçûìÿííûé_ãðàäèåíò_436"/><linearGradient id="Áåçûìÿííûé_ãðàäèåíò_440-15" x1="572.581" y1="357.4612" x2="580.0432" y2="357.4612" xlink:href="#Áåçûìÿííûé_ãðàäèåíò_440"/><linearGradient id="Áåçûìÿííûé_ãðàäèåíò_443-6" x1="600.5959" y1="405.4076" x2="612.8421" y2="405.4076" gradientTransform="translate(14.9355 -106.7555) rotate(5.7106)" xlink:href="#Áåçûìÿííûé_ãðàäèåíò_443"/><linearGradient id="Áåçûìÿííûé_ãðàäèåíò_65-6" x1="607.6222" y1="406.2756" x2="605.8325" y2="402.0595" gradientTransform="translate(14.9355 -106.7555) rotate(5.7106)" xlink:href="#Áåçûìÿííûé_ãðàäèåíò_65"/><linearGradient id="Áåçûìÿííûé_ãðàäèåíò_468-6" x1="601.7422" y1="404.0905" x2="611.4556" y2="404.0905" gradientTransform="translate(14.9355 -106.7555) rotate(5.7106)" xlink:href="#Áåçûìÿííûé_ãðàäèåíò_468"/><linearGradient id="Áåçûìÿííûé_ãðàäèåíò_440-16" x1="601.7763" y1="404.2739" x2="610.9098" y2="404.2739" gradientTransform="translate(14.9355 -106.7555) rotate(5.7106)" xlink:href="#Áåçûìÿííûé_ãðàäèåíò_440"/><linearGradient id="Áåçûìÿííûé_ãðàäèåíò_436-11" x1="612.0927" y1="406.5064" x2="612.0927" y2="404.0904" gradientTransform="translate(14.9355 -106.7555) rotate(5.7106)" xlink:href="#Áåçûìÿííûé_ãðàäèåíò_436"/><linearGradient id="Áåçûìÿííûé_ãðàäèåíò_440-17" x1="605.1258" y1="404.6102" x2="612.5883" y2="404.6102" gradientTransform="translate(14.9355 -106.7555) rotate(5.7106)" xlink:href="#Áåçûìÿííûé_ãðàäèåíò_440"/><linearGradient id="Áåçûìÿííûé_ãðàäèåíò_443-7" x1="888.5462" y1="625.9539" x2="900.7912" y2="625.9539" gradientTransform="translate(383.068 -717.2429) rotate(45.0446)" xlink:href="#Áåçûìÿííûé_ãðàäèåíò_443"/><linearGradient id="Áåçûìÿííûé_ãðàäèåíò_65-7" x1="895.5718" y1="626.8219" x2="893.7823" y2="622.6061" gradientTransform="translate(383.068 -717.2429) rotate(45.0446)" xlink:href="#Áåçûìÿííûé_ãðàäèåíò_65"/><linearGradient id="Áåçûìÿííûé_ãðàäèåíò_468-7" x1="889.6923" y1="624.637" x2="899.4049" y2="624.637" gradientTransform="translate(383.068 -717.2429) rotate(45.0446)" xlink:href="#Áåçûìÿííûé_ãðàäèåíò_468"/><linearGradient id="Áåçûìÿííûé_ãðàäèåíò_440-18" x1="889.7266" y1="624.8203" x2="898.859" y2="624.8203" gradientTransform="translate(383.068 -717.2429) rotate(45.0446)" xlink:href="#Áåçûìÿííûé_ãðàäèåíò_440"/><linearGradient id="Áåçûìÿííûé_ãðàäèåíò_436-12" x1="900.0419" y1="627.0527" x2="900.0419" y2="624.637" gradientTransform="translate(383.068 -717.2429) rotate(45.0446)" xlink:href="#Áåçûìÿííûé_ãðàäèåíò_436"/><linearGradient id="Áåçûìÿííûé_ãðàäèåíò_440-19" x1="893.0757" y1="625.1567" x2="900.5375" y2="625.1567" gradientTransform="translate(383.068 -717.2429) rotate(45.0446)" xlink:href="#Áåçûìÿííûé_ãðàäèåíò_440"/><linearGradient id="Áåçûìÿííûé_ãðàäèåíò_457" x1="524.3399" y1="5.6343" x2="536.5856" y2="5.6343" gradientTransform="matrix(0.6725, -0.7401, 0.7401, 0.6725, 197.6922, 746.6679)" gradientUnits="userSpaceOnUse"><stop offset="0" stop-color="#ff921b"/><stop offset="1" stop-color="#ff894e"/></linearGradient><linearGradient id="Áåçûìÿííûé_ãðàäèåíò_65-8" x1="531.366" y1="6.5024" x2="529.5763" y2="2.2861" gradientTransform="matrix(0.6725, -0.7401, 0.7401, 0.6725, 197.6922, 746.6679)" xlink:href="#Áåçûìÿííûé_ãðàäèåíò_65"/><linearGradient id="Áåçûìÿííûé_ãðàäèåíò_468-8" x1="525.4861" y1="4.3172" x2="535.1992" y2="4.3172" gradientTransform="matrix(0.6725, -0.7401, 0.7401, 0.6725, 197.6922, 746.6679)" xlink:href="#Áåçûìÿííûé_ãðàäèåíò_468"/><linearGradient id="Áåçûìÿííûé_ãðàäèåíò_440-20" x1="525.5203" y1="4.5006" x2="534.6533" y2="4.5006" gradientTransform="matrix(0.6725, -0.7401, 0.7401, 0.6725, 197.6922, 746.6679)" xlink:href="#Áåçûìÿííûé_ãðàäèåíò_440"/><linearGradient id="Áåçûìÿííûé_ãðàäèåíò_436-13" x1="535.8363" y1="6.7331" x2="535.8363" y2="4.3173" gradientTransform="matrix(0.6725, -0.7401, 0.7401, 0.6725, 197.6922, 746.6679)" xlink:href="#Áåçûìÿííûé_ãðàäèåíò_436"/><linearGradient id="Áåçûìÿííûé_ãðàäèåíò_440-21" x1="528.8697" y1="4.837" x2="536.3319" y2="4.837" gradientTransform="matrix(0.6725, -0.7401, 0.7401, 0.6725, 197.6922, 746.6679)" xlink:href="#Áåçûìÿííûé_ãðàäèåíò_440"/><linearGradient id="Áåçûìÿííûé_ãðàäèåíò_443-8" x1="545.0394" y1="374.6329" x2="557.2846" y2="374.6329" gradientTransform="translate(15.7654 -0.5667) rotate(-1.2548)" xlink:href="#Áåçûìÿííûé_ãðàäèåíò_443"/><linearGradient id="Áåçûìÿííûé_ãðàäèåíò_65-9" x1="552.0652" y1="375.5009" x2="550.2756" y2="371.2849" gradientTransform="translate(15.7654 -0.5667) rotate(-1.2548)" xlink:href="#Áåçûìÿííûé_ãðàäèåíò_65"/><linearGradient id="Áåçûìÿííûé_ãðàäèåíò_468-9" x1="546.1856" y1="373.3159" x2="555.8983" y2="373.3159" gradientTransform="translate(15.7654 -0.5667) rotate(-1.2548)" xlink:href="#Áåçûìÿííûé_ãðàäèåíò_468"/><linearGradient id="Áåçûìÿííûé_ãðàäèåíò_440-22" x1="546.2198" y1="373.4993" x2="555.3525" y2="373.4993" gradientTransform="translate(15.7654 -0.5667) rotate(-1.2548)" xlink:href="#Áåçûìÿííûé_ãðàäèåíò_440"/><linearGradient id="Áåçûìÿííûé_ãðàäèåíò_436-14" x1="556.5353" y1="375.7316" x2="556.5353" y2="373.3158" gradientTransform="translate(15.7654 -0.5667) rotate(-1.2548)" xlink:href="#Áåçûìÿííûé_ãðàäèåíò_436"/><linearGradient id="Áåçûìÿííûé_ãðàäèåíò_440-23" x1="549.569" y1="373.8356" x2="557.0309" y2="373.8356" gradientTransform="translate(15.7654 -0.5667) rotate(-1.2548)" xlink:href="#Áåçûìÿííûé_ãðàäèåíò_440"/><linearGradient id="Áåçûìÿííûé_ãðàäèåíò_443-9" x1="559.4963" y1="374.0574" x2="567.8472" y2="374.0574" gradientTransform="translate(15.7654 -0.5667) rotate(-1.2548)" xlink:href="#Áåçûìÿííûé_ãðàäèåíò_443"/><linearGradient id="Áåçûìÿííûé_ãðàäèåíò_65-10" x1="564.2877" y1="374.6494" x2="563.0672" y2="371.7742" gradientTransform="translate(15.7654 -0.5667) rotate(-1.2548)" xlink:href="#Áåçûìÿííûé_ãðàäèåíò_65"/><linearGradient id="Áåçûìÿííûé_ãðàäèåíò_468-10" x1="560.2779" y1="373.1593" x2="566.9017" y2="373.1593" gradientTransform="translate(15.7654 -0.5667) rotate(-1.2548)" xlink:href="#Áåçûìÿííûé_ãðàäèåíò_468"/><linearGradient id="Áåçûìÿííûé_ãðàäèåíò_440-24" x1="560.3013" y1="373.2843" x2="566.5295" y2="373.2843" gradientTransform="translate(15.7654 -0.5667) rotate(-1.2548)" xlink:href="#Áåçûìÿííûé_ãðàäèåíò_440"/><linearGradient id="Áåçûìÿííûé_ãðàäèåíò_436-15" x1="567.3362" y1="374.8067" x2="567.3362" y2="373.1593" gradientTransform="translate(15.7654 -0.5667) rotate(-1.2548)" xlink:href="#Áåçûìÿííûé_ãðàäèåíò_436"/><linearGradient id="Áåçûìÿííûé_ãðàäèåíò_440-25" x1="562.5853" y1="373.5137" x2="567.6741" y2="373.5137" gradientTransform="translate(15.7654 -0.5667) rotate(-1.2548)" xlink:href="#Áåçûìÿííûé_ãðàäèåíò_440"/><linearGradient id="Áåçûìÿííûé_ãðàäèåíò_504-2" x1="519.8138" y1="165.8622" x2="627.3519" y2="165.8622" xlink:href="#Áåçûìÿííûé_ãðàäèåíò_504"/><linearGradient id="Áåçûìÿííûé_ãðàäèåíò_24" x1="676.863" y1="385.71" x2="676.863" y2="348.3558" gradientUnits="userSpaceOnUse"><stop offset="0" stop-color="#814c63"/><stop offset="0.3927" stop-color="#85586e"/><stop offset="1" stop-color="#8d7288"/></linearGradient><linearGradient id="Áåçûìÿííûé_ãðàäèåíò_40" x1="535.7723" y1="159.8921" x2="535.7022" y2="146.4106" gradientUnits="userSpaceOnUse"><stop offset="0" stop-color="#b87251"/><stop offset="0.337" stop-color="#d38755"/><stop offset="0.756" stop-color="#ef9c59"/><stop offset="1" stop-color="#f9a45a"/></linearGradient><linearGradient id="Áåçûìÿííûé_ãðàäèåíò_40-2" x1="691.9652" y1="368.5222" x2="691.8757" y2="351.3232" xlink:href="#Áåçûìÿííûé_ãðàäèåíò_40"/><linearGradient id="Áåçûìÿííûé_ãðàäèåíò_40-3" x1="562.1667" y1="154.8192" x2="582.8999" y2="154.8192" xlink:href="#Áåçûìÿííûé_ãðàäèåíò_40"/><linearGradient id="Áåçûìÿííûé_ãðàäèåíò_46" x1="550.1788" y1="150.0648" x2="550.1788" y2="146.4017" gradientUnits="userSpaceOnUse"><stop offset="0" stop-color="#ffb572"/><stop offset="0.2484" stop-color="#fcb46d"/><stop offset="1" stop-color="#f4b363"/></linearGradient><linearGradient id="Áåçûìÿííûé_ãðàäèåíò_46-2" x1="702.6062" y1="351.8708" x2="702.6062" y2="348.3374" xlink:href="#Áåçûìÿííûé_ãðàäèåíò_46"/><linearGradient id="Áåçûìÿííûé_ãðàäèåíò_46-3" x1="703.7358" y1="373.2973" x2="703.7358" y2="369.73" xlink:href="#Áåçûìÿííûé_ãðàäèåíò_46"/><linearGradient id="Áåçûìÿííûé_ãðàäèåíò_367" x1="580.5152" y1="139.6787" x2="575.3468" y2="139.6787" gradientUnits="userSpaceOnUse"><stop offset="0" stop-color="#c0b3d4"/><stop offset="0.4503" stop-color="#d2bfcd"/><stop offset="0.9944" stop-color="#e3cac7"/></linearGradient><linearGradient id="Áåçûìÿííûé_ãðàäèåíò_367-2" x1="582.8999" y1="152.5892" x2="546.4627" y2="152.5892" xlink:href="#Áåçûìÿííûé_ãðàäèåíò_367"/><linearGradient id="Áåçûìÿííûé_ãðàäèåíò_218" x1="467.1373" y1="365.7561" x2="467.1373" y2="340.36" gradientUnits="userSpaceOnUse"><stop offset="0" stop-color="#f97c47"/><stop offset="0.4763" stop-color="#fc8a48"/><stop offset="1" stop-color="#ff9448"/></linearGradient><linearGradient id="Áåçûìÿííûé_ãðàäèåíò_253-2" x1="1148.0504" y1="335.1709" x2="1148.0504" y2="319.2734" gradientTransform="matrix(-1, 0, 0, 1, 1628.041, 0)" xlink:href="#Áåçûìÿííûé_ãðàäèåíò_253"/><linearGradient id="Áåçûìÿííûé_ãðàäèåíò_106-3" x1="1150.0872" y1="371.9381" x2="1150.0872" y2="320.184" gradientTransform="matrix(-1, 0, 0, 1, 1628.041, 0)" xlink:href="#Áåçûìÿííûé_ãðàäèåíò_106"/><linearGradient id="Áåçûìÿííûé_ãðàäèåíò_511" x1="1130.1869" y1="327.0531" x2="1130.1869" y2="220.5007" gradientTransform="matrix(-1, 0, 0, 1, 1628.041, 0)" gradientUnits="userSpaceOnUse"><stop offset="0" stop-color="#5f123e"/><stop offset="1" stop-color="#be423b"/></linearGradient><linearGradient id="Áåçûìÿííûé_ãðàäèåíò_262-5" x1="1146.97" y1="352.2029" x2="1146.97" y2="321.4367" gradientTransform="matrix(-1, 0, 0, 1, 1628.041, 0)" xlink:href="#Áåçûìÿííûé_ãðàäèåíò_262"/><linearGradient id="Áåçûìÿííûé_ãðàäèåíò_154-5" x1="1129.7984" y1="324.9454" x2="1129.7984" y2="220.5007" gradientTransform="matrix(-1, 0, 0, 1, 1628.041, 0)" xlink:href="#Áåçûìÿííûé_ãðàäèåíò_154"/><linearGradient id="Áåçûìÿííûé_ãðàäèåíò_122" x1="1145.1612" y1="348.6667" x2="1145.1612" y2="323.349" gradientTransform="matrix(-1, 0, 0, 1, 1628.041, 0)" gradientUnits="userSpaceOnUse"><stop offset="0"/><stop offset="1" stop-color="#b26875"/></linearGradient><linearGradient id="Áåçûìÿííûé_ãðàäèåíò_504-3" x1="1135.648" y1="364.1163" x2="1135.648" y2="339.1142" gradientTransform="matrix(-1, 0, 0, 1, 1628.041, 0)" xlink:href="#Áåçûìÿííûé_ãðàäèåíò_504"/><linearGradient id="Áåçûìÿííûé_ãðàäèåíò_504-4" x1="1148.4061" y1="363.1932" x2="1148.4061" y2="356.859" gradientTransform="matrix(-1, 0, 0, 1, 1628.041, 0)" xlink:href="#Áåçûìÿííûé_ãðàäèåíò_504"/><linearGradient id="Áåçûìÿííûé_ãðàäèåíò_504-5" x1="1279.7856" y1="567.0625" x2="1279.7856" y2="560.6936" gradientTransform="matrix(-0.672, 0.7406, 0.7406, 0.672, 902.9482, -997.843)" xlink:href="#Áåçûìÿííûé_ãðàäèåíò_504"/><linearGradient id="Áåçûìÿííûé_ãðàäèåíò_504-6" x1="1727.9067" y1="94.868" x2="1727.9067" y2="90.8887" gradientTransform="matrix(0.7187, -0.6953, -0.6953, -0.7187, -717.4947, 1603.9522)" xlink:href="#Áåçûìÿííûé_ãðàäèåíò_504"/><linearGradient id="Áåçûìÿííûé_ãðàäèåíò_504-7" x1="1808.9588" y1="233.5846" x2="1808.9588" y2="231.0656" gradientTransform="matrix(0.9897, -0.1432, -0.1432, -0.9897, -1278.1227, 856.7761)" xlink:href="#Áåçûìÿííûé_ãðàäèåíò_504"/><linearGradient id="Áåçûìÿííûé_ãðàäèåíò_143" x1="469.4182" y1="380.3366" x2="469.4182" y2="348.7655" gradientUnits="userSpaceOnUse"><stop offset="0" stop-color="#ff8151"/><stop offset="0.4861" stop-color="#ff8f42"/><stop offset="1" stop-color="#ff9a36"/></linearGradient></defs><g class="cls-2"><g id="Layer_2" data-name="Layer 2"><g id="island_01"><g class="cls-3"><path class="cls-4" d="M125.5062,400s229.7286-47.2234,313.1616-57.1185S674.0226,329.4077,764.27,361.0182c0,0-33.5443,10.918-32.7058,12.6905,2.0252,4.2808,235.49,26.7021,235.49,26.7021Z" transform="translate(-125.5062 -220.5007)"/><path class="cls-5" d="M932.78,400.41l-63.91-.03h-2.92l-648.23-.33.02-.01c1.9-.7,115.69-42.77,244.39-56.38q14.055-1.5,28.33-2.5c25.21-1.76,48.25-2.7,69.24-3h.01c121.77-1.78,174.41,17.55,179.24,19.97,5.66,2.85-27.26,13.4-26.92,17.23.3,3.41,174.87,20.59,213.32,24.33C930.11,400.15,932.78,400.41,932.78,400.41Z" transform="translate(-125.5062 -220.5007)"/><path class="cls-6" d="M176.5047,400s27.6077-2.6105,54.79-7.7368c35.0744-6.6148,24.7483-12.2376,28.0047-13.2316,17.4366-5.3229,69.3629-12.6745,78.5633-15.0688s6.9593-4.1478,15.71-6.7416,61.7573-7.3293,73.192-10.0174,65.9379-6.1932,65.9379-6.1932S331.9053,356.026,217.7158,400.045Z" transform="translate(-125.5062 -220.5007)"/><path class="cls-7" d="M942.8455,399.6908s-76.6244-10.0711-93.1087-10.2651-31.804-.7891-46.6915-3.1442-21.4581-4.2248-40.4664-4.8183c-16.0819-.5022-42.6315-4.7359-42.4421-7.0175.4082-4.915,18.9474-11.93,21.979-15.2457s-31.579-10.4766-43.4526-12.2646-26.2669-3.4212-26.2669-3.4212,45.9334,6.2669,66.1633,14.4342c0,0,2.0307.3233.3934,2.13s-29.6406,13.5892-26.9241,15.2809C719,379.7,925.3548,399.6908,925.3548,399.6908Z" transform="translate(-125.5062 -220.5007)"/><path class="cls-8" d="M925.35,399.69l-56.48.69-2.64.03s-.09-.01-.26-.03h-.02c-7.48-.93-162.64-20.14-161.16-23.65,1.52-3.6,27.63-13.13,23.42-19.56-3.95-6.05-62.24-17.75-168.5-19.01,121.77-1.78,174.41,17.55,179.24,19.97,5.66,2.85-27.26,13.4-26.92,17.23C712.33,378.77,886.9,395.95,925.35,399.69Z" transform="translate(-125.5062 -220.5007)"/><path class="cls-9" d="M321.6178,388.0163s87.0277-5.4631,105.195-5.4631c22.9984,0,55.6366,12.8967,64.2555,13.13,39.2226,1.0623,160.8122-4.01,160.8122-4.01s-74.4551-1.4781-116.7107,0c-37.1793,1.3006-55.7055-4.43-70.4845-6.3247s-49.3368-4.7442-62.4719-4.7156C396.1384,380.6465,321.6178,388.0163,321.6178,388.0163Z" transform="translate(-125.5062 -220.5007)"/><path class="cls-10" d="M578.2745,375.1461s52.3167-7.1858,80.3159-5.2589c22.4441,1.5445,51.1043,6.5978,51.1043,6.5978s-52.29.8545-85.3609-.47C592.9942,374.759,578.2745,375.1461,578.2745,375.1461Z" transform="translate(-125.5062 -220.5007)"/><path class="cls-8" d="M567.5571,348.0055s-26.2008-2.895-42.1165-3.5943-34.998,4.0646-34.998,4.0646S542.986,347.8273,567.5571,348.0055Z" transform="translate(-125.5062 -220.5007)"/><path class="cls-11" d="M352.849,372.2337s9.9618-6.8887,19.4142-6.9777,42.6123,10.4034,42.6123,10.4034S378.2064,373.8187,352.849,372.2337Z" transform="translate(-125.5062 -220.5007)"/><path class="cls-12" d="M746.0006,399.6908s-23.8279-6.85-60.5571-8.53-41.0375,2.7421-84.5323,6.2182c-25.2226,2.0158-105.5294-1.4064-127.015-.9558s-48.1361,3.9877-48.1361,3.9877Z" transform="translate(-125.5062 -220.5007)"/><path class="cls-13" d="M326.7485,388.6207s6.3337,3.858,52.051,7.2089,95.0975-4.156,95.0975-4.156-18.9984-8.3866-53.9292-9.12C400.6538,382.1475,326.7485,388.6207,326.7485,388.6207Z" transform="translate(-125.5062 -220.5007)"/><path class="cls-14" d="M368.7621,365.5739s16.9079-1.96,30.1221.9127c15.9913,3.4762,39.1263,5.8818,39.1263,5.8818s-14.349,3.9143-29.3429,1.3888S380.79,364.6,368.7621,365.5739Z" transform="translate(-125.5062 -220.5007)"/><path class="cls-15" d="M535.6,395.84s60.1756-4.4433,91.567-10.1679,99.22,9.8356,99.22,9.8356-44.6584-10.0506-78.6012-3.4108c-27.9264,5.4629-61.6946,8.72-81.9239,7.9483C565.861,400.045,535.44,399.2423,535.6,395.84Z" transform="translate(-125.5062 -220.5007)"/><path class="cls-16" d="M560.4534,357.941s-9.4555,1.1539-12.1081,1.8928,6.7675,2.9534,6.7675,2.9534a18.6349,18.6349,0,0,0,7.0085,1.75c4.6029.394,42.44-2.2563,43.9113-2.4388l46.5743.08s35.5019-5.6258,36.8931-6.8442-56.2265-10.0447-56.2265-10.0447l-53.5774,6.8674Z" transform="translate(-125.5062 -220.5007)"/><path class="cls-17" d="M573.046,359.2479l51.9614,1.1,22.6034-.6714s0-34.6682-15.262-36.971l-43.234-.0482S572.8236,325.607,573.046,359.2479Z" transform="translate(-125.5062 -220.5007)"/><path class="cls-18" d="M620.1678,360.2464s-3.8527-36.7206,11.4222-37.3692c0,0,14.24-1.0379,12.6495,36.799Z" transform="translate(-125.5062 -220.5007)"/><path class="cls-19" d="M571.4747,359.8242l.9281-8.0577.9212-.4061,1.1187.7956s17.8615,2.1376,24.866,2.3711,19.5251-1.6928,19.5251-1.6928l4.29.1884,22.0642,1.3876,2.1014-.5837,1.9846.5837,1.1674,5.4586-29.8859,1.0421Z" transform="translate(-125.5062 -220.5007)"/><path class="cls-20" d="M598.4921,322.6577l-5.0625.2213s-6.4851,3.5347-7.4831,5.0988a59.5956,59.5956,0,0,0-4.4419,10.2266c-.41,1.9633-1.0633,21.8178-1.0633,21.8178l-1.2121-.0291-7.7553-.1669s1.7746-15.6593,2.7037-22.66c0,0,2.4427-8.3336,7.4649-12.8758l9.5734-3.23,6.4741.3774.3122.4754Z" transform="translate(-125.5062 -220.5007)"/><polygon class="cls-21" points="472.496 101.413 461.794 103.594 456.136 103.79 465.71 100.56 472.184 100.938 472.496 101.413"/><path class="cls-22" d="M650.4417,359.87l-2.3335-.0435-.8165-5.9988s-.5589-7.1238-1.0343-10.2375a68.4791,68.4791,0,0,0-5.7448-15.6121c-2.0286-3.4113-6.8371-4.74-6.8371-4.74-1.3681-.1524-8.06,2.5294-9.6967,5.5452-1.6331,3.0157-3.88,13.5762-3.9992,15.3762-.1234,1.8036.577,16.7516.577,16.7516l-2.4932-.0581-6.612-.1451s.9326-14.6395,1.1649-16.1892c.2359-1.55,1.7346-12.1608,3.0375-15.7536a9.7781,9.7781,0,0,1,1.6294-2.8161l.0036-.0073a20.8049,20.8049,0,0,1,7.6246-5.3746l8.7351.4936h.029a.0854.0854,0,0,0,.0182.0109c.352.1923,6.0568,3.3169,7.5665,5.0988,1.5532,1.8363,6.5359,13.881,7.08,17.383.5262,3.3859,2,15.4706,2.0975,16.2726A.3343.3343,0,0,1,650.4417,359.87Z" transform="translate(-125.5062 -220.5007)"/><path class="cls-23" d="M598.4927,322.6568l-5.0616.2218s-6.4879,3.5336-7.483,5.0986a59.62,59.62,0,0,0-4.4424,10.2279c-.41,1.9624-1.0628,21.8174-1.0628,21.8174h-1.2138s-1.2452-.1351-1.2452-.1536c.0277-.81,1.323-16.821,2.1013-22.0458.7452-5.0027,5.0978-12.0535,7.2153-13.7276,1.4441-1.1417,7.3-3.0344,10.39-2.6557Z" transform="translate(-125.5062 -220.5007)"/><path class="cls-24" d="M579.2291,360.0225l.467-7.8665s15.3906,1.701,20.4687,1.9041a85.2585,85.2585,0,0,0,11.7674-.6607l-.4821,7.31Z" transform="translate(-125.5062 -220.5007)"/><path class="cls-25" d="M580.7078,338.9414a26.5746,26.5746,0,0,1,1.4788-6.1613l32.3328.4262-1.2051,6.7416-17.3522-1.0065Z" transform="translate(-125.5062 -220.5007)"/><polygon class="cls-26" points="455.202 118.441 455.841 119.143 487.759 119.757 487.808 119.447 471.505 117.974 462.245 117.974 455.202 118.441"/><path class="cls-27" d="M643.4372,360.0225s.5015-11.29-.7415-18.52-4.1671-14.0067-5.0372-15.1684a13.4064,13.4064,0,0,0-4.594-3.0485s.7433.0229.975.0521a13.6354,13.6354,0,0,1,6.5959,4.1346c2.7726,2.9478,6.0122,14.3885,6.2457,16.7817s1.2261,15.5716,1.2261,15.5716Z" transform="translate(-125.5062 -220.5007)"/><path class="cls-28" d="M620.2274,360.2464l-.0468-7.4121s2.5873.0633,3.7607.1884,16.8929.8064,17.8611.8714a29.1311,29.1311,0,0,1,3.7978.94l.4862,5.1865-25.53.889Z" transform="translate(-125.5062 -220.5007)"/><path class="cls-29" d="M620.1806,354.06s14.2286.467,16.9525.467,8.4671.3072,8.4671.3072a10.0562,10.0562,0,0,0-3.7236-1.0916c-1.5469.0292-8.129-.5776-13.6548-.6943s-8.0412-.2141-8.0412-.2141Z" transform="translate(-125.5062 -220.5007)"/><path class="cls-30" d="M580.4549,339.3663h18.0378l14.8216.5816s-.6911,4.1352-.8383,5.9966l-9.665-.2811-19.8461-.9208h-2.86A25.0948,25.0948,0,0,1,580.4549,339.3663Z" transform="translate(-125.5062 -220.5007)"/><polygon class="cls-31" points="496.767 112.974 517.153 114.075 518.857 118.866 502.832 118.539 495.347 118.866 496.767 112.974"/><path class="cls-32" d="M619.9713,345.4985l24.3923-.61v-4.94l-23.51-.5816s-.6771,3.1072-.8231,4.07A10.5405,10.5405,0,0,0,619.9713,345.4985Z" transform="translate(-125.5062 -220.5007)"/><polygon class="cls-33" points="518.857 118.866 518.242 119.432 495.347 118.866 502.56 118.383 515.44 118.772 518.857 118.866"/><path class="cls-34" d="M602.84,340.5415a1.1565,1.1565,0,0,1-.0362.2032,5.6957,5.6957,0,0,1-3.6073,3.8323,13.1825,13.1825,0,0,1-6.329.6242,6.6322,6.6322,0,0,1-2.7835-1.5968,12.22,12.22,0,0,1-2.04-2.4205s4.9282-7.3343,6.6411-7.7081a10.3489,10.3489,0,0,1,5.7157.6133C601.57,334.7423,602.8759,339.9681,602.84,340.5415Z" transform="translate(-125.5062 -220.5007)"/><path class="cls-21" d="M633.6937,321.0718c-8.1363,2.6564-9.4028,4.4238-9.4028,4.4238l-7.0077.4536.0036-.0073a20.8049,20.8049,0,0,1,7.6246-5.3746l8.7351.4936Z" transform="translate(-125.5062 -220.5007)"/><path class="cls-21" d="M582.1866,332.78l1.6306-.5926,8.5722.2963s7.84.3389,10.4522.2963,11.83-.2944,11.83-.2944l-.1517.7206-28.5713-.3134-2.36.4256-.7793-.4434Z" transform="translate(-125.5062 -220.5007)"/><path class="cls-35" d="M625.4884,324.5536l-2.4414,1.0225-3.1013,8.6742s-1.9095,6.649-2.1149,8.618c-.3209,3.0762.2335,18.0538.2335,18.0538s.7283-17.2745.8667-18.49c.3209-2.8188,3.0254-12.6744,3.0254-12.6744l1.98-3.8088Z" transform="translate(-125.5062 -220.5007)"/><path class="cls-36" d="M579.6961,352.156l1.0458-.35,18.4777,1.56,12.7126.0336a59.8909,59.8909,0,0,1-12.4844.626C591.1975,353.7783,579.6961,352.156,579.6961,352.156Z" transform="translate(-125.5062 -220.5007)"/><path class="cls-37" d="M577.9839,359.8689l-.4468-5.3889,1.421-10.9241a79.379,79.379,0,0,1,1.75-10.5337c1.0924-3.8831,5.9743-8.906,5.9743-8.906a21.3742,21.3742,0,0,1,4.3906-1.68s-3.4966,1.3049-4.3905,2.2676a48.6,48.6,0,0,0-5.4587,9.1137C579.6961,337.9247,577.8806,358.3959,577.9839,359.8689Z" transform="translate(-125.5062 -220.5007)"/><path class="cls-38" d="M585.9481,327.9772l24.044-.2133h6.0991a12.0711,12.0711,0,0,1,4.7623-5.0049l-27.4224.12S587.4143,326.1277,585.9481,327.9772Z" transform="translate(-125.5062 -220.5007)"/><polygon class="cls-29" points="517.153 114.075 516.574 114.483 505.44 114.075 498.009 113.658 496.767 112.974 517.153 114.075"/><polygon class="cls-29" points="495.347 118.866 495.156 119.757 507.384 119.447 518.857 119.447 495.347 118.866"/><path class="cls-39" d="M602.8034,340.7447a5.6957,5.6957,0,0,1-3.6073,3.8323,13.1825,13.1825,0,0,1-6.329.6242,6.6322,6.6322,0,0,1-2.7835-1.5968l11.4387-2.6129Z" transform="translate(-125.5062 -220.5007)"/><path class="cls-40" d="M601.3953,341.5032c-.98,2.4932-6.7282,4.442-9.5734,3.3133-1.8036-.7149-4.0173-3.5528-4.05-4.275-.0363-.7222,1.4552-5.625,3.7923-6.5794,1.1359-.4645,6.3291-.9762,7.7009,0a5.7156,5.7156,0,0,1,1.5024,2.5077.0276.0276,0,0,1,.0072.0181C601.4316,338.2806,601.7981,340.4835,601.3953,341.5032Z" transform="translate(-125.5062 -220.5007)"/><path class="cls-41" d="M595.4183,341.2637l.0254.08h-2.4532l.4935-2.1592s-.8964-.8347-.7149-1.6912c.1633-.7875,1.1141-1.0052,1.9016-.8673a1.47,1.47,0,0,1,1.02.5589c.4464.7548-.9108,2-.9108,2Z" transform="translate(-125.5062 -220.5007)"/><path class="cls-42" d="M594.78,339.1843l.6387,2.0794H594.17l.4935-2.1593s-.8927-.8347-.7149-1.6947a1.0741,1.0741,0,0,1,.7222-.7839,1.47,1.47,0,0,1,1.02.5589C596.1368,337.94,594.78,339.1843,594.78,339.1843Z" transform="translate(-125.5062 -220.5007)"/><path class="cls-21" d="M600.7675,336.47a5.4509,5.4509,0,0,0-2.5331-2.4025c-1.7746-.7766-6.011.3823-6.67.5268-1.2209.2677-2.4749,3.0043-2.4749,3.0043l-1.3174,2.9431c-.0363-.7222,1.4552-5.625,3.7923-6.5794,1.1359-.4645,6.3291-.9762,7.7009,0A5.7156,5.7156,0,0,1,600.7675,336.47Z" transform="translate(-125.5062 -220.5007)"/><polygon class="cls-43" points="457.302 112.374 458.799 112.374 458.082 112.818 457.302 112.374"/><polygon class="cls-44" points="447.042 130.019 452.031 133.979 452.478 139.368 445.968 139.326 447.042 130.019"/><polygon class="cls-45" points="454.19 131.655 456.136 139.368 453.723 139.522 454.19 131.655"/><path class="cls-46" d="M626.3075,360.71l-1.78-6.5109-2.2539-1.2886v-7.4691l1.5623-.1012.1366-5.166-.7325-.8985,1.05-.1389.233-4.9071-.233-.8235s4.2951-5.8371,9.08-6.0314,5.7081,1.8113,5.7081,1.8113l3.1956.83-1.0142-3.8451-7.0069-3.2963-7.8207,1.1314-4.823,8.1818-2.3348,15.3107.9058,13.4239Z" transform="translate(-125.5062 -220.5007)"/><path class="cls-47" d="M650.4424,359.8685l-2.3352-.0431-.8164-5.9981s-.5576-7.1226-1.0351-10.2372a68.2849,68.2849,0,0,0-5.7424-15.6129c-2.03-3.41-6.86-4.6677-6.86-4.6677-1.3679-.1541-8.0378,2.4588-9.6737,5.4748-1.6327,3.016-3.8786,13.5766-3.9987,15.3758-.1232,1.8022.5761,16.75.5761,16.75l-2.4923.0123v-.0678c.0123-1.1059.1694-15.3726.5083-19.2913.3481-4.0788,3.6969-13.8076,5.7178-16.0658,2.024-2.2581,9.3838-4.4361,9.3838-4.4361l.0185.0092c.37.1756,5.8235,1.1449,8.7327,4.7383,4.4224,5.4621,5.6048,14.7347,6.3041,16.8234.6778,2.0241,1.6513,16.3031,1.71,17.1934A.4321.4321,0,0,1,650.4424,359.8685Z" transform="translate(-125.5062 -220.5007)"/><path class="cls-48" d="M612.6163,344.5189l5.2145-1.6506.2335,17.986-6.6129-.1462S612.1471,348.8883,612.6163,344.5189Z" transform="translate(-125.5062 -220.5007)"/><polygon class="cls-49" points="494.465 124.998 494.481 125.83 517.753 125.83 518.857 124.388 494.465 124.998"/><path class="cls-50" d="M580.1047,344.7426l.831,2.4132,21.1489-.8256,10.2886.8318.1028-1.2175-20.3158-.8S583.75,344.5082,580.1047,344.7426Z" transform="translate(-125.5062 -220.5007)"/><path class="cls-51" d="M615.9166,328.1273a10.3424,10.3424,0,0,1,1.2266-1.5323c.2407-.1032,5.7759-.447,5.9478-.3782s.11.9507.11.9507a6.29,6.29,0,0,1,2.2879-2.6139s-1.2285.4255-1.6754.5286-5.3634-.0687-5.3634-.0687l.4446-.8576A12.8619,12.8619,0,0,0,615.9166,328.1273Z" transform="translate(-125.5062 -220.5007)"/><path class="cls-51" d="M584.983,323.1637l-2.0482.87s3.9913-.0408,4.243-.1592,2.2984-.7828,2.2984-.7828a15.1878,15.1878,0,0,0-2.4537,1.3154,15.7631,15.7631,0,0,0-1.2378,1.4806s.3571-1.0358.3741-1.21a14.0024,14.0024,0,0,0-4.17-.2826,8.6163,8.6163,0,0,0-1.43.9735s.7363-.7859,1.0832-1.0774A24.9013,24.9013,0,0,1,584.983,323.1637Z" transform="translate(-125.5062 -220.5007)"/><path class="cls-21" d="M574.4373,336.364s.0743.17,1.2662.61a17.7341,17.7341,0,0,0,3.5256.6246h-5.1084A11.7281,11.7281,0,0,1,574.4373,336.364Z" transform="translate(-125.5062 -220.5007)"/><path class="cls-52" d="M618.8319,339.812s-1.8721,2.9259-4.6683,3.23c-1.0224.1113-1.1223-1.3882-1.1223-1.3882l-.5653,4.2905a5.0679,5.0679,0,0,1,.8383-1.6465,41.3813,41.3813,0,0,1,4.4959-1.197l.6232.8219S618.6158,340.6961,618.8319,339.812Z" transform="translate(-125.5062 -220.5007)"/><path class="cls-21" d="M597.6136,353.0689l-2.7608.6105s6.3382.44,7.9876.4012,4.2637-.1877,4.2637-.1877l.55-.5048S600.0874,353.6889,597.6136,353.0689Z" transform="translate(-125.5062 -220.5007)"/><polygon class="cls-53" points="453.723 139.522 457.302 138.954 468.419 139.238 484.143 139.522 486.027 138.954 485.945 140.207 453.723 139.522"/><polygon class="cls-54" points="467.433 107.415 475.261 108.332 479.009 108.332 486.113 108.265 490.046 108.559 490.148 108.265 481.896 107.477 467.433 107.415"/><polygon class="cls-55" points="520.58 139.52 515.832 139.362 507.006 139.624 502.18 139.746 495.05 140.409 520.58 139.52"/><polygon class="cls-56" points="490.148 108.265 478.263 107.477 472.107 107.477 467.433 107.415 490.585 107.263 490.148 108.265"/><polygon class="cls-57" points="455.334 128.878 459.938 129.61 455.334 130.019 455.334 128.878"/><polygon class="cls-58" points="455.334 130.019 455.202 130.573 459.182 130.296 461.829 130.019 459.938 129.61 455.334 130.019"/><path class="cls-59" d="M551.9154,358.472l.0979,1.3081a16.7552,16.7552,0,0,0,5.1468.4882,17.0858,17.0858,0,0,0,3.3429-.3659l.1909-1.6855Z" transform="translate(-125.5062 -220.5007)"/><path class="cls-60" d="M551.9528,358.4327c-.4005.18,2.4716.7111,5.9318.4578a5.6788,5.6788,0,0,0,2.8093-.6736C560.6934,357.9222,554.3543,357.3557,551.9528,358.4327Z" transform="translate(-125.5062 -220.5007)"/><path class="cls-61" d="M552.8446,358.74a2.6788,2.6788,0,0,1,.5046.2223,2.7584,2.7584,0,0,1,.0015.8663c-.0328.1033-.6593.12-.6593.12l1.3177.1853,1.31.07s-.3106-.1778-.3108-.2929.1729-.8714.1729-.8714l.552-.0845S553.8234,358.8845,552.8446,358.74Z" transform="translate(-125.5062 -220.5007)"/><path class="cls-62" d="M553.0861,358.7721l3.1315-.9691s1.9051.022,2.5956.0874l-3.08,1.0656A22.1456,22.1456,0,0,1,553.0861,358.7721Z" transform="translate(-125.5062 -220.5007)"/><path class="cls-63" d="M559.7,358.2183c0,.0307-.1426.0816-.3911.1357-.0307.0062-.0644.0139-.0982.02a16.55,16.55,0,0,1-2.8674.2689c-.2409.002-.4833.0024-.7211,0-.063,0-.1259,0-.1888-.0012a15.8206,15.8206,0,0,1-2.5367-.1705.481.481,0,0,1-.1351-.05c-.0154-.0107-.0246-.0215-.0246-.0337,0-.1059.6424-.2743,2.6892-.3929A16.2948,16.2948,0,0,1,559.7,358.2183Z" transform="translate(-125.5062 -220.5007)"/><path class="cls-64" d="M559.3089,358.354c-.0307.0062-.0644.0139-.0982.02a16.55,16.55,0,0,1-2.8674.2689c-.2409.002-.4818.0008-.7211,0-.063,0-.1259,0-.1888-.0012a15.8206,15.8206,0,0,1-2.5367-.1705.481.481,0,0,1-.1351-.05,26.1026,26.1026,0,0,1,3.7912-.1938A27.171,27.171,0,0,1,559.3089,358.354Z" transform="translate(-125.5062 -220.5007)"/><path class="cls-65" d="M553.3066,358.8072a6.5314,6.5314,0,0,1,.7159-.0012c.315.0228,1.2165.1379,1.2165.1379a3.4492,3.4492,0,0,1-1.0806.0148A7.6833,7.6833,0,0,1,553.3066,358.8072Z" transform="translate(-125.5062 -220.5007)"/><path class="cls-66" d="M559.7031,360.0289l.1884-1.5166s.1091.0952.722-.2169l-.3555,1.65S559.9048,360.0029,559.7031,360.0289Z" transform="translate(-125.5062 -220.5007)"/><path class="cls-67" d="M555.1636,358.957s2.7985-.0748,3.8352-.2276a5.7343,5.7343,0,0,0,1.5134-.3839,6.6555,6.6555,0,0,1-2.2351.5782A22.1849,22.1849,0,0,1,555.1636,358.957Z" transform="translate(-125.5062 -220.5007)"/><path class="cls-68" d="M568.6958,360.2512l.1366,1.8247s1.8076.69,7.1794.6809a23.82,23.82,0,0,0,4.6629-.51l.2663-2.351Z" transform="translate(-125.5062 -220.5007)"/><path class="cls-69" d="M568.748,360.1964c-.5587.2506,3.4477.992,8.2743.6386,2.46-.18,3.919-.7752,3.9187-.94C580.94,359.4843,572.0979,358.694,568.748,360.1964Z" transform="translate(-125.5062 -220.5007)"/><path class="cls-70" d="M579.559,362.423l.2627-2.1156s.1523.1328,1.0073-.3025l-.496,2.3013S579.84,362.3867,579.559,362.423Z" transform="translate(-125.5062 -220.5007)"/><path class="cls-71" d="M573.2268,360.9277s3.9036-.1043,5.35-.3174a8.0028,8.0028,0,0,0,2.1111-.5355,9.2883,9.2883,0,0,1-3.1177.8065A30.9437,30.9437,0,0,1,573.2268,360.9277Z" transform="translate(-125.5062 -220.5007)"/><path class="cls-72" d="M568.8116,358.2018l.1365,1.8247s1.8076.69,7.1794.681a13.8977,13.8977,0,0,0,4.6349-.8963l.2943-1.9652Z" transform="translate(-125.5062 -220.5007)"/><path class="cls-73" d="M568.8637,358.1471c-.5586.25,3.4477.9919,8.2743.6386,2.46-.18,3.919-.7752,3.9187-.94C581.0561,357.4349,572.2137,356.6447,568.8637,358.1471Z" transform="translate(-125.5062 -220.5007)"/><path class="cls-74" d="M579.6742,360.1145l.2632-1.8565s.1523.1328,1.0073-.3024l-.448,1.8561A3.8352,3.8352,0,0,1,579.6742,360.1145Z" transform="translate(-125.5062 -220.5007)"/><path class="cls-75" d="M573.3426,358.8784s3.9036-.1044,5.35-.3175a8.0009,8.0009,0,0,0,2.1111-.5354,9.286,9.286,0,0,1-3.1177.8064A30.9328,30.9328,0,0,1,573.3426,358.8784Z" transform="translate(-125.5062 -220.5007)"/><path class="cls-76" d="M567.4518,356.1711l.1366,1.8247s1.8076.69,7.1794.6809a13.8991,13.8991,0,0,0,4.6349-.8962l.2943-1.9652Z" transform="translate(-125.5062 -220.5007)"/><path class="cls-77" d="M567.504,356.1163c-.5587.2506,3.4477.992,8.2743.6386,2.46-.18,3.9189-.7752,3.9187-.94C579.6963,355.4042,570.8539,354.6139,567.504,356.1163Z" transform="translate(-125.5062 -220.5007)"/><path class="cls-78" d="M578.3145,358.0838l.2632-1.8565s.1523.1328,1.0073-.3025l-.4481,1.8561A3.8322,3.8322,0,0,1,578.3145,358.0838Z" transform="translate(-125.5062 -220.5007)"/><path class="cls-79" d="M571.9828,356.8476s3.9036-.1043,5.35-.3174a8.0028,8.0028,0,0,0,2.1111-.5355,9.2883,9.2883,0,0,1-3.1177.8065A30.9437,30.9437,0,0,1,571.9828,356.8476Z" transform="translate(-125.5062 -220.5007)"/><path class="cls-80" d="M562.4075,354.311l.0559,1.75s1.8076.69,7.1793.6809a13.897,13.897,0,0,0,4.6349-.8963l.3231-1.709Z" transform="translate(-125.5062 -220.5007)"/><path class="cls-81" d="M562.4075,354.311c-.5589.1374,3.4469.54,8.2738.3426a13.2419,13.2419,0,0,0,3.9194-.5168C574.6,353.9121,565.7586,353.4869,562.4075,354.311Z" transform="translate(-125.5062 -220.5007)"/><path class="cls-82" d="M573.2174,355.942l.1174-1.5166s.4109.1467,1.2659-.2886l-.5609,1.5024A3.8336,3.8336,0,0,1,573.2174,355.942Z" transform="translate(-125.5062 -220.5007)"/><path class="cls-83" d="M566.8857,354.7059s3.9036-.1044,5.35-.3175,2.3653-.2516,2.3653-.2516a33.3259,33.3259,0,0,1-3.3719.5226A28.2478,28.2478,0,0,1,566.8857,354.7059Z" transform="translate(-125.5062 -220.5007)"/><path class="cls-84" d="M563.662,352.1993l.0559,1.75s1.8076.69,7.1794.6809a13.8977,13.8977,0,0,0,4.6349-.8963l.323-1.709Z" transform="translate(-125.5062 -220.5007)"/><path class="cls-85" d="M563.662,352.1993c-.5589.1374,3.4469.54,8.2738.3426a13.2419,13.2419,0,0,0,3.9194-.5168C575.8549,351.8,567.0131,351.3752,563.662,352.1993Z" transform="translate(-125.5062 -220.5007)"/><path class="cls-86" d="M574.4719,353.83l.1175-1.5165s.4108.1466,1.2658-.2887l-.5608,1.5024A3.8352,3.8352,0,0,1,574.4719,353.83Z" transform="translate(-125.5062 -220.5007)"/><path class="cls-87" d="M568.14,352.5942s3.9036-.1044,5.35-.3175,2.3653-.2516,2.3653-.2516a33.2837,33.2837,0,0,1-3.3719.5226A28.2481,28.2481,0,0,1,568.14,352.5942Z" transform="translate(-125.5062 -220.5007)"/><path class="cls-88" d="M557.9563,360.5516l.1365,1.8248s1.8076.69,7.1794.6809a23.82,23.82,0,0,0,4.6629-.51l.2663-2.351Z" transform="translate(-125.5062 -220.5007)"/><path class="cls-89" d="M558.0085,360.4969c-.5587.2505,3.4476.992,8.2743.6386,2.46-.18,3.9189-.7752,3.9186-.94C570.2008,359.7848,561.3584,358.9945,558.0085,360.4969Z" transform="translate(-125.5062 -220.5007)"/><path class="cls-61" d="M559.2525,360.9256a3.7351,3.7351,0,0,1,.7039.31,3.8524,3.8524,0,0,1,.0021,1.2083c-.0458.1441-.92.168-.92.168l1.8381.2585,1.8271.0981s-.4333-.2479-.4336-.4085.2412-1.2155.2412-1.2155l.77-.1179S560.6178,361.1271,559.2525,360.9256Z" transform="translate(-125.5062 -220.5007)"/><path class="cls-62" d="M559.5894,360.97l4.3681-1.3518s2.6574.0306,3.6206.1219l-4.2966,1.4864A30.87,30.87,0,0,1,559.5894,360.97Z" transform="translate(-125.5062 -220.5007)"/><path class="cls-90" d="M568.815,360.1978c0,.0428-.1988.1138-.5455.1893-.0427.0086-.09.0194-.1369.0281a23.0831,23.0831,0,0,1-4,.375c-.3361.0028-.6743.0033-1.006,0-.0878,0-.1755,0-.2633-.0016a22.0717,22.0717,0,0,1-3.5385-.2379.669.669,0,0,1-.1885-.07c-.0214-.015-.0343-.03-.0343-.0471,0-.1476.8962-.3825,3.7512-.548A22.7318,22.7318,0,0,1,568.815,360.1978Z" transform="translate(-125.5062 -220.5007)"/><path class="cls-91" d="M568.27,360.3871c-.0427.0086-.09.0194-.1369.0281a23.0831,23.0831,0,0,1-4,.375c-.3361.0028-.6721.0012-1.006,0-.0878,0-.1755,0-.2633-.0016a22.0717,22.0717,0,0,1-3.5385-.2379.669.669,0,0,1-.1885-.07,36.4084,36.4084,0,0,1,5.2885-.27A37.8792,37.8792,0,0,1,568.27,360.3871Z" transform="translate(-125.5062 -220.5007)"/><path class="cls-65" d="M559.8969,361.0193a9.1083,9.1083,0,0,1,.9986-.0017c.4394.0317,1.6969.1924,1.6969.1924a4.8122,4.8122,0,0,1-1.5073.0207A10.7084,10.7084,0,0,1,559.8969,361.0193Z" transform="translate(-125.5062 -220.5007)"/><path class="cls-92" d="M568.8194,362.7234l.2628-2.1155s.1522.1328,1.0072-.3025l-.496,2.3013S569.1008,362.6872,568.8194,362.7234Z" transform="translate(-125.5062 -220.5007)"/><path class="cls-93" d="M562.4873,361.2282s3.9036-.1043,5.35-.3174a8.001,8.001,0,0,0,2.111-.5355,9.2873,9.2873,0,0,1-3.1177.8065A30.9424,30.9424,0,0,1,562.4873,361.2282Z" transform="translate(-125.5062 -220.5007)"/><path class="cls-94" d="M558.44,358.561l.1365,1.8247s1.8076.69,7.1794.681a23.824,23.824,0,0,0,4.6629-.5105l.2663-2.351Z" transform="translate(-125.5062 -220.5007)"/><path class="cls-95" d="M558.4919,358.5062c-.5586.2506,3.4477.992,8.2743.6386,2.46-.18,3.919-.7751,3.9187-.94C570.6843,357.7941,561.8419,357.0039,558.4919,358.5062Z" transform="translate(-125.5062 -220.5007)"/><path class="cls-61" d="M559.736,358.935a3.74,3.74,0,0,1,.7039.31,3.85,3.85,0,0,1,.002,1.2084c-.0457.1441-.92.1679-.92.1679l1.8381.2586,1.8271.0981s-.4333-.248-.4336-.4086.2412-1.2154.2412-1.2154l.77-.1179S561.1012,359.1365,559.736,358.935Z" transform="translate(-125.5062 -220.5007)"/><path class="cls-62" d="M560.0729,358.98l4.368-1.3518s2.6575.0307,3.6207.122l-4.2966,1.4864A30.8778,30.8778,0,0,1,560.0729,358.98Z" transform="translate(-125.5062 -220.5007)"/><path class="cls-96" d="M569.2985,358.2071c0,.0429-.1988.1138-.5455.1893-.0428.0087-.09.0195-.1369.0281a23.0915,23.0915,0,0,1-4,.3751c-.336.0027-.6742.0033-1.0059,0-.0878,0-.1756,0-.2633-.0017a22.0717,22.0717,0,0,1-3.5385-.2379.669.669,0,0,1-.1885-.07c-.0214-.0149-.0343-.03-.0343-.047,0-.1477.8962-.3826,3.7512-.548A22.7345,22.7345,0,0,1,569.2985,358.2071Z" transform="translate(-125.5062 -220.5007)"/><path class="cls-97" d="M568.753,358.3964c-.0428.0087-.09.0195-.1369.0281a23.0915,23.0915,0,0,1-4,.3751c-.336.0027-.672.0011-1.0059,0-.0878,0-.1756,0-.2633-.0017a22.0717,22.0717,0,0,1-3.5385-.2379.669.669,0,0,1-.1885-.07,36.4223,36.4223,0,0,1,5.2885-.27A37.9113,37.9113,0,0,1,568.753,358.3964Z" transform="translate(-125.5062 -220.5007)"/><path class="cls-65" d="M560.38,359.0286a9.1083,9.1083,0,0,1,.9986-.0017c.4394.0318,1.6969.1924,1.6969.1924a4.8086,4.8086,0,0,1-1.5073.0207A10.7084,10.7084,0,0,1,560.38,359.0286Z" transform="translate(-125.5062 -220.5007)"/><path class="cls-98" d="M569.3029,360.7328l.2627-2.1156s.1523.1328,1.0073-.3025l-.496,2.3014S569.5843,360.6966,569.3029,360.7328Z" transform="translate(-125.5062 -220.5007)"/><path class="cls-99" d="M562.9708,359.2376s3.9036-.1044,5.35-.3175a7.9976,7.9976,0,0,0,2.111-.5355,9.2844,9.2844,0,0,1-3.1177.8065A30.933,30.933,0,0,1,562.9708,359.2376Z" transform="translate(-125.5062 -220.5007)"/><path class="cls-100" d="M557.8289,356.36l.1366,1.8247s1.8076.69,7.1794.681a23.82,23.82,0,0,0,4.6629-.51l.2663-2.3511Z" transform="translate(-125.5062 -220.5007)"/><path class="cls-101" d="M557.8811,356.3054c-.5587.2506,3.4477.992,8.2743.6387,2.46-.18,3.9189-.7752,3.9187-.94C570.0734,355.5933,561.231,354.8031,557.8811,356.3054Z" transform="translate(-125.5062 -220.5007)"/><path class="cls-61" d="M559.1251,356.7342a3.74,3.74,0,0,1,.7039.31,3.847,3.847,0,0,1,.0021,1.2084c-.0457.1441-.92.1679-.92.1679l1.8382.2586,1.8271.0981s-.4334-.2479-.4337-.4086.2413-1.2154.2413-1.2154l.77-.1179S560.49,356.9357,559.1251,356.7342Z" transform="translate(-125.5062 -220.5007)"/><path class="cls-62" d="M559.462,356.7789l4.3681-1.3519s2.6574.0307,3.6207.122l-4.2966,1.4864A30.895,30.895,0,0,1,559.462,356.7789Z" transform="translate(-125.5062 -220.5007)"/><path class="cls-102" d="M568.6877,356.0064c0,.0428-.1989.1137-.5455.1893-.0428.0086-.09.0194-.1369.028a23.0815,23.0815,0,0,1-4,.3751c-.336.0027-.6742.0033-1.006,0-.0877,0-.1755,0-.2633-.0017a22.07,22.07,0,0,1-3.5384-.2379.6677.6677,0,0,1-.1885-.07c-.0214-.0149-.0343-.03-.0343-.047,0-.1477.8961-.3825,3.7511-.548A22.7332,22.7332,0,0,1,568.6877,356.0064Z" transform="translate(-125.5062 -220.5007)"/><path class="cls-103" d="M568.1422,356.1957c-.0428.0086-.09.0194-.1369.028a23.0815,23.0815,0,0,1-4,.3751c-.336.0027-.6721.0012-1.006,0-.0877,0-.1755,0-.2633-.0017a22.07,22.07,0,0,1-3.5384-.2379.6677.6677,0,0,1-.1885-.07,36.4216,36.4216,0,0,1,5.2884-.27A37.8732,37.8732,0,0,1,568.1422,356.1957Z" transform="translate(-125.5062 -220.5007)"/><path class="cls-65" d="M559.77,356.8279a9.1261,9.1261,0,0,1,.9987-.0018c.4394.0318,1.6968.1925,1.6968.1925a4.81,4.81,0,0,1-1.5072.0206A10.7308,10.7308,0,0,1,559.77,356.8279Z" transform="translate(-125.5062 -220.5007)"/><path class="cls-104" d="M568.692,358.532l.2628-2.1156s.1523.1328,1.0072-.3024l-.496,2.3013S568.9735,358.4958,568.692,358.532Z" transform="translate(-125.5062 -220.5007)"/><path class="cls-105" d="M562.36,357.0368s3.9036-.1044,5.35-.3175a8.0009,8.0009,0,0,0,2.1111-.5354,9.287,9.287,0,0,1-3.1177.8064A30.9343,30.9343,0,0,1,562.36,357.0368Z" transform="translate(-125.5062 -220.5007)"/><path class="cls-106" d="M568.2251,358.2582l.1366,1.8247s1.8076.69,7.1793.681a23.8289,23.8289,0,0,0,4.663-.51l.2663-2.3511Z" transform="translate(-125.5062 -220.5007)"/><path class="cls-107" d="M568.2773,358.2034c-.5587.2506,3.4477.992,8.2743.6387,2.46-.18,3.9189-.7752,3.9187-.94C580.47,357.4913,571.6272,356.7011,568.2773,358.2034Z" transform="translate(-125.5062 -220.5007)"/><path class="cls-61" d="M569.5213,358.6322a3.74,3.74,0,0,1,.7039.31,3.847,3.847,0,0,1,.0021,1.2084c-.0458.1441-.92.1679-.92.1679l1.8382.2586,1.827.0981s-.4333-.2479-.4336-.4086.2413-1.2154.2413-1.2154l.77-.1179S570.8866,358.8337,569.5213,358.6322Z" transform="translate(-125.5062 -220.5007)"/><path class="cls-62" d="M569.8582,358.6769l4.3681-1.3519s2.6574.0307,3.6207.122l-4.2966,1.4864A30.895,30.895,0,0,1,569.8582,358.6769Z" transform="translate(-125.5062 -220.5007)"/><path class="cls-108" d="M579.0839,357.9044c0,.0428-.1989.1137-.5455.1893-.0428.0086-.09.0194-.137.028a23.0791,23.0791,0,0,1-4,.3751c-.336.0027-.6742.0033-1.006,0-.0877,0-.1755,0-.2633-.0017a22.0717,22.0717,0,0,1-3.5385-.2379.668.668,0,0,1-.1884-.07c-.0215-.0149-.0343-.03-.0344-.047,0-.1477.8962-.3825,3.7512-.548A22.7332,22.7332,0,0,1,579.0839,357.9044Z" transform="translate(-125.5062 -220.5007)"/><path class="cls-109" d="M578.5384,358.0937c-.0428.0086-.09.0194-.137.028a23.0791,23.0791,0,0,1-4,.3751c-.336.0027-.6721.0012-1.006,0-.0877,0-.1755,0-.2633-.0017a22.0717,22.0717,0,0,1-3.5385-.2379.668.668,0,0,1-.1884-.07,36.4216,36.4216,0,0,1,5.2884-.27A37.8732,37.8732,0,0,1,578.5384,358.0937Z" transform="translate(-125.5062 -220.5007)"/><path class="cls-65" d="M570.1657,358.7259a9.124,9.124,0,0,1,.9986-.0018c.4394.0318,1.6969.1925,1.6969.1925a4.81,4.81,0,0,1-1.5072.0206A10.7308,10.7308,0,0,1,570.1657,358.7259Z" transform="translate(-125.5062 -220.5007)"/><path class="cls-110" d="M579.0882,360.43l.2628-2.1156s.1523.1328,1.0072-.3024l-.496,2.3013S579.37,360.3938,579.0882,360.43Z" transform="translate(-125.5062 -220.5007)"/><path class="cls-111" d="M572.7561,358.9348s3.9036-.1044,5.35-.3175a8.0009,8.0009,0,0,0,2.1111-.5354,9.287,9.287,0,0,1-3.1177.8064A30.9343,30.9343,0,0,1,572.7561,358.9348Z" transform="translate(-125.5062 -220.5007)"/><path class="cls-112" d="M572.299,355.2979l-.0489,1.8292s1.7285.87,7.0736,1.4042a23.8283,23.8283,0,0,0,4.6907-.0358l.5029-2.3121Z" transform="translate(-125.5062 -220.5007)"/><path class="cls-113" d="M572.3564,355.2487c-.5811.1927,3.33,1.3359,8.1672,1.4729,2.4656.07,3.9773-.3745,3.9937-.5382C584.5582,355.7744,575.8413,354.0931,572.3564,355.2487Z" transform="translate(-125.5062 -220.5007)"/><path class="cls-61" d="M573.5507,355.8011a3.74,3.74,0,0,1,.6689.38,3.85,3.85,0,0,1-.12,1.2023c-.06.1387-.932.074-.932.074l1.8025.4433,1.8078.2825s-.406-.2905-.39-.45.3631-1.1848.3631-1.1848l.7779-.0393S574.8886,356.14,573.5507,355.8011Z" transform="translate(-125.5062 -220.5007)"/><path class="cls-62" d="M573.8813,355.88l4.4825-.9027s2.6407.3,3.59.4878l-4.425,1.0439A30.8832,30.8832,0,0,1,573.8813,355.88Z" transform="translate(-125.5062 -220.5007)"/><path class="cls-114" d="M583.1378,356.045c-.0043.0426-.2094.0931-.5618.1332-.0435.0042-.0914.01-.1391.014a23.0842,23.0842,0,0,1-4.0172-.0317c-.3346-.0313-.6711-.065-1.0008-.1023-.0873-.0087-.1746-.0174-.2617-.0283a22.0719,22.0719,0,0,1-3.4963-.5948.6715.6715,0,0,1-.18-.089c-.02-.0171-.031-.0333-.0293-.05.0147-.147.93-.29,3.7873-.1655A22.74,22.74,0,0,1,583.1378,356.045Z" transform="translate(-125.5062 -220.5007)"/><path class="cls-115" d="M582.576,356.1782c-.0435.0042-.0914.01-.1391.014a23.0842,23.0842,0,0,1-4.0172-.0317c-.3346-.0313-.6687-.0669-1.0008-.1023-.0873-.0087-.1746-.0174-.2617-.0283a22.0719,22.0719,0,0,1-3.4963-.5948.6715.6715,0,0,1-.18-.089,36.4178,36.4178,0,0,1,5.2887.2664A37.8749,37.8749,0,0,1,582.576,356.1782Z" transform="translate(-125.5062 -220.5007)"/><path class="cls-65" d="M574.1823,355.96a9.1032,9.1032,0,0,1,.9937.0993c.4339.0761,1.6686.3632,1.6686.3632a4.8088,4.8088,0,0,1-1.5015-.132A10.7245,10.7245,0,0,1,574.1823,355.96Z" transform="translate(-125.5062 -220.5007)"/><path class="cls-116" d="M582.8865,358.5582l.4755-2.0781s.1381.1475,1.0327-.199l-.7264,2.2393S583.17,358.5506,582.8865,358.5582Z" transform="translate(-125.5062 -220.5007)"/><path class="cls-117" d="M576.7382,356.43s3.8942.2914,5.3544.2257a7.9979,7.9979,0,0,0,2.1544-.319,9.2869,9.2869,0,0,1-3.1833.4868A30.9422,30.9422,0,0,1,576.7382,356.43Z" transform="translate(-125.5062 -220.5007)"/><path class="cls-118" d="M568.7,353.1088l-1.1972,1.3838s.7856,1.7682,4.581,5.57a23.816,23.816,0,0,0,3.6508,2.9455l1.8544-1.4695Z" transform="translate(-125.5062 -220.5007)"/><path class="cls-119" d="M568.7755,353.1071c-.5716-.2193,1.7285,3.1437,5.3834,6.316,1.8627,1.6168,3.3136,2.2313,3.43,2.1151C577.88,361.2478,572.2033,354.4222,568.7755,353.1071Z" transform="translate(-125.5062 -220.5007)"/><path class="cls-61" d="M569.349,354.2914a3.7363,3.7363,0,0,1,.2766.7177,3.8453,3.8453,0,0,1-.8551.8538c-.1344.0692-.7677-.5336-.7677-.5336l1.1131,1.4854,1.2192,1.3644s-.13-.482-.0162-.5955,1.0317-.6863,1.0317-.6863l.6267.4627S570.1692,355.4014,569.349,354.2914Z" transform="translate(-125.5062 -220.5007)"/><path class="cls-62" d="M569.555,354.5617l4.0392,2.143s1.8526,1.9055,2.4673,2.6527l-4.0842-1.9974A30.8753,30.8753,0,0,1,569.555,354.5617Z" transform="translate(-125.5062 -220.5007)"/><path class="cls-120" d="M576.61,360.5568c-.03.03-.221-.0607-.519-.2532-.0363-.0242-.0771-.05-.1165-.0772a23.0832,23.0832,0,0,1-3.0869-2.5709c-.239-.2362-.4779-.4756-.7093-.7134-.062-.0621-.124-.1242-.1845-.1878a22.0873,22.0873,0,0,1-2.3272-2.6761.6736.6736,0,0,1-.0831-.1832.0635.0635,0,0,1,.0092-.0576c.1045-.1043.9032.3655,3.0342,2.2727A22.7341,22.7341,0,0,1,576.61,360.5568Z" transform="translate(-125.5062 -220.5007)"/><path class="cls-121" d="M576.0907,360.3036c-.0363-.0242-.0771-.05-.1165-.0772a23.0832,23.0832,0,0,1-3.0869-2.5709c-.239-.2362-.4749-.4756-.7093-.7134-.062-.0621-.124-.1242-.1845-.1878a22.0873,22.0873,0,0,1-2.3272-2.6761.6736.6736,0,0,1-.0831-.1832,36.4022,36.4022,0,0,1,3.9217,3.5582A37.8939,37.8939,0,0,1,576.0907,360.3036Z" transform="translate(-125.5062 -220.5007)"/><path class="cls-65" d="M569.7372,354.8143a9.1192,9.1192,0,0,1,.7055.7067c.2874.3339,1.06,1.3386,1.06,1.3386a4.8111,4.8111,0,0,1-1.0777-1.0539A10.689,10.689,0,0,1,569.7372,354.8143Z" transform="translate(-125.5062 -220.5007)"/><path class="cls-122" d="M574.8223,362.3413l1.6851-1.3059s.0132.2016.9248.5007l-1.9812,1.2716S575.0465,362.5152,574.8223,362.3413Z" transform="translate(-125.5062 -220.5007)"/><path class="cls-123" d="M571.4161,356.7979s2.8273,2.6937,3.9983,3.5684a8.0028,8.0028,0,0,0,1.8686,1.1189,9.2864,9.2864,0,0,1-2.7707-1.6413A30.94,30.94,0,0,1,571.4161,356.7979Z" transform="translate(-125.5062 -220.5007)"/><path class="cls-124" d="M553.6725,361.6586l1.44,1.1286s1.728-.8706,5.3406-4.8462a23.822,23.822,0,0,0,2.7647-3.7894l-1.5578-1.7809Z" transform="translate(-125.5062 -220.5007)"/><path class="cls-125" d="M553.6672,361.5831c-.1913.5817,3.056-1.8791,6.047-5.6837,1.5245-1.9391,2.0678-3.4181,1.9461-3.5287C561.3561,352.0942,554.8142,358.0955,553.6672,361.5831Z" transform="translate(-125.5062 -220.5007)"/><path class="cls-61" d="M554.8222,360.9528a3.7361,3.7361,0,0,1,.7034-.3111,3.8471,3.8471,0,0,1,.8943.8126c.0757.1309-.4956.7928-.4956.7928l1.43-1.184,1.3035-1.284s-.4751.1532-.594.0451-.7356-.9972-.7356-.9972l.4317-.6484S555.891,360.08,554.8222,360.9528Z" transform="translate(-125.5062 -220.5007)"/><path class="cls-62" d="M555.0822,360.7339l1.9443-4.1385s1.8132-1.9429,2.53-2.5932l-1.7967,4.1764A30.8744,30.8744,0,0,1,555.0822,360.7339Z" transform="translate(-125.5062 -220.5007)"/><path class="cls-126" d="M560.7276,353.3965c.0317.0288-.05.2236-.2277.5306-.0224.0374-.0462.0795-.0715.12a23.0784,23.0784,0,0,1-2.4179,3.2082c-.2244.25-.4518.5-.6781.743-.059.065-.118.13-.1786.1934a22.0814,22.0814,0,0,1-2.56,2.4544.6676.6676,0,0,1-.179.0919.0633.0633,0,0,1-.0579-.0063c-.1093-.0993.3212-.92,2.1226-3.1411A22.7334,22.7334,0,0,1,560.7276,353.3965Z" transform="translate(-125.5062 -220.5007)"/><path class="cls-127" d="M560.5,353.9271c-.0224.0374-.0462.0795-.0715.12a23.0784,23.0784,0,0,1-2.4179,3.2082c-.2244.25-.452.4974-.6781.743-.059.065-.118.13-.1786.1934a22.0814,22.0814,0,0,1-2.56,2.4544.6676.6676,0,0,1-.179.0919,36.4309,36.4309,0,0,1,3.3636-4.09A37.8768,37.8768,0,0,1,560.5,353.9271Z" transform="translate(-125.5062 -220.5007)"/><path class="cls-65" d="M555.3256,360.54a9.1141,9.1141,0,0,1,.6716-.739c.3195-.3033,1.2855-1.1242,1.2855-1.1242a4.8087,4.8087,0,0,1-1,1.1276A10.6991,10.6991,0,0,1,555.3256,360.54Z" transform="translate(-125.5062 -220.5007)"/><path class="cls-128" d="M562.5968,355.095l-1.3862-1.62s.2007-.023.4552-.9481l1.3663,1.9171S562.76,354.8626,562.5968,355.095Z" transform="translate(-125.5062 -220.5007)"/><path class="cls-129" d="M557.2254,358.7664s2.5531-2.9547,3.37-4.1669a8,8,0,0,0,1.0268-1.9206,9.2873,9.2873,0,0,1-1.5048,2.8471A30.9342,30.9342,0,0,1,557.2254,358.7664Z" transform="translate(-125.5062 -220.5007)"/><path class="cls-130" d="M568.8764,360.9631l.1732,1.8216s1.8212.6537,7.1917.5362a23.8271,23.8271,0,0,0,4.6517-.6043l.2188-2.356Z" transform="translate(-125.5062 -220.5007)"/><path class="cls-131" d="M568.9274,360.9073c-.5535.2618,3.467.9223,8.2855.4718,2.4559-.23,3.9025-.854,3.8989-1.0185C581.1029,359.95,572.2464,359.3377,568.9274,360.9073Z" transform="translate(-125.5062 -220.5007)"/><path class="cls-61" d="M570.18,361.3109a3.7357,3.7357,0,0,1,.71.2959,3.8477,3.8477,0,0,1,.0264,1.208c-.0428.145-.9161.1865-.9161.1865l1.8429.2215,1.8287.0612s-.4382-.2391-.4418-.4.2167-1.22.2167-1.22l.7675-.1333S571.5489,361.4848,570.18,361.3109Z" transform="translate(-125.5062 -220.5007)"/><path class="cls-62" d="M570.5175,361.3488l4.34-1.44s2.6575-.0229,3.6224.049l-4.2658,1.5727A30.8976,30.8976,0,0,1,570.5175,361.3488Z" transform="translate(-125.5062 -220.5007)"/><path class="cls-132" d="M579.7258,360.3905c.0009.0428-.1966.1178-.5416.2-.0426.01-.09.0212-.1363.0308a23.0841,23.0841,0,0,1-3.9914.4556c-.3359.01-.674.0169-1.0058.02-.0877.0019-.1755.0038-.2633.0036a22.0849,22.0849,0,0,1-3.5425-.1665.6728.6728,0,0,1-.19-.0665c-.0217-.0146-.0349-.0293-.0352-.0464-.0033-.1476.8882-.4005,3.7393-.6235A22.7358,22.7358,0,0,1,579.7258,360.3905Z" transform="translate(-125.5062 -220.5007)"/><path class="cls-133" d="M579.1842,360.5908c-.0426.01-.09.0212-.1363.0308a23.0841,23.0841,0,0,1-3.9914.4556c-.3359.01-.6719.0147-1.0058.02-.0877.0019-.1755.0038-.2633.0036a22.0849,22.0849,0,0,1-3.5425-.1665.6728.6728,0,0,1-.19-.0665,36.411,36.411,0,0,1,5.2819-.3768A37.866,37.866,0,0,1,579.1842,360.5908Z" transform="translate(-125.5062 -220.5007)"/><path class="cls-65" d="M570.826,361.3916a9.11,9.11,0,0,1,.9984-.0219c.44.0229,1.7.1582,1.7.1582a4.8105,4.8105,0,0,1-1.5066.051A10.7305,10.7305,0,0,1,570.826,361.3916Z" transform="translate(-125.5062 -220.5007)"/><path class="cls-134" d="M579.781,362.9156l.22-2.12s.1549.13,1.0009-.3227l-.4495,2.3109S580.0616,362.8737,579.781,362.9156Z" transform="translate(-125.5062 -220.5007)"/><path class="cls-135" d="M573.42,361.5482s3.9007-.1829,5.3422-.4252a8.0008,8.0008,0,0,0,2.1-.5778,9.286,9.286,0,0,1-3.1008.8691A30.94,30.94,0,0,1,573.42,361.5482Z" transform="translate(-125.5062 -220.5007)"/><path class="cls-136" d="M583.3254,360.4184l.1181,1.2423a15.9366,15.9366,0,0,0,4.9045.3656,16.2454,16.2454,0,0,0,3.1723-.4121l.1493-1.6067Z" transform="translate(-125.5062 -220.5007)"/><path class="cls-137" d="M583.36,360.38c-.3775.1785,2.3643.629,5.65.3218a5.401,5.401,0,0,0,2.659-.6946C591.6635,359.7273,585.6236,359.31,583.36,360.38Z" transform="translate(-125.5062 -220.5007)"/><path class="cls-61" d="M584.2143,360.6556a2.5461,2.5461,0,0,1,.4842.2018,2.6247,2.6247,0,0,1,.018.8238c-.0292.0989-.6248.1272-.6248.1272l1.2568.151,1.2471.0418s-.2988-.1631-.3012-.2726.1477-.8321.1477-.8321l.5234-.0909S585.1479,360.7742,584.2143,360.6556Z" transform="translate(-125.5062 -220.5007)"/><path class="cls-62" d="M584.4446,360.6814l2.96-.9818s1.8123-.0155,2.47.0335l-2.9092,1.0725A21.0525,21.0525,0,0,1,584.4446,360.6814Z" transform="translate(-125.5062 -220.5007)"/><path class="cls-138" d="M590.7243,360.0279c.0006.0292-.134.08-.3693.1366-.0291.0065-.061.0145-.093.021a15.7379,15.7379,0,0,1-2.722.3107c-.2291.0065-.46.0115-.6859.0135-.06.0014-.12.0027-.1795.0025a15.0556,15.0556,0,0,1-2.416-.1135.4594.4594,0,0,1-.1294-.0454c-.0148-.01-.0238-.02-.0241-.0316-.0022-.1007.6058-.2731,2.55-.4252A15.5037,15.5037,0,0,1,590.7243,360.0279Z" transform="translate(-125.5062 -220.5007)"/><path class="cls-139" d="M590.355,360.1645c-.0291.0065-.061.0145-.093.021a15.7379,15.7379,0,0,1-2.722.3107c-.2291.0065-.4582.01-.6859.0135-.06.0014-.12.0027-.1795.0025a15.0556,15.0556,0,0,1-2.416-.1135.4594.4594,0,0,1-.1294-.0454,24.8391,24.8391,0,0,1,3.6021-.257A25.8418,25.8418,0,0,1,590.355,360.1645Z" transform="translate(-125.5062 -220.5007)"/><path class="cls-65" d="M584.6549,360.7106a6.2231,6.2231,0,0,1,.6809-.0149c.3.0156,1.16.1079,1.16.1079a3.2816,3.2816,0,0,1-1.0274.0348A7.3218,7.3218,0,0,1,584.6549,360.7106Z" transform="translate(-125.5062 -220.5007)"/><path class="cls-140" d="M590.762,361.75l.15-1.4461s.1056.0885.6826-.22l-.3066,1.5759S590.9534,361.7213,590.762,361.75Z" transform="translate(-125.5062 -220.5007)"/><path class="cls-141" d="M586.424,360.8174s2.66-.1247,3.6432-.29a5.4551,5.4551,0,0,0,1.432-.3941,6.3326,6.3326,0,0,1-2.1146.5927A21.0961,21.0961,0,0,1,586.424,360.8174Z" transform="translate(-125.5062 -220.5007)"/><polygon class="cls-142" points="519.814 165.209 544.953 168.036 627.352 170.371 585.389 163.825 570.035 161.353 519.814 165.209"/><path class="cls-143" d="M645.32,385.71s8.4814-15.0181,17.5977-18.8076l10.8847,2,7.0572-.9186s11.1323-12.1039,18.206-16.6979l7.0813-2.93-1.2484,21.4878,3.5076,1.0557-2.2592,14.022Z" transform="translate(-125.5062 -220.5007)"/><polygon class="cls-144" points="523.189 159.958 537.411 158.275 548.296 148.402 537.411 146.402 532.507 147.918 523.189 159.958"/><path class="cls-145" d="M680.86,367.9837l6.8133.5608,15.3085-16.6737H700.834l-3.1579,3.4105,1.7684-3.1579-.3789-.8376A109.6874,109.6874,0,0,0,680.86,367.9837Z" transform="translate(-125.5062 -220.5007)"/><polygon class="cls-146" points="579.392 149.343 573.559 150.318 562.167 160.296 576.591 152.797 582.9 150.399 579.392 149.343"/><polygon class="cls-147" points="538.191 146.402 548.928 148.044 557.012 146.532 562.167 148.044 546.463 150.065 538.191 146.402"/><path class="cls-148" d="M699.0656,351.2858h3.221l-1.4526.585h2.1474l3.04-1.3556.1255-2.1594S705.0134,347.92,699.0656,351.2858Z" transform="translate(-125.5062 -220.5007)"/><path class="cls-149" d="M699.0656,370.8182l3.0316,2.4791,6.3089-2.398-3.7826-1.0557S702.7288,369.2392,699.0656,370.8182Z" transform="translate(-125.5062 -220.5007)"/><polygon class="cls-150" points="577.475 131.37 575.347 149.229 579.117 149.343 580.515 130.015 577.475 131.37"/><polygon class="cls-151" points="582.9 150.399 576.591 152.797 577.1 164.467 562.823 164.652 562.167 160.296 573.559 150.318 569.068 140.527 562.459 148.089 546.463 150.065 548.865 164.652 580.641 164.421 582.9 150.399"/><polygon class="cls-152" points="544.832 149.343 548.296 149.829 546.463 151.013 544.832 149.343"/><polygon class="cls-152" points="577.475 131.37 575.328 131.37 580.515 130.015 577.283 132.981 577.475 131.37"/><path class="cls-153" d="M433.4387,365.7561s10.6989-22.172,14.5389-24.7746c0,0,17.3482-2.4219,28.0264,2.2965l7.6452,6.5485a40.0288,40.0288,0,0,1,9.8526,1.855l7.3341,12.4192-28.4851,1.5637Z" transform="translate(-125.5062 -220.5007)"/><path class="cls-154" d="M447.9776,340.9815s-1.3137,1.9135,0,3.066,15.9254,2.163,21.4406,1.6578,6.5858-2.4273,6.5858-2.4273S468.7692,338.4052,447.9776,340.9815Z" transform="translate(-125.5062 -220.5007)"/><path class="cls-154" d="M483.6492,349.8265s-1.9982,1.3449-8.7585,1.7066-11.6347.1484-11.6347.1484a127.6026,127.6026,0,0,0,19.1066,2.0246c8.8655.0834,11.1392-2.0246,11.1392-2.0246A36.5979,36.5979,0,0,0,483.6492,349.8265Z" transform="translate(-125.5062 -220.5007)"/><path class="cls-155" d="M501.9725,335.1709l-.6135-1.3373s-8.3258-9.206-18.8635-12.3969-23.9244-1.9088-23.9244-1.9088l-.5624.8905Z" transform="translate(-125.5062 -220.5007)"/><path class="cls-156" d="M487.0347,324.11s9.8257,6.3578,14.9378,11.0609c0,0-5.7255,21.88-14.9272,31.2858s-27.72,6.4665-31.81-6.9755,2.7731-39.0628,2.7731-39.0628a72.995,72.995,0,0,1,22.3622,1.6838Z" transform="translate(-125.5062 -220.5007)"/><path class="cls-157" d="M478.6023,323.6828s4.3546,4.2494,9.6725,3.2052c0,0,.0808-.7365.2184-1.9345.4938-4.1846,1.7322-13.9542,2.8492-16.9814,1.4246-3.8852,3.27-6.3377,4.4922-9.81,1.23-3.4805,3.8852-14.8608,5.7306-21.5385,1.2223-4.4436,7.6732-26.2653,11.8741-40.43,2.1206-7.1714,3.6666-12.3759,3.6666-12.3759s-.8175-4.1765-6.9528-3.1566c0,0-10.4333,50.4019-13.501,58.1237-3.06,7.7218-9.4053,14.9983-10.0123,16.5767-.6152,1.57-1.5541,9.7453-3.3915,16.083a90.2944,90.2944,0,0,1-3.869,10.5223v.0081C478.9018,323.0514,478.6023,323.6828,478.6023,323.6828Z" transform="translate(-125.5062 -220.5007)"/><path class="cls-158" d="M489.5519,325.7839s-10.43,25.7967-15.3379,26.41,2.8731-30.7573,2.8731-30.7573S485.9323,323.2779,489.5519,325.7839Z" transform="translate(-125.5062 -220.5007)"/><path class="cls-159" d="M479.3793,321.9668v.0081l9.0978,2.9705c-.259-.1456-4.5246-2.5253-5.3178-4.7593-.8176-2.3149,5.3178-21.9674,5.3178-21.9674s5.9329-2.5092,8.175-10.87c2.25-8.3611,8.7983-39.0864,10.231-41.7979,1.4245-2.72,6.54-9.3244,6.54-9.3244l.0162-.0324c2.1206-7.1714,3.6666-12.3759,3.6666-12.3759s-.8175-4.1765-6.9528-3.1566c0,0-10.4333,50.4019-13.501,58.1237-3.06,7.7218-9.4053,14.9983-10.0123,16.5767-.6152,1.57-1.5541,9.7453-3.3915,16.083A90.2944,90.2944,0,0,1,479.3793,321.9668Z" transform="translate(-125.5062 -220.5007)"/><path class="cls-160" d="M495.6335,287.3467s.1136,4.9359-2.9654,7.5951a4.7913,4.7913,0,0,1-6.0283.42S490.5215,286.5535,495.6335,287.3467Z" transform="translate(-125.5062 -220.5007)"/><path class="cls-161" d="M489.5519,325.7839s-6.4429,18.5887-13.3442,22.8828c0,0,6.6337-15.0555,8.3011-25.3177A35.7194,35.7194,0,0,1,489.5519,325.7839Z" transform="translate(-125.5062 -220.5007)"/><path class="cls-162" d="M500.8157,339.1142s-9.4763,2.68-12.1346,6.2183-5.521,11.718-4.4986,14.5808,4.895,4.203,4.895,4.203S496.0936,355.21,500.8157,339.1142Z" transform="translate(-125.5062 -220.5007)"/><path class="cls-163" d="M482.1888,357.1016c2.3573.9168-.7339,5.8028-1.1178,5.9634-1.6917.7079-4.71-1.687-4.8633-2.9817S479.4283,356.0281,482.1888,357.1016Z" transform="translate(-125.5062 -220.5007)"/><path class="cls-164" d="M459.8,325.33c2.263-1.13,4.7519.9073,3.6653,4.8351-.489,1.7674-4.4143,2.3544-5.4762,1.598S457.15,326.6528,459.8,325.33Z" transform="translate(-125.5062 -220.5007)"/><path class="cls-165" d="M460.09,338.0381c-1.4568.6124-2.9257-.7587-2.0886-3.1634.3767-1.082,2.8478-1.2885,3.4791-.7737S461.796,337.321,460.09,338.0381Z" transform="translate(-125.5062 -220.5007)"/><path class="cls-166" d="M478.2633,369.0739c-.9746-.2254-1.2206-1.4734.1-2.3976.5942-.4159,1.9392.3936,2.0725.8918S479.4047,369.3378,478.2633,369.0739Z" transform="translate(-125.5062 -220.5007)"/><path class="cls-167" d="M399.0426,372.8748a58.4454,58.4454,0,0,1,7.603-7.1187l8.29-1.0543s4.0463-11.118,8.7167-12.72c0,0,16.4368-3.6929,30.9835-3.1641l5.5915,5.4381s18.5869.0728,22.135.588l1.731.9924s14.0834,2.1958,28.0405,4.0537l3.5342,3.1426s25.528-1.5114,32.3787.574l15.6282,9.8653H536.73v3.0649s-27.535,4.152-49.213,3.7763l-2.306-2.8944s-30.666-.8718-47.9453-.8819l.6635-2.0629-22.993-1.002-39.7747,1.002,3.3344-9.7716s9.2739-1.5217,11.5506-1.67S399.0426,372.8748,399.0426,372.8748Z" transform="translate(-125.5062 -220.5007)"/><path class="cls-154" d="M378.4956,364.7018s1.8273,1.1473,7.1325,1.0543,5.737-2.15,5.737-2.15-1-1.1008-1.5685-1.164S380.71,363.7405,378.4956,364.7018Z" transform="translate(-125.5062 -220.5007)"/><path class="cls-154" d="M406.6456,365.7561a69.788,69.788,0,0,0,12.3931.8228,118.6307,118.6307,0,0,0,14.4-.8228l-18.5028-1.0543A46.6545,46.6545,0,0,0,406.6456,365.7561Z" transform="translate(-125.5062 -220.5007)"/><path class="cls-154" d="M422.3738,352.6559a140.4875,140.4875,0,0,0,20.2341.5652c9.8729-.5685,12.0282-4.4038,12.0282-4.4038S431.3932,348.87,422.3738,352.6559Z" transform="translate(-125.5062 -220.5007)"/><path class="cls-154" d="M438.505,371.5349s19.7877-4.8612,30.6659-4.956a54.9,54.9,0,0,1,18.8362,3.0542s-6.4916,2.0261-24.7511,1.9018S438.505,371.5349,438.505,371.5349Z" transform="translate(-125.5062 -220.5007)"/><path class="cls-154" d="M460.2276,354.2554s-2.0289,1.8541-7.7744,3.9718a47.501,47.501,0,0,1-12.6185,2.3753s14.825,1.1593,25.0566-.8374a105.3289,105.3289,0,0,0,17.4713-4.9217S466.5534,353.395,460.2276,354.2554Z" transform="translate(-125.5062 -220.5007)"/><path class="cls-154" d="M484.0936,355.8358l-5.1293,2.9278a90.9775,90.9775,0,0,0,17.19,2.47,66.7085,66.7085,0,0,0,15.98-1.3442S488.7065,355.6085,484.0936,355.8358Z" transform="translate(-125.5062 -220.5007)"/><path class="cls-154" d="M490.3833,374.8084a75.789,75.789,0,0,1,13.5183-5.1753c7.2844-1.9489,32.8281,3.8383,32.8281,3.8383S513.4121,377.8167,490.3833,374.8084Z" transform="translate(-125.5062 -220.5007)"/><path class="cls-154" d="M515.6683,363.0321l-4.8172,1.5189s16.0813,1.0562,25.3871,1.2105,11.8088-2.1554,11.8088-2.1554S539.52,361.2755,515.6683,363.0321Z" transform="translate(-125.5062 -220.5007)"/><path class="cls-154" d="M536.2382,370.6526l9.2134-1.0195S546.5745,372.7368,536.2382,370.6526Z" transform="translate(-125.5062 -220.5007)"/><path class="cls-8" d="M254.82,395.11c7.79,4.16,136.15,4.58,136.15,4.58l-173.25.36.02-.01c1.9-.7,115.69-42.77,244.39-56.38C357.14,357.38,248.58,391.77,254.82,395.11Z" transform="translate(-125.5062 -220.5007)"/></g></g></g></g></svg>