<svg xmlns="http://www.w3.org/2000/svg" xmlns:xlink="http://www.w3.org/1999/xlink" width="1000.367" height="400" viewBox="0 0 1000.367 400"><defs><style>.cls-1{fill:none;}.cls-2{isolation:isolate;}.cls-3{clip-path:url(#clip-path);}.cls-4{opacity:0.6;}.cls-10,.cls-11,.cls-12,.cls-13,.cls-14,.cls-15,.cls-16,.cls-17,.cls-18,.cls-19,.cls-20,.cls-21,.cls-22,.cls-23,.cls-24,.cls-25,.cls-27,.cls-28,.cls-29,.cls-30,.cls-31,.cls-32,.cls-33,.cls-34,.cls-35,.cls-36,.cls-37,.cls-38,.cls-39,.cls-40,.cls-41,.cls-42,.cls-43,.cls-44,.cls-45,.cls-46,.cls-47,.cls-48,.cls-49,.cls-5,.cls-50,.cls-51,.cls-52,.cls-53,.cls-54,.cls-55,.cls-56,.cls-57,.cls-58,.cls-59,.cls-6,.cls-60,.cls-61,.cls-62,.cls-63,.cls-64,.cls-65,.cls-66,.cls-67,.cls-7,.cls-70,.cls-71,.cls-72,.cls-73,.cls-74,.cls-76,.cls-77,.cls-78,.cls-79,.cls-8,.cls-80,.cls-81{fill-rule:evenodd;}.cls-5{fill:url(#Áåçûìÿííûé_ãðàäèåíò_24);}.cls-6{fill:url(#Áåçûìÿííûé_ãðàäèåíò_40);}.cls-7{fill:url(#Áåçûìÿííûé_ãðàäèåíò_46);}.cls-13,.cls-18,.cls-19,.cls-24,.cls-25,.cls-38,.cls-39,.cls-40,.cls-44,.cls-45,.cls-61,.cls-62,.cls-63,.cls-67,.cls-73,.cls-74,.cls-79,.cls-8,.cls-80{mix-blend-mode:multiply;}.cls-8{fill:url(#Áåçûìÿííûé_ãðàäèåíò_191);}.cls-26,.cls-68,.cls-69,.cls-75,.cls-9{mix-blend-mode:screen;}.cls-9{fill:url(#Áåçûìÿííûé_ãðàäèåíò_17);}.cls-10{fill:url(#Áåçûìÿííûé_ãðàäèåíò_24-2);}.cls-11{fill:url(#Áåçûìÿííûé_ãðàäèåíò_40-2);}.cls-12{fill:url(#Áåçûìÿííûé_ãðàäèåíò_46-2);}.cls-13{fill:url(#Áåçûìÿííûé_ãðàäèåíò_191-2);}.cls-14{fill:url(#Áåçûìÿííûé_ãðàäèåíò_24-3);}.cls-15{fill:url(#Áåçûìÿííûé_ãðàäèåíò_40-3);}.cls-16{fill:url(#Áåçûìÿííûé_ãðàäèåíò_40-4);}.cls-17{fill:url(#Áåçûìÿííûé_ãðàäèåíò_46-3);}.cls-18{fill:url(#Áåçûìÿííûé_ãðàäèåíò_191-3);}.cls-19{fill:url(#Áåçûìÿííûé_ãðàäèåíò_191-4);}.cls-20{fill:url(#Áåçûìÿííûé_ãðàäèåíò_24-4);}.cls-21{fill:url(#Áåçûìÿííûé_ãðàäèåíò_40-5);}.cls-22{fill:url(#Áåçûìÿííûé_ãðàäèåíò_40-6);}.cls-23{fill:url(#Áåçûìÿííûé_ãðàäèåíò_46-4);}.cls-24{fill:url(#Áåçûìÿííûé_ãðàäèåíò_191-5);}.cls-25{fill:url(#Áåçûìÿííûé_ãðàäèåíò_191-6);}.cls-26{fill:url(#Áåçûìÿííûé_ãðàäèåíò_351);}.cls-27{fill:url(#Áåçûìÿííûé_ãðàäèåíò_24-5);}.cls-28{fill:url(#Áåçûìÿííûé_ãðàäèåíò_24-6);}.cls-29{fill:url(#Áåçûìÿííûé_ãðàäèåíò_40-7);}.cls-30{fill:url(#Áåçûìÿííûé_ãðàäèåíò_40-8);}.cls-31{fill:url(#Áåçûìÿííûé_ãðàäèåíò_40-9);}.cls-32{fill:url(#Áåçûìÿííûé_ãðàäèåíò_40-10);}.cls-33{fill:url(#Áåçûìÿííûé_ãðàäèåíò_40-11);}.cls-34{fill:url(#Áåçûìÿííûé_ãðàäèåíò_46-5);}.cls-35{fill:url(#Áåçûìÿííûé_ãðàäèåíò_46-6);}.cls-36{fill:url(#Áåçûìÿííûé_ãðàäèåíò_46-7);}.cls-37{fill:url(#Áåçûìÿííûé_ãðàäèåíò_46-8);}.cls-38{fill:url(#Áåçûìÿííûé_ãðàäèåíò_367);}.cls-39{fill:url(#Áåçûìÿííûé_ãðàäèåíò_367-2);}.cls-40{fill:url(#Áåçûìÿííûé_ãðàäèåíò_367-3);}.cls-41{fill:url(#Áåçûìÿííûé_ãðàäèåíò_54);}.cls-42{fill:url(#Áåçûìÿííûé_ãðàäèåíò_54-2);}.cls-43{fill:url(#Áåçûìÿííûé_ãðàäèåíò_54-3);}.cls-44{fill:#efdbff;}.cls-45{fill:url(#Áåçûìÿííûé_ãðàäèåíò_191-7);}.cls-46{fill:#ffb565;}.cls-47{fill:url(#Áåçûìÿííûé_ãðàäèåíò_24-7);}.cls-48{fill:url(#Áåçûìÿííûé_ãðàäèåíò_24-8);}.cls-49{fill:url(#Áåçûìÿííûé_ãðàäèåíò_40-12);}.cls-50{fill:url(#Áåçûìÿííûé_ãðàäèåíò_40-13);}.cls-51{fill:url(#Áåçûìÿííûé_ãðàäèåíò_40-14);}.cls-52{fill:url(#Áåçûìÿííûé_ãðàäèåíò_40-15);}.cls-53{fill:url(#Áåçûìÿííûé_ãðàäèåíò_40-16);}.cls-54{fill:url(#Áåçûìÿííûé_ãðàäèåíò_46-9);}.cls-55{fill:url(#Áåçûìÿííûé_ãðàäèåíò_46-10);}.cls-56{fill:#ffaa54;}.cls-57{fill:url(#Áåçûìÿííûé_ãðàäèåíò_46-11);}.cls-58{fill:url(#Áåçûìÿííûé_ãðàäèåíò_46-12);}.cls-59{fill:url(#Áåçûìÿííûé_ãðàäèåíò_46-13);}.cls-60{fill:url(#Áåçûìÿííûé_ãðàäèåíò_46-14);}.cls-61{fill:url(#Áåçûìÿííûé_ãðàäèåíò_367-4);}.cls-62{fill:url(#Áåçûìÿííûé_ãðàäèåíò_367-5);}.cls-63{fill:url(#Áåçûìÿííûé_ãðàäèåíò_367-6);}.cls-64{fill:url(#Áåçûìÿííûé_ãðàäèåíò_54-4);}.cls-65{fill:url(#Áåçûìÿííûé_ãðàäèåíò_54-5);}.cls-66{fill:url(#Áåçûìÿííûé_ãðàäèåíò_54-6);}.cls-67{fill:url(#Áåçûìÿííûé_ãðàäèåíò_191-8);}.cls-68{fill:url(#Áåçûìÿííûé_ãðàäèåíò_351-2);}.cls-69{fill:url(#Áåçûìÿííûé_ãðàäèåíò_368);}.cls-70{fill:url(#Áåçûìÿííûé_ãðàäèåíò_24-9);}.cls-71{fill:url(#Áåçûìÿííûé_ãðàäèåíò_40-17);}.cls-72{fill:url(#Áåçûìÿííûé_ãðàäèåíò_46-15);}.cls-73{fill:url(#Áåçûìÿííûé_ãðàäèåíò_367-7);}.cls-74{fill:url(#Áåçûìÿííûé_ãðàäèåíò_367-8);}.cls-75{fill:url(#Áåçûìÿííûé_ãðàäèåíò_229);}.cls-76{fill:url(#Áåçûìÿííûé_ãðàäèåíò_24-10);}.cls-77{fill:url(#Áåçûìÿííûé_ãðàäèåíò_40-18);}.cls-78{fill:url(#Áåçûìÿííûé_ãðàäèåíò_46-16);}.cls-79{fill:url(#Áåçûìÿííûé_ãðàäèåíò_367-9);}.cls-80{fill:url(#Áåçûìÿííûé_ãðàäèåíò_367-10);}.cls-81{fill:#cfffff;}</style><clipPath id="clip-path"><rect class="cls-1" width="1000" height="400"/></clipPath><linearGradient id="Áåçûìÿííûé_ãðàäèåíò_24" x1="1400.0976" y1="392.0426" x2="1400.0976" y2="371.145" gradientTransform="translate(1650 865.6134) rotate(180) scale(1 1.2927)" gradientUnits="userSpaceOnUse"><stop offset="0" stop-color="#814c63"/><stop offset="0.3927" stop-color="#85586e"/><stop offset="1" stop-color="#8d7288"/></linearGradient><linearGradient id="Áåçûìÿííûé_ãðàäèåíò_40" x1="1399.9642" y1="381.5938" x2="1399.9642" y2="371.145" gradientTransform="translate(1650 865.6134) rotate(180) scale(1 1.2927)" gradientUnits="userSpaceOnUse"><stop offset="0" stop-color="#b87251"/><stop offset="0.337" stop-color="#d38755"/><stop offset="0.756" stop-color="#ef9c59"/><stop offset="1" stop-color="#f9a45a"/></linearGradient><linearGradient id="Áåçûìÿííûé_ãðàäèåíò_46" x1="1396.1756" y1="381.5938" x2="1396.1756" y2="371.145" gradientTransform="translate(1650 865.6134) rotate(180) scale(1 1.2927)" gradientUnits="userSpaceOnUse"><stop offset="0" stop-color="#ffb572"/><stop offset="0.2484" stop-color="#fcb46d"/><stop offset="1" stop-color="#f4b363"/></linearGradient><linearGradient id="Áåçûìÿííûé_ãðàäèåíò_191" x1="1413.2734" y1="392.0426" x2="1413.2734" y2="374.5384" gradientTransform="translate(1650 865.6134) rotate(180) scale(1 1.2927)" gradientUnits="userSpaceOnUse"><stop offset="0" stop-color="#d1e8ff"/><stop offset="0.0334" stop-color="#d2e8ff"/><stop offset="0.9944" stop-color="#e3ecff"/></linearGradient><linearGradient id="Áåçûìÿííûé_ãðàäèåíò_17" x1="1395.5385" y1="363.1062" x2="1395.5385" y2="357.194" gradientTransform="matrix(-1, 0, 0, 1, 1650, 0)" gradientUnits="userSpaceOnUse"><stop offset="0"/><stop offset="0.9944" stop-color="#72bdb3"/></linearGradient><linearGradient id="Áåçûìÿííûé_ãðàäèåíò_24-2" x1="1400.0976" y1="358.8199" x2="1400.0976" y2="337.9228" gradientTransform="matrix(-1, 0, 0, 1, 1650, 0)" xlink:href="#Áåçûìÿííûé_ãðàäèåíò_24"/><linearGradient id="Áåçûìÿííûé_ãðàäèåíò_40-2" x1="1399.9642" y1="348.3713" x2="1399.9642" y2="337.9228" gradientTransform="matrix(-1, 0, 0, 1, 1650, 0)" xlink:href="#Áåçûìÿííûé_ãðàäèåíò_40"/><linearGradient id="Áåçûìÿííûé_ãðàäèåíò_46-2" x1="1396.1756" y1="348.3713" x2="1396.1756" y2="337.9228" gradientTransform="matrix(-1, 0, 0, 1, 1650, 0)" xlink:href="#Áåçûìÿííûé_ãðàäèåíò_46"/><linearGradient id="Áåçûìÿííûé_ãðàäèåíò_191-2" x1="1413.2734" y1="358.8199" x2="1413.2734" y2="341.3162" gradientTransform="matrix(-1, 0, 0, 1, 1650, 0)" xlink:href="#Áåçûìÿííûé_ãðàäèåíò_191"/><linearGradient id="Áåçûìÿííûé_ãðàäèåíò_24-3" x1="1593.3314" y1="351.4959" x2="1593.3314" y2="332.993" gradientTransform="matrix(-1, 0, 0, 1, 1650, 0)" xlink:href="#Áåçûìÿííûé_ãðàäèåíò_24"/><linearGradient id="Áåçûìÿííûé_ãðàäèåíò_40-3" x1="1595.8785" y1="338.8712" x2="1595.8785" y2="332.993" gradientTransform="matrix(-1, 0, 0, 1, 1650, 0)" xlink:href="#Áåçûìÿííûé_ãðàäèåíò_40"/><linearGradient id="Áåçûìÿííûé_ãðàäèåíò_40-4" x1="1593.7987" y1="344.568" x2="1593.7987" y2="340.026" gradientTransform="matrix(-1, 0, 0, 1, 1650, 0)" xlink:href="#Áåçûìÿííûé_ãðàäèåíò_40"/><linearGradient id="Áåçûìÿííûé_ãðàäèåíò_46-3" x1="1595.8271" y1="338.6325" x2="1595.8271" y2="332.993" gradientTransform="matrix(-1, 0, 0, 1, 1650, 0)" xlink:href="#Áåçûìÿííûé_ãðàäèåíò_46"/><linearGradient id="Áåçûìÿííûé_ãðàäèåíò_191-3" x1="1603.4547" y1="351.4959" x2="1603.4547" y2="344.4276" gradientTransform="matrix(-1, 0, 0, 1, 1650, 0)" xlink:href="#Áåçûìÿííûé_ãðàäèåíò_191"/><linearGradient id="Áåçûìÿííûé_ãðàäèåíò_191-4" x1="1600.8886" y1="343.267" x2="1600.8886" y2="332.993" gradientTransform="matrix(-1, 0, 0, 1, 1650, 0)" xlink:href="#Áåçûìÿííûé_ãðàäèåíò_191"/><linearGradient id="Áåçûìÿííûé_ãðàäèåíò_24-4" x1="1593.3314" y1="312.9417" x2="1593.3314" y2="294.4391" gradientTransform="translate(1650 632.142) rotate(180) scale(1 0.8968)" xlink:href="#Áåçûìÿííûé_ãðàäèåíò_24"/><linearGradient id="Áåçûìÿííûé_ãðàäèåíò_40-5" x1="1595.8785" y1="300.3172" x2="1595.8785" y2="294.4391" gradientTransform="translate(1650 632.142) rotate(180) scale(1 0.8968)" xlink:href="#Áåçûìÿííûé_ãðàäèåíò_40"/><linearGradient id="Áåçûìÿííûé_ãðàäèåíò_40-6" x1="1593.7987" y1="306.0139" x2="1593.7987" y2="301.472" gradientTransform="translate(1650 632.142) rotate(180) scale(1 0.8968)" xlink:href="#Áåçûìÿííûé_ãðàäèåíò_40"/><linearGradient id="Áåçûìÿííûé_ãðàäèåíò_46-4" x1="1595.8271" y1="300.0785" x2="1595.8271" y2="294.4391" gradientTransform="translate(1650 632.142) rotate(180) scale(1 0.8968)" xlink:href="#Áåçûìÿííûé_ãðàäèåíò_46"/><linearGradient id="Áåçûìÿííûé_ãðàäèåíò_191-5" x1="1603.4547" y1="312.9417" x2="1603.4547" y2="305.8736" gradientTransform="translate(1650 632.142) rotate(180) scale(1 0.8968)" xlink:href="#Áåçûìÿííûé_ãðàäèåíò_191"/><linearGradient id="Áåçûìÿííûé_ãðàäèåíò_191-6" x1="1600.8886" y1="304.713" x2="1600.8886" y2="294.4391" gradientTransform="translate(1650 632.142) rotate(180) scale(1 0.8968)" xlink:href="#Áåçûìÿííûé_ãðàäèåíò_191"/><linearGradient id="Áåçûìÿííûé_ãðàäèåíò_351" x1="1560.2089" y1="352.1266" x2="1622.9549" y2="352.1266" gradientTransform="matrix(-1, 0, 0, 1, 1650, 0)" gradientUnits="userSpaceOnUse"><stop offset="0"/><stop offset="0.9944" stop-color="#d9edea"/></linearGradient><linearGradient id="Áåçûìÿííûé_ãðàäèåíò_24-5" x1="785.0199" y1="418.1816" x2="785.0199" y2="262.1419" gradientTransform="translate(1650 621.3444) rotate(180) scale(1 0.6272)" xlink:href="#Áåçûìÿííûé_ãðàäèåíò_24"/><linearGradient id="Áåçûìÿííûé_ãðàäèåíò_24-6" x1="693.9" y1="416.6475" x2="693.9" y2="389.8492" gradientTransform="translate(1650 621.3444) rotate(180) scale(1 0.6272)" xlink:href="#Áåçûìÿííûé_ãðàäèåíò_24"/><linearGradient id="Áåçûìÿííûé_ãðàäèåíò_40-7" x1="721.4105" y1="372.0915" x2="721.4105" y2="261.2864" gradientTransform="translate(1650 621.3444) rotate(180) scale(1 0.6272)" xlink:href="#Áåçûìÿííûé_ãðàäèåíò_40"/><linearGradient id="Áåçûìÿííûé_ãðàäèåíò_40-8" x1="771.4716" y1="394.3174" x2="771.4716" y2="277.5064" gradientTransform="translate(1650 621.3444) rotate(180) scale(1 0.6272)" xlink:href="#Áåçûìÿííûé_ãðàäèåíò_40"/><linearGradient id="Áåçûìÿííûé_ãðàäèåíò_40-9" x1="830.2108" y1="368.6899" x2="830.2108" y2="323.3364" gradientTransform="translate(1650 621.3444) rotate(180) scale(1 0.6272)" xlink:href="#Áåçûìÿííûé_ãðàäèåíò_40"/><linearGradient id="Áåçûìÿííûé_ãðàäèåíò_40-10" x1="843.49" y1="406.71" x2="843.49" y2="373.5576" gradientTransform="translate(1650 621.3444) rotate(180) scale(1 0.6272)" xlink:href="#Áåçûìÿííûé_ãðàäèåíò_40"/><linearGradient id="Áåçûìÿííûé_ãðàäèåíò_40-11" x1="692.4806" y1="408.301" x2="692.4806" y2="389.8492" gradientTransform="translate(1650 621.3444) rotate(180) scale(1 0.6272)" xlink:href="#Áåçûìÿííûé_ãðàäèåíò_40"/><linearGradient id="Áåçûìÿííûé_ãðàäèåíò_46-5" x1="827.9252" y1="369.2256" x2="827.9252" y2="351.143" gradientTransform="translate(1650 621.3444) rotate(180) scale(1 0.6272)" xlink:href="#Áåçûìÿííûé_ãðàäèåíò_46"/><linearGradient id="Áåçûìÿííûé_ãðàäèåíò_46-6" x1="718.2032" y1="372.0915" x2="718.2032" y2="363.2862" gradientTransform="translate(1650 621.3444) rotate(180) scale(1 0.6272)" xlink:href="#Áåçûìÿííûé_ãðàäèåíò_46"/><linearGradient id="Áåçûìÿííûé_ãðàäèåíò_46-7" x1="694.291" y1="397.1617" x2="694.291" y2="389.8492" gradientTransform="translate(1650 621.3444) rotate(180) scale(1 0.6272)" xlink:href="#Áåçûìÿííûé_ãðàäèåíò_46"/><linearGradient id="Áåçûìÿííûé_ãðàäèåíò_46-8" x1="684.9727" y1="411.2084" x2="684.9727" y2="408.301" gradientTransform="translate(1650 621.3444) rotate(180) scale(1 0.6272)" xlink:href="#Áåçûìÿííûé_ãðàäèåíò_46"/><linearGradient id="Áåçûìÿííûé_ãðàäèåíò_367" x1="752.2136" y1="416.6475" x2="752.2136" y2="272.1043" gradientTransform="translate(1650 621.3444) rotate(180) scale(1 0.6272)" gradientUnits="userSpaceOnUse"><stop offset="0" stop-color="#c0b3d4"/><stop offset="0.4503" stop-color="#d2bfcd"/><stop offset="0.9944" stop-color="#e3cac7"/></linearGradient><linearGradient id="Áåçûìÿííûé_ãðàäèåíò_367-2" x1="775.2021" y1="383.3139" x2="793.3764" y2="383.3139" xlink:href="#Áåçûìÿííûé_ãðàäèåíò_367"/><linearGradient id="Áåçûìÿííûé_ãðàäèåíò_367-3" x1="813.9139" y1="393.4357" x2="850.6582" y2="393.4357" xlink:href="#Áåçûìÿííûé_ãðàäèåíò_367"/><linearGradient id="Áåçûìÿííûé_ãðàäèåíò_54" x1="790.3828" y1="371.1842" x2="790.3828" y2="303.4715" gradientTransform="translate(1650 621.3444) rotate(180) scale(1 0.6272)" gradientUnits="userSpaceOnUse"><stop offset="0" stop-color="#9f917e"/><stop offset="0.1046" stop-color="#ac9375"/><stop offset="0.5073" stop-color="#d99957"/><stop offset="0.8191" stop-color="#f59d45"/><stop offset="1" stop-color="#ff9f3e"/></linearGradient><linearGradient id="Áåçûìÿííûé_ãðàäèåíò_54-2" x1="830.683" y1="353.9734" x2="830.683" y2="334.1733" xlink:href="#Áåçûìÿííûé_ãðàäèåíò_54"/><linearGradient id="Áåçûìÿííûé_ãðàäèåíò_54-3" x1="849.6625" y1="401.2178" x2="849.6625" y2="373.5576" xlink:href="#Áåçûìÿííûé_ãðàäèåíò_54"/><linearGradient id="Áåçûìÿííûé_ãðàäèåíò_191-7" x1="725.7934" y1="321.6765" x2="739.3445" y2="321.6765" gradientTransform="translate(1650 621.3444) rotate(180) scale(1 0.6272)" xlink:href="#Áåçûìÿííûé_ãðàäèåíò_191"/><linearGradient id="Áåçûìÿííûé_ãðàäèåíò_24-7" x1="785.0199" y1="362.9993" x2="785.0199" y2="271.6019" gradientTransform="matrix(-1, 0, 0, 1, 1650, 0)" xlink:href="#Áåçûìÿííûé_ãðàäèåíò_24"/><linearGradient id="Áåçûìÿííûé_ãðàäèåíò_24-8" x1="693.9" y1="362.1007" x2="693.9" y2="346.4041" gradientTransform="matrix(-1, 0, 0, 1, 1650, 0)" xlink:href="#Áåçûìÿííûé_ãðàäèåíò_24"/><linearGradient id="Áåçûìÿííûé_ãðàäèåíò_40-12" x1="721.4105" y1="336.0029" x2="721.4105" y2="271.1008" gradientTransform="matrix(-1, 0, 0, 1, 1650, 0)" xlink:href="#Áåçûìÿííûé_ãðàäèåíò_40"/><linearGradient id="Áåçûìÿííûé_ãðàäèåíò_40-13" x1="771.4716" y1="349.0213" x2="771.4716" y2="280.6014" gradientTransform="matrix(-1, 0, 0, 1, 1650, 0)" xlink:href="#Áåçûìÿííûé_ãðàäèåíò_40"/><linearGradient id="Áåçûìÿííûé_ãðàäèåíò_40-14" x1="830.2108" y1="334.0105" x2="830.2108" y2="307.4455" gradientTransform="matrix(-1, 0, 0, 1, 1650, 0)" xlink:href="#Áåçûìÿííûé_ãðàäèåíò_40"/><linearGradient id="Áåçûìÿííûé_ãðàäèåíò_40-15" x1="843.49" y1="356.28" x2="843.49" y2="336.8616" gradientTransform="matrix(-1, 0, 0, 1, 1650, 0)" xlink:href="#Áåçûìÿííûé_ãðàäèåíò_40"/><linearGradient id="Áåçûìÿííûé_ãðàäèåíò_40-16" x1="692.4806" y1="357.2119" x2="692.4806" y2="346.4041" gradientTransform="matrix(-1, 0, 0, 1, 1650, 0)" xlink:href="#Áåçûìÿííûé_ãðàäèåíò_40"/><linearGradient id="Áåçûìÿííûé_ãðàäèåíò_46-9" x1="721.8648" y1="278.3006" x2="721.8648" y2="271.1008" gradientTransform="matrix(-1, 0, 0, 1, 1650, 0)" xlink:href="#Áåçûìÿííûé_ãðàäèåíò_46"/><linearGradient id="Áåçûìÿííûé_ãðàäèåíò_46-10" x1="742.261" y1="301.2604" x2="742.261" y2="280.6014" gradientTransform="matrix(-1, 0, 0, 1, 1650, 0)" xlink:href="#Áåçûìÿííûé_ãðàäèåíò_46"/><linearGradient id="Áåçûìÿííûé_ãðàäèåíò_46-11" x1="827.9252" y1="334.3242" x2="827.9252" y2="323.7327" gradientTransform="matrix(-1, 0, 0, 1, 1650, 0)" xlink:href="#Áåçûìÿííûé_ãðàäèåíò_46"/><linearGradient id="Áåçûìÿííûé_ãðàäèåíò_46-12" x1="718.2032" y1="336.0029" x2="718.2032" y2="330.8453" gradientTransform="matrix(-1, 0, 0, 1, 1650, 0)" xlink:href="#Áåçûìÿííûé_ãðàäèåíò_46"/><linearGradient id="Áåçûìÿííûé_ãðàäèåíò_46-13" x1="694.291" y1="350.6873" x2="694.291" y2="346.4041" gradientTransform="matrix(-1, 0, 0, 1, 1650, 0)" xlink:href="#Áåçûìÿííûé_ãðàäèåíò_46"/><linearGradient id="Áåçûìÿííûé_ãðàäèåíò_46-14" x1="684.9727" y1="358.9149" x2="684.9727" y2="357.2119" gradientTransform="matrix(-1, 0, 0, 1, 1650, 0)" xlink:href="#Áåçûìÿííûé_ãðàäèåíò_46"/><linearGradient id="Áåçûìÿííûé_ãðàäèåíò_367-4" x1="752.2136" y1="362.1007" x2="752.2136" y2="277.4372" gradientTransform="matrix(-1, 0, 0, 1, 1650, 0)" xlink:href="#Áåçûìÿííûé_ãðàäèåíò_367"/><linearGradient id="Áåçûìÿííûé_ãðàäèåíò_367-5" x1="775.2021" y1="342.5762" x2="793.3764" y2="342.5762" gradientTransform="matrix(-1, 0, 0, 1, 1650, 0)" xlink:href="#Áåçûìÿííûé_ãðàäèåíò_367"/><linearGradient id="Áåçûìÿííûé_ãðàäèåíò_367-6" x1="813.9139" y1="348.5049" x2="850.6582" y2="348.5049" gradientTransform="matrix(-1, 0, 0, 1, 1650, 0)" xlink:href="#Áåçûìÿííûé_ãðàäèåíò_367"/><linearGradient id="Áåçûìÿííûé_ãðàäèåíò_54-4" x1="790.3828" y1="335.4714" x2="790.3828" y2="295.8099" gradientTransform="matrix(-1, 0, 0, 1, 1650, 0)" xlink:href="#Áåçûìÿííûé_ãðàäèåíò_54"/><linearGradient id="Áåçûìÿííûé_ãðàäèåíò_54-5" x1="830.683" y1="325.3905" x2="830.683" y2="313.793" gradientTransform="matrix(-1, 0, 0, 1, 1650, 0)" xlink:href="#Áåçûìÿííûé_ãðàäèåíò_54"/><linearGradient id="Áåçûìÿííûé_ãðàäèåíò_54-6" x1="849.6625" y1="353.0631" x2="849.6625" y2="336.8616" gradientTransform="matrix(-1, 0, 0, 1, 1650, 0)" xlink:href="#Áåçûìÿííûé_ãðàäèåíò_54"/><linearGradient id="Áåçûìÿííûé_ãðàäèåíò_191-8" x1="725.7934" y1="306.4732" x2="739.3445" y2="306.4732" gradientTransform="matrix(-1, 0, 0, 1, 1650, 0)" xlink:href="#Áåçûìÿííûé_ãðàäèåíò_191"/><linearGradient id="Áåçûìÿííûé_ãðàäèåíò_351-2" x1="634.4735" y1="366.0665" x2="900.7035" y2="366.0665" xlink:href="#Áåçûìÿííûé_ãðàäèåíò_351"/><linearGradient id="Áåçûìÿííûé_ãðàäèåíò_368" x1="656.5774" y1="374.0285" x2="771.4716" y2="374.0285" gradientTransform="matrix(-1, 0, 0, 1, 1650, 0)" gradientUnits="userSpaceOnUse"><stop offset="0.0056" stop-color="#d9edea"/><stop offset="1"/></linearGradient><linearGradient id="Áåçûìÿííûé_ãðàäèåíò_24-9" x1="1508.5169" y1="310.6516" x2="1508.5169" y2="294.2962" gradientTransform="translate(1650 683.1681) rotate(180) scale(1 0.9934)" xlink:href="#Áåçûìÿííûé_ãðàäèåíò_24"/><linearGradient id="Áåçûìÿííûé_ãðàäèåíò_40-17" x1="1506.5312" y1="305.2137" x2="1506.5312" y2="294.2962" gradientTransform="translate(1650 683.1681) rotate(180) scale(1 0.9934)" xlink:href="#Áåçûìÿííûé_ãðàäèåíò_40"/><linearGradient id="Áåçûìÿííûé_ãðàäèåíò_46-15" x1="1507.5472" y1="300.8817" x2="1507.5472" y2="294.2962" gradientTransform="translate(1650 683.1681) rotate(180) scale(1 0.9934)" xlink:href="#Áåçûìÿííûé_ãðàäèåíò_46"/><linearGradient id="Áåçûìÿííûé_ãðàäèåíò_367-7" x1="1507.5541" y1="310.6516" x2="1507.5541" y2="300.9735" gradientTransform="translate(1650 683.1681) rotate(180) scale(1 0.9934)" xlink:href="#Áåçûìÿííûé_ãðàäèåíò_367"/><linearGradient id="Áåçûìÿííûé_ãðàäèåíò_367-8" x1="1512.4409" y1="309.0953" x2="1512.4409" y2="300.2344" gradientTransform="translate(1650 683.1681) rotate(180) scale(1 0.9934)" xlink:href="#Áåçûìÿííûé_ãðàäèåíò_367"/><linearGradient id="Áåçûìÿííûé_ãðàäèåíò_229" x1="1506.4528" y1="375.6618" x2="1506.4528" y2="373.7625" gradientTransform="matrix(-1, 0, 0, 1, 1650, 0)" gradientUnits="userSpaceOnUse"><stop offset="0.0056" stop-color="#72bdb3"/><stop offset="1"/></linearGradient><linearGradient id="Áåçûìÿííûé_ãðàäèåíò_24-10" x1="1508.5169" y1="374.5668" x2="1508.5169" y2="358.2115" gradientTransform="matrix(-1, 0, 0, 1, 1650, 0)" xlink:href="#Áåçûìÿííûé_ãðàäèåíò_24"/><linearGradient id="Áåçûìÿííûé_ãðàäèåíò_40-18" x1="1506.5312" y1="369.129" x2="1506.5312" y2="358.2115" gradientTransform="matrix(-1, 0, 0, 1, 1650, 0)" xlink:href="#Áåçûìÿííûé_ãðàäèåíò_40"/><linearGradient id="Áåçûìÿííûé_ãðàäèåíò_46-16" x1="1507.5472" y1="364.797" x2="1507.5472" y2="358.2115" gradientTransform="matrix(-1, 0, 0, 1, 1650, 0)" xlink:href="#Áåçûìÿííûé_ãðàäèåíò_46"/><linearGradient id="Áåçûìÿííûé_ãðàäèåíò_367-9" x1="1507.5541" y1="374.5668" x2="1507.5541" y2="364.8888" gradientTransform="matrix(-1, 0, 0, 1, 1650, 0)" xlink:href="#Áåçûìÿííûé_ãðàäèåíò_367"/><linearGradient id="Áåçûìÿííûé_ãðàäèåíò_367-10" x1="1512.4409" y1="373.0106" x2="1512.4409" y2="364.1498" gradientTransform="matrix(-1, 0, 0, 1, 1650, 0)" xlink:href="#Áåçûìÿííûé_ãðàäèåíò_367"/></defs><g class="cls-2"><g id="rock_01"><g class="cls-3"><g class="cls-4"><polygon class="cls-5" points="267.155 358.82 260.403 378.114 252.885 383.167 248.186 385.834 239.669 381.448 237.614 374.758 232.65 358.82 267.155 358.82"/><path class="cls-6" d="M260.4027,378.1145l-7.518-5.7874-5.6385,7.7659,2.6563-7.7659-9.0992,1.5927-1.1344,7.5278,8.517,4.3867S256.8786,381.3123,260.4027,378.1145Z"/><path class="cls-7" d="M260.4027,378.1145l-7.518-5.7874-5.6385,7.7659.94,5.7413S258.2295,379.9456,260.4027,378.1145Z"/><polygon class="cls-8" points="240.803 373.92 240.803 358.82 232.65 358.82 239.669 381.448 240.803 373.92"/></g><path class="cls-9" d="M233.7773,357.5965,210.3457,358.82l28.8336,1.0919s28.64.281,37.23,1.6317l-50.2737,1.5627,72.4421-.394-33.6632-5.5182Z"/><polygon class="cls-10" points="267.155 358.82 260.403 343.895 252.885 339.986 248.186 337.923 239.669 341.316 237.614 346.491 232.65 358.82 267.155 358.82"/><path class="cls-11" d="M260.4027,343.8945l-7.518,4.4768-5.6385-6.0073,2.6563,6.0073-9.0992-1.232-1.1344-5.8231,8.517-3.3934S256.8786,341.4208,260.4027,343.8945Z"/><path class="cls-12" d="M260.4027,343.8945l-7.518,4.4768-5.6385-6.0073.94-4.4412S258.2295,342.478,260.4027,343.8945Z"/><polygon class="cls-13" points="240.803 347.139 240.803 358.82 232.65 358.82 239.669 341.316 240.803 347.139"/><polygon class="cls-14" points="72.117 351.112 67.806 343.749 58.642 340.026 58.298 337.669 50.048 332.993 46.353 343.267 44.597 344.428 41.221 351.496 72.117 351.112"/><path class="cls-15" d="M58.2977,337.6686l-5.8888,1.2026-2.4635-1.3833.1027-4.4949S56.18,335.5421,58.2977,337.6686Z"/><polygon class="cls-16" points="67.806 343.749 62.494 344.568 54.718 344.568 44.597 344.428 46.353 343.267 52.255 343.267 55.719 342.244 58.642 340.026 67.806 343.749"/><path class="cls-17" d="M58.2977,337.6686l-4.72.9639-3.1705-3.1485-.3592-2.491A28.3389,28.3389,0,0,1,58.2977,337.6686Z"/><polygon class="cls-18" points="51.87 351.496 51.023 345.723 51.447 344.72 44.597 344.428 41.221 351.496 51.87 351.496"/><polygon class="cls-19" points="49.945 337.488 50.048 341.437 51.87 343.267 46.353 343.267 50.048 332.993 49.945 337.488"/><g class="cls-4"><polygon class="cls-20" points="72.117 351.841 67.806 358.443 58.642 361.782 58.298 363.896 50.048 368.089 46.353 358.875 44.597 357.835 41.221 351.496 72.117 351.841"/><path class="cls-21" d="M58.2977,363.896l-5.8888-1.0785-2.4635,1.24.1027,4.031S56.18,365.803,58.2977,363.896Z"/><polygon class="cls-22" points="67.806 358.443 62.494 357.709 54.718 357.709 44.597 357.835 46.353 358.875 52.255 358.875 55.719 359.792 58.642 361.782 67.806 358.443"/><path class="cls-23" d="M58.2977,363.896l-4.72-.8644-3.1705,2.8235-.3592,2.2339A29.5039,29.5039,0,0,0,58.2977,363.896Z"/><polygon class="cls-24" points="51.87 351.496 51.023 356.673 51.447 357.573 44.597 357.835 41.221 351.496 51.87 351.496"/><polygon class="cls-25" points="49.945 364.058 50.048 360.516 51.87 358.875 46.353 358.875 50.048 368.089 49.945 364.058"/></g><path class="cls-26" d="M71.3943,349.878l18.3968,2.0742s-44.0651-.6007-51.7572,0l27.1423,2.423-38.1311-1.7124,14.9484-2.7848-.5806,1.4662,30.3566-.44Z"/><g class="cls-4"><path class="cls-27" d="M936.9069,360.1162l1.0485,27.8524-3.5045,5.5227s3.5045,31.2919,2.5958,56.2648c0,0-4.5606,9.7069-17.823,6.5366l-3.7472-9-19.1127-2.61s-20.5347-17.5643-26.4291-25.0445l-33.8486-31.1005-3.1907,3.5532-6.6312,8.573-4.7892,9.9141-10.5853,7.97-5.9926-1.733-4.0524-29.7657-2.2106-4.0677-6.6292-11.4021V359.0609h36.7468l3.0406,15.194,3.6638,12.29,4.4389-13.6894,1.7192-5.7471,1.03-6.9923Z"/><polygon class="cls-28" points="940.079 361.971 947.467 372.763 962.109 376.831 963.951 376.831 967.571 365.258 972.121 364.99 972.121 360.023 940.079 360.023 940.079 361.971"/><path class="cls-29" d="M919.2237,456.2927l3.9574-5.6121V429.9962l1.0255-14.575,1.4316-2.1759v-20.159l12.3172-5.1177-3.5045,5.5227s4.427,35.09,2.5958,56.2648c0,0-1.9906,6.3419-12.84,7.7095Z"/><path class="cls-30" d="M915.4765,447.2924l3.7472-2.6605,1.747-6.8377-1.747-11.6546-3.7472-15.7484-4.821-21.894-37.3312-14.4687v4.8267l-3.684,12.1272,5.1576,10.8544-18.1743-10.0654-20.5375-3.2337s48.6875,48.0432,60.2777,56.145Z"/><polygon class="cls-31" points="834.681 390.102 819.722 390.102 809.468 399.332 807.479 413.011 812.723 413.435 804.897 416.815 810.89 418.548 821.475 410.578 826.445 401.108 834.681 390.102"/><polygon class="cls-32" points="800.845 387.049 804.897 381.563 808.67 375.557 816.407 371.521 821.015 368.427 803.513 366.256 797.618 368.427 792.005 371.579 800.845 387.049"/><polygon class="cls-33" points="967.571 365.258 957.933 365.258 953.328 372.245 947.467 372.763 962.109 376.831 963.951 376.831 967.571 365.258"/><polygon class="cls-34" points="834.681 390.102 826.445 401.108 826.445 399.332 813.92 399.332 809.468 399.332 819.722 390.102 823.314 389.766 834.681 390.102"/><polygon class="cls-35" points="934.451 393.491 925.638 393.086 937.955 387.969 934.451 393.491"/><polygon class="cls-36" points="963.951 376.831 956.134 373.001 953.328 372.245 947.467 372.763 955.709 376.255 963.951 376.831"/><polygon class="cls-37" points="972.121 364.99 965.424 363.434 957.933 365.258 967.571 365.258 972.121 364.99"/><polygon class="cls-38" points="906.296 425.171 894.507 397.879 873.324 374.029 869.935 360.023 905.988 360.116 925.638 393.086 925.638 413.245 924.207 415.421 923.181 450.681 920.971 436.232 918.13 428.737 906.296 425.171"/><polygon class="cls-39" points="874.798 401.837 869.64 390.982 867.061 378.855 864.98 360.023 859.852 360.116 856.624 391.771 874.798 401.837"/><polygon class="cls-40" points="819.722 390.102 821.015 368.427 801.118 365.492 799.342 359.061 828.752 359.061 831.792 374.255 835.456 386.545 836.086 388.538 834.681 390.102 819.722 390.102"/><polygon class="cls-41" points="856.624 391.771 874.798 401.837 881.183 410.386 881.183 419.721 883.148 431.007 860.634 412.381 836.086 388.538 843.888 389.766 850.484 389.766 856.624 391.771"/><polygon class="cls-42" points="826.445 399.332 826.445 401.108 821.475 410.578 812.188 411.751 815.854 401.108 817.714 399.332 826.445 399.332"/><polygon class="cls-43" points="808.67 375.557 796.452 372.245 795.35 369.701 792.005 371.579 800.845 387.049 808.67 375.557"/><polygon class="cls-44" points="811.341 392.626 811.341 387.969 809.468 376.653 809.468 385.903 809.468 397.754 811.341 392.626"/><polygon class="cls-44" points="929.505 384.127 929.505 373.297 928.135 364.346 926.558 375.428 929.505 384.127"/><polygon class="cls-45" points="924.207 415.421 917.532 395.437 910.655 388.497 920.971 437.794 923.181 450.681 923.252 428.985 924.207 415.421"/><polygon class="cls-46" points="823.314 389.766 819.904 387.049 817.142 392.424 814.413 394.881 823.314 389.766"/></g><path class="cls-47" d="M936.9069,362.0138l1.0485-26.0109-3.5045-5.1576s3.5045-29.2229,2.5958-52.5447c0,0-4.5606-9.0651-17.823-6.1044l-3.7472,8.4052-19.1127,2.4371s-20.5347,16.403-26.4291,23.3887l-33.8486,29.0442-3.1907-3.3183-6.6312-8.0061-4.7892-9.2586L810.89,307.4455l-5.9926,1.6184-4.0524,27.7977-2.2106,3.7988-6.6292,10.6482v11.6907h36.7468l3.0406-14.1894,3.6638-11.4775,4.4389,12.7843,1.7192,5.3671,1.03,6.53Z"/><polygon class="cls-48" points="940.079 360.281 947.467 350.204 962.109 346.404 963.951 346.404 967.571 357.212 972.121 357.462 972.121 362.101 940.079 362.101 940.079 360.281"/><path class="cls-49" d="M919.2237,272.1962l3.9574,5.241V296.754l1.0255,13.6114,1.4316,2.032v18.8261l12.3172,4.7794-3.5045-5.1576s4.427-32.77,2.5958-52.5447c0,0-1.9906-5.9226-12.84-7.2Z"/><path class="cls-50" d="M915.4765,280.6014l3.7472,2.4846,1.747,6.3856-1.747,10.884-3.7472,14.7072-4.821,20.4464-37.3312,13.5121v-4.5076l-3.684-11.3254,5.1576-10.1367-18.1743,9.4-20.5375,3.02s48.6875-44.8668,60.2777-52.4329Z"/><polygon class="cls-51" points="834.681 334.011 819.722 334.011 809.468 325.39 807.479 312.617 812.723 312.22 804.897 309.064 810.89 307.445 821.475 314.888 826.445 323.733 834.681 334.011"/><polygon class="cls-52" points="800.845 336.862 804.897 341.985 808.67 347.594 816.407 351.363 821.015 354.252 803.513 356.28 797.618 354.252 792.005 351.309 800.845 336.862"/><polygon class="cls-53" points="967.571 357.212 957.933 357.212 953.328 350.687 947.467 350.204 962.109 346.404 963.951 346.404 967.571 357.212"/><path class="cls-54" d="M937.0467,278.3006l-7.4493-.802-6.4163-.0614-3.9574-5.241,4.9829-1.0954s5.7592,1.1481,9.4431,2.3454Z"/><polygon class="cls-55" points="919.224 283.086 920.971 289.472 918.269 297.392 906.296 301.26 897.178 296.754 894.507 287.077 896.364 283.039 915.476 280.601 919.224 283.086"/><path class="cls-56" d="M821.475,314.8884l-7.0617-.54-6.9342-1.7321,4.7043-.6138-7.2863-2.9389,5.9926-1.6184S820.6414,313.4049,821.475,314.8884Z"/><polygon class="cls-57" points="834.681 334.011 826.445 323.733 826.445 325.39 813.92 325.39 809.468 325.39 819.722 334.011 823.314 334.324 834.681 334.011"/><polygon class="cls-58" points="934.451 330.845 925.638 331.224 937.955 336.003 934.451 330.845"/><polygon class="cls-59" points="963.951 346.404 956.134 349.981 953.328 350.687 947.467 350.204 955.709 346.942 963.951 346.404"/><polygon class="cls-60" points="972.121 357.462 965.424 358.915 957.933 357.212 967.571 357.212 972.121 357.462"/><polygon class="cls-61" points="906.296 301.26 894.507 326.747 873.324 349.021 869.935 362.101 905.988 362.014 925.638 331.224 925.638 312.397 924.207 310.365 923.181 277.437 920.971 290.931 918.13 297.93 906.296 301.26"/><polygon class="cls-62" points="874.798 323.052 869.64 333.188 867.061 344.514 864.98 362.101 859.852 362.014 856.624 332.451 874.798 323.052"/><polygon class="cls-63" points="819.722 334.011 821.015 354.252 801.118 356.994 799.342 362.999 828.752 362.999 831.792 348.81 835.456 337.332 836.086 335.471 834.681 334.011 819.722 334.011"/><polygon class="cls-64" points="856.624 332.451 874.798 323.052 881.183 315.068 881.183 306.35 883.148 295.81 860.634 313.205 836.086 335.471 843.888 334.324 850.484 334.324 856.624 332.451"/><polygon class="cls-65" points="826.445 325.39 826.445 323.733 821.475 314.888 812.188 313.793 815.854 323.733 817.714 325.39 826.445 325.39"/><polygon class="cls-66" points="808.67 347.594 796.452 350.687 795.35 353.063 792.005 351.309 800.845 336.862 808.67 347.594"/><polygon class="cls-44" points="900.951 303.659 895.612 309.398 881.183 315.068 884.745 310.286 896.165 304.944 900.951 303.659"/><polygon class="cls-44" points="868.748 307.445 865.532 312.233 859.852 317.301 854.743 319.463 868.748 307.445"/><polygon class="cls-44" points="811.341 331.653 811.341 336.003 809.468 346.571 809.468 337.932 809.468 326.864 811.341 331.653"/><polygon class="cls-44" points="929.505 339.591 929.505 349.705 928.135 358.063 926.558 347.715 929.505 339.591"/><polygon class="cls-67" points="924.207 310.365 917.532 329.029 910.655 335.509 920.971 289.472 923.181 277.437 923.252 297.698 924.207 310.365"/><polygon class="cls-46" points="823.314 334.324 819.904 336.862 817.142 331.842 814.413 329.548 823.314 334.324"/><polygon class="cls-46" points="909.51 300.356 905.836 300.063 897.178 296.754 905.918 302.078 909.51 300.356"/><path class="cls-68" d="M972.1212,362.1007l43.4053,2.2456s-163.5693-.844-170.9373,0l76.3815,4.0808s-133.115,4.1261-171.6742,1.2735c0,0,84.3-1.0105,89.9807-2.4841s-70.7625-2.87-70.7625-2.87l24.3144-2.2456,154.6383-.6734Z"/><path class="cls-69" d="M993.4226,374.7428s-67.6927-3.3827-114.8942-.607C878.5284,374.1358,945.899,375.6075,993.4226,374.7428Z"/><g class="cls-4"><polygon class="cls-70" points="152.003 374.567 149.879 382.352 148.287 386.931 145.199 390.814 142.171 389.365 136.408 384.915 134.737 378.216 132.535 377.355 130.963 374.567 152.003 374.567"/><polygon class="cls-71" points="145.199 390.814 148.287 386.931 150.53 379.969 144.511 379.969 140.381 384.181 140.381 382.352 136.408 384.915 142.171 389.365 145.199 390.814"/><polygon class="cls-72" points="148.287 386.931 141.483 384.915 138.592 384.272 136.618 384.915 142.171 389.365 145.52 390.814 148.287 386.931"/><polygon class="cls-73" points="140.381 384.181 144.511 379.969 144.098 374.567 140.381 374.567 140.381 382.352 140.381 384.181"/><polygon class="cls-74" points="134.737 378.216 139.419 376.113 140.381 382.352 136.408 384.915 134.737 378.216"/></g><path class="cls-75" d="M152.0033,373.7625l12.009,1.4506s-28.4492,1.01-40.93,0l8.7183-1.4506Z"/><polygon class="cls-76" points="152.003 374.567 149.879 366.73 148.287 362.121 145.199 358.211 142.171 359.67 136.408 364.15 134.737 370.894 132.535 371.76 130.963 374.567 152.003 374.567"/><polygon class="cls-77" points="145.199 358.211 148.287 362.121 150.53 369.129 144.511 369.129 140.381 364.889 140.381 366.73 136.408 364.15 142.171 359.67 145.199 358.211"/><polygon class="cls-78" points="148.287 362.121 141.483 364.15 138.592 364.797 136.618 364.15 142.171 359.67 145.52 358.211 148.287 362.121"/><polygon class="cls-79" points="140.381 364.889 144.511 369.129 144.098 374.567 140.381 374.567 140.381 366.73 140.381 364.889"/><polygon class="cls-80" points="134.737 370.894 139.419 373.011 140.381 366.73 136.408 364.15 134.737 370.894"/><path class="cls-81" d="M145.9333,379.9688a172.7893,172.7893,0,0,0-19.6391,0S140.2434,381.4207,145.9333,379.9688Z"/></g></g></g></svg>