<?xml version="1.0" encoding="utf-8"?>
<!-- Generator: Adobe Illustrator 26.0.3, SVG Export Plug-In . SVG Version: 6.00 Build 0)  -->
<svg version="1.1" id="Layer_1" xmlns="http://www.w3.org/2000/svg" xmlns:xlink="http://www.w3.org/1999/xlink" x="0px" y="0px"
	 viewBox="0 0 1000 1000" style="enable-background:new 0 0 1000 1000;" xml:space="preserve">
<style type="text/css">
	.st0{fill:#FFFFFF;}
</style>
<g>
	<path class="st0" d="M854.2,287.1c-1.7,6.2,2,12.6,8.3,14.2l40.2,10.7c6.2,1.7,12.6-2.1,14.3-8.2l10.8-40
		c1.6-6.2-2.1-12.6-8.3-14.3l-40.2-10.7c-6.2-1.7-12.7,2-14.3,8.2L854.2,287.1z M97.3,688c-6.2-1.7-12.7,2-14.3,8.2l-10.8,40
		c-1.7,6.2,2.1,12.6,8.3,14.2l40.2,10.7c6.2,1.6,12.7-2.1,14.3-8.2l10.8-40c1.7-6.2-2.1-12.6-8.3-14.3L97.3,688z M135,247.1
		c-1.7-6.2-8.1-9.9-14.3-8.2l-40.2,10.7c-6.2,1.7-9.9,8.1-8.3,14.3l10.8,40c1.7,6.2,8.1,9.9,14.3,8.2l40.2-10.7
		c6.2-1.6,9.9-8.1,8.3-14.2L135,247.1z M508.3,911.5c-4.5-4.5-12-4.5-16.5,0l-29.5,29.3c-4.5,4.5-4.5,11.9,0,16.4l29.5,29.3
		c4.5,4.5,12,4.5,16.5,0l29.5-29.3c4.5-4.5,4.5-11.9,0-16.4L508.3,911.5z M537.7,59.1c4.5-4.5,4.5-11.9,0-16.4l-29.5-29.3
		c-4.5-4.5-12-4.5-16.5,0l-29.5,29.3c-4.5,4.5-4.5,11.9,0,16.4l29.5,29.3c4.5,4.5,12,4.5,16.5,0L537.7,59.1z M534.6,469.4
		c0,0,8-33.8,9.1-37.6c2.3-7.7-0.8-8.1-6.9-2.3c-5.4,5.1-27.1,25.6-27.1,25.6c-7.6,6.3-11.6,8.9-19.3,0c0,0-19.6-18.6-25.7-24.3
		c-9.6-9-9.7-6-7.5,3.1c3,12.2,7.2,29.2,8.5,35.5c2.2,10.2,1.4,12.2-9.6,16.6c0,0-26.7,8.2-36.1,10.6s-8.8,4.7-0.2,7.1
		c8.7,2.4,36.4,10.7,36.4,10.7c7.3,2.3,12.7,7.7,9.6,16.6c0,0-6.6,27.6-8.7,36c-2.2,8.4-0.4,9.5,6.2,3.9
		c6.5-5.6,27.2-25.7,27.2-25.7c6-5.4,12.5-7.4,19.3,0c0,0,22.6,20.8,27.1,25.6c5.3,5.8,8.8,5.4,6.5-3.9c-1.3-5.1-8.7-35.9-8.7-35.9
		c-1.2-8,2-14.1,9.6-16.6c0,0,29.2-8.7,35.6-10.4c8.8-2.4,10.1-4.9,0-7.6c-5.2-1.4-35.5-10.4-35.5-10.4
		C537.4,483.2,531.9,477.1,534.6,469.4L534.6,469.4z M782,662.2c1.4-2.4-80.5-53.2-132.9-86.5c-2.6,1.1-4.7,1.9-6.2,2.5
		c0,0-32.6-18.1-39.9-22.9c-13.5-8.9-10-16,1.9-19.9c0,0,93.1-27.8,104.2-30.6c4.3-1.1,6.7-2.5,7.3-4.1c0.2-1.9-2.2-3.7-7.4-5.1
		c-11.1-2.8-104.2-30.6-104.2-30.6c-12.7-5.1-12.3-15.4-2.1-20.4c7-3.4,39.5-22.7,39.5-22.7c1.6,0.6,4,1.6,7.2,2.9
		c52.6-33.5,134.2-84.3,132.8-86.7c-1.4-2.4-86.9,42.9-142.1,71.4c-0.4,2.8-0.7,5-0.9,6.5c0,0-31.3,17.8-38.8,22.3
		c-13.1,7.8-19.3-2.5-17.4-11.3c0,0,22.4-94.1,25.5-105.1c1.1-4,1.2-6.7,0.3-8.1c-1.5-1-4.3,0.1-8,3.9c-8,8.1-78.7,74.5-78.7,74.5
		c-7.6,7.2-18.7,4.8-18.7-6.4v-47.4c1.3-1,3.2-2.4,5.6-4.3c-2.8-61.8-6.1-158.3-8.9-158.3s-6.2,96-9.1,158.1
		c2.5,1.9,4.5,3.5,5.8,4.5V386c0,11.1-12.2,13.1-18.6,6.2c0,0-70.7-66.3-78.7-74.5c-3.5-3.6-6.2-4.8-7.8-4.1c-1.1,1.2-1.2,4,0,8.4
		c3.1,10.9,25.4,105.1,25.4,105.1c1.6,11.7-6.1,17.1-17.3,11.3c-3.5-1.8-38.8-22.3-38.8-22.3c-0.2-1.6-0.5-3.8-0.9-6.7
		C304.9,380.9,219.4,335.6,218,338c-1.4,2.4,80.5,53.4,133.1,86.9c3.2-1.3,5.6-2.3,7.1-2.9c0,0,29.6,16.3,38.8,22.3
		c11,7.1,9.1,16.5-1.6,20.8c0,0-93.1,27.8-104.2,30.6c-4.9,1.3-7.3,2.9-7.5,4.7c0.5,1.6,2.9,3,7.3,4.1
		c11.1,2.8,104.2,30.6,104.2,30.6c9.2,3.7,11.8,14.4-1.4,21.9c-8.5,4.8-36.4,20.9-36.4,20.9c-1.5-0.6-3.5-1.5-6.1-2.5
		C298.8,609,216.6,659.9,218,662.3c1.4,2.4,86.4-42.5,141.8-71c0.5-3.4,0.8-6,1-7.7c0,0,29.2-16.7,35.7-20.4
		c12.1-7,22.4-3.8,20.5,9.6c0,0-22.4,94.1-25.4,105c-1.6,5.7-1,8.7,1.2,9.1c1.6,0,3.8-1.4,6.7-4.3c8-8.1,78.7-74.4,78.7-74.4
		c10.1-7.9,18.5-7.2,18.5,8.2v45.8c-1.3,1-3.3,2.5-5.8,4.4c2.9,62.1,6.3,157.5,9.1,157.5c2.8,0,6-95.9,8.9-157.8
		c-2.4-1.8-4.3-3.3-5.6-4.3v-45.1c0-15,4.4-19.8,18.5-8.8c0,0,70.7,66.3,78.7,74.4c3.1,3.2,5.6,4.5,7.2,4.3c1.8-0.8,2.1-3.7,0.7-8.9
		c-3.1-10.9-25.5-105-25.5-105c-1.5-10.7,6.2-17.8,16.7-11.8c4,2.3,39.5,22.7,39.5,22.7c0.2,1.7,0.6,4.2,1,7.5
		C695.6,619.7,780.6,664.6,782,662.2L782,662.2z M903.9,629.4c4.8,11.7-1,20.6-10.4,24.6c-4.2,1.8-33.4,13.6-53.7,21.8
		c-13.8,5.5-19.6,11.3-16.8,31.3c3,21.5,7.1,50.9,7.6,55.2c1.2,10.1-3.6,19.6-16.2,21.3c-10.4,1.4-19.5-8.7-21.4-16.1
		c-1.9-7.5-18.3-65.7-20.3-73.3c-2.2-8-4.2-12.9-12.8-17.9l-11.1-6.4c-7.1-3.9-13.4,1.5-12.2,10.9c1.3,9.5,8.7,62.7,8.7,62.7
		c1.4,10.3-5.8,19.9-16.2,21.3c-10.4,1.4-20-5.8-21.4-16.1c0,0-16.3-61.7-21-82c-4.1-17.3-10.6-28.8-18.6-33.4l-7.1-4.1
		c-5-2.7-16.6-5.1-14.7,7.3c1.9,12.4,13.8,88.3,13.8,88.3c2.4,17-2.7,29.7-12.7,33.5c-8.3,3.7-20.1,1-31.9-8.1
		c0,0-64.7-51.7-70.3-56.1c-8.9-7-13-2.2-13.3,9.1v8.2c0.1,9.2,6.8,20.6,19.8,32.7c15.3,14.3,60.8,59.1,60.8,59.1
		c8.3,6.4,9.8,18.3,3.3,26.5c-6.4,8.2-18.4,9.7-26.7,3.3c0,0-42.5-33-50.2-38.8c-7.6-5.8-15.4-3.1-15.6,5V812
		c0.1,9.8,3.3,14.1,9.2,19.9c5.5,5.6,48.1,48.8,53.6,54.2c5.6,5.4,9.8,18.3,3.3,26.5c-7.8,10-18.5,9.4-26.7,3.3
		c-3.6-2.7-28.5-22-45.8-35.4c-11.7-9.1-19.7-11.2-35.6,1.2c-17.3,13.4-40.8,31.6-44.3,34.2c-8.2,6.1-18.9,6.6-26.7-3.3
		c-6.4-8.2-2.2-21.2,3.3-26.5c5.6-5.4,48.1-48.6,53.6-54.2c5.9-5.9,9.1-10.1,9.2-19.9v-12.7c-0.1-8.1-8-10.8-15.6-5
		s-50.2,38.8-50.2,38.8c-8.3,6.4-20.2,4.9-26.7-3.3c-6.4-8.2-4.9-20.1,3.4-26.5c0,0,80.6-82.6,80.7-91.9v-8.2
		c-0.3-13.1-6.9-13.6-13-9.2c-3.8,2.7-70.6,56.2-70.6,56.2c-10.9,8.4-21.7,11.4-29.9,8.8c-11.3-2.8-17.2-16-14.7-34.1
		c0,0,13.4-84.3,13.7-88.4c0.9-10.9-3.3-13.3-14.6-7.2l-7.1,4.1c-8,4.7-14.5,16.2-18.6,33.5c-4.8,20.3-21,82-21,82
		c-1.5,10.3-11,17.6-21.4,16.1c-10.4-1.4-17.7-11-16.2-21.3c0,0,7.5-53.2,8.7-62.7s-5.1-14.8-12.2-10.9l-11.1,6.4
		c-8.5,5-10.6,9.9-12.8,17.9c-2.1,7.5-18.4,65.8-20.3,73.3c-1.9,7.5-11,17.6-21.4,16.1c-12.6-1.7-17.4-11.2-16.2-21.3
		c0.5-4.3,4.6-33.7,7.6-55.2c2.8-20-3-25.8-16.8-31.3c-20.4-8.2-49.6-20-53.7-21.8c-9.4-4-15.2-12.9-10.4-24.6
		c4-9.7,17.3-12.5,24.8-10.4s66.4,17.1,74,19.1c8,2.1,13.3,2.8,22-2.1l11.1-6.4c7-4.1,5.4-12.3-3.4-15.9
		c-8.9-3.7-58.9-23.9-58.9-23.9c-9.7-3.9-14.4-14.9-10.5-24.6c4-9.7,15-14.3,24.8-10.4c0,0,61.8,16.8,81.9,22.8
		c17.1,5.2,30.4,5.2,38.4,0.7l7.1-4.1c9-5.4,14.3-11.3,0.6-16.6c-6.8-2.6-83.3-32-83.3-32c-14.1-5.7-22.4-14.7-23-24
		c-1.5-10.4,7-21,22.9-27.4c0,0,76.8-29.6,83-31.7c16.6-5.8,7.7-12-0.3-16.8l-7.1-4.1c-8.1-4.5-21.3-4.4-38.4,0.7
		c-20.1,6.1-81.9,22.9-81.9,22.9c-9.7,3.9-20.8-0.7-24.7-10.4c-4-9.7,0.7-20.7,10.4-24.6c0,0,50-20.2,58.9-23.8
		c11.3-4.6,13.2-10.1,3.4-15.9l-11.1-6.4c-8.6-4.9-13.9-4.2-22-2.1c-7.6,2-66.5,17-74,19.1s-20.8-0.7-24.7-10.4
		c-4.8-11.7,1-20.6,10.4-24.6c4-1.7,31.6-12.9,51.9-21c18.8-7.6,20.9-15.4,18.9-30.1c-3-21.7-7.4-52.7-7.9-57.2
		c-1.2-10.1,3.6-19.6,16.2-21.3c10.4-1.4,19.5,8.7,21.4,16.1c1.9,7.5,18.3,65.8,20.3,73.3c2.2,8,4.3,12.9,12.8,17.9l11.1,6.4
		c9.6,5.3,13.8,2.7,12.1-10.9c-1.3-10.9-8.7-62.7-8.7-62.7c-1.5-10.4,5.8-19.9,16.2-21.3c10.4-1.4,20,5.8,21.4,16.1
		c0,0,16.3,61.6,21.1,82c4.1,17.3,10.6,28.8,18.6,33.5l7.1,4.1c5,2.7,16,4.3,14.7-7.8c-2.3-16.8-13.8-87.7-13.8-87.7
		c-2.1-15.1,1.6-26.7,9.4-31.8c8.3-6.5,21.8-4.4,35.3,6c0,0,56.4,45.9,69.1,55.7c10,8.5,14.4-2.9,14.5-8.7v-8.2
		c-0.1-9.2-6.8-20.6-19.8-32.7c-15.3-14.3-60.8-59.1-60.8-59.1c-8.3-6.4-9.8-18.3-3.4-26.5c6.5-8.2,18.4-9.7,26.7-3.3
		c0,0,42.6,33,50.2,38.9c7.6,5.8,15.4,3,15.6-5v-12.7c-0.1-9.9-3.3-14.1-9.2-20c-5.5-5.6-48.1-48.8-53.6-54.2
		c-5.6-5.4-9.8-18.3-3.3-26.5c7.8-10,18.5-9.4,26.7-3.3c3.5,2.6,27,20.8,44.3,34.2c16,12.4,23.9,10.3,35.6,1.2
		c17.3-13.5,42.2-32.7,45.8-35.4c8.2-6.1,18.9-6.7,26.7,3.3c6.4,8.2,2.3,21.1-3.3,26.5s-48.1,48.6-53.6,54.2
		c-5.9,5.9-9.1,10.1-9.2,20V201c0.1,8.1,8,10.8,15.6,5c7.7-5.8,50.2-38.9,50.2-38.9c8.3-6.4,20.2-4.9,26.7,3.3
		c6.4,8.2,5,20.1-3.3,26.5c0,0-45.5,44.8-60.8,59.1c-13,12.2-19.7,23.5-19.8,32.7v8.2c0.2,5.9,2.9,16.6,14.8,8.5
		c12-9.2,68.8-55.5,68.8-55.5c14.1-10.9,28.1-12.6,36.3-5.1c7.1,5.5,10.4,16.7,8.4,31.1c0,0-11.6,71.1-13.9,87.7
		c-0.9,9.2,9.7,10.6,14.8,7.9l7.1-4.1c8-4.7,14.5-16.1,18.6-33.4c4.8-20.3,21.1-82,21.1-82c1.4-10.3,11-17.6,21.4-16.1
		c10.4,1.4,17.6,11,16.2,21.3c0,0-7.5,53.2-8.7,62.7c-1.2,9.4,5.1,14.8,12.2,10.9l11.1-6.4c8.5-5,10.6-9.9,12.8-17.9
		c2.1-7.5,18.4-65.8,20.3-73.3c1.9-7.5,11-17.6,21.4-16.1c12.6,1.7,17.4,11.2,16.2,21.3c-0.5,4.5-4.9,35.5-7.9,57.2
		c-2.1,14.7,0.1,22.5,18.9,30.1c20.3,8.2,47.9,19.3,51.9,21c9.4,4,15.3,12.9,10.5,24.6c-3.9,9.7-17.3,12.5-24.7,10.4
		c-7.5-2.1-66.4-17.1-74-19.1c-8-2.1-13.3-2.8-22,2.1l-11.1,6.4c-7,4.1-5.4,12.3,3.4,15.9c8.9,3.7,58.9,23.8,58.9,23.8
		c9.7,3.9,14.4,15,10.4,24.6c-3.9,9.7-15,14.3-24.7,10.4c0,0-61.8-16.8-81.9-22.9c-17.1-5.1-30.4-5.2-38.4-0.7l-7.1,4.1
		c-4.8,2.9-13.9,10.8-1,16.3c17.1,7,83.7,32.3,83.7,32.3c16.1,6.5,24.6,17.3,22.8,27.8c-0.9,9-9.1,17.8-22.9,23.3
		c0,0-70.7,26.5-84,32.5s-3.5,13.1,1.3,16l7.1,4.1c8.1,4.5,21.3,4.5,38.4-0.7c20.1-6.1,81.9-22.8,81.9-22.8
		c9.7-3.9,20.8,0.7,24.8,10.4s-0.7,20.7-10.5,24.6c0,0-50,20.2-58.9,23.9c-8.8,3.6-10.4,11.8-3.4,15.9l11.1,6.4
		c8.6,4.9,13.9,4.2,21.9,2.1c7.6-2,66.5-17,74-19.1C886.6,616.9,900,619.7,903.9,629.4L903.9,629.4z M902.7,688
		c6.2-1.7,12.7,2,14.3,8.2l10.8,40c1.6,6.2-2.1,12.6-8.3,14.2l-40.2,10.7c-6.2,1.6-12.7-2.1-14.3-8.2l-10.8-40
		c-1.7-6.2,2-12.6,8.3-14.3L902.7,688z"/>
</g>
</svg>
